<svg width="55" height="54" viewBox="0 0 55 54" fill="none" xmlns="http://www.w3.org/2000/svg">
<path d="M54.4886 26.085V27.7451C54.4674 28.0316 54.4461 28.3127 54.4302 28.5991C54.356 29.8773 54.1863 31.1397 53.9264 32.3914C53.4066 34.9108 52.542 37.3082 51.3274 39.5783C49.9643 42.1295 48.2352 44.3996 46.1454 46.3939C44.236 48.2132 42.1038 49.7248 39.7541 50.9182C37.5105 52.0586 35.1503 52.8648 32.6786 53.3422C31.5489 53.5596 30.4085 53.7081 29.2628 53.7665C28.9764 53.7824 28.6953 53.8036 28.4089 53.8248H26.7488C26.7063 53.8195 26.6639 53.8089 26.6215 53.8036C25.7251 53.7294 24.8287 53.6869 23.9376 53.5755C22.3199 53.374 20.7393 53.0027 19.1906 52.4935C14.9262 51.0827 11.2399 48.7542 8.13177 45.5135C6.11095 43.4078 4.47202 41.0316 3.23089 38.3902C1.76699 35.2874 0.928963 32.0254 0.727412 28.5991C0.7115 28.3127 0.690283 28.0316 0.669067 27.7451C0.669067 27.1935 0.669067 26.6366 0.669067 26.085C0.674371 26.0373 0.68498 25.9895 0.690284 25.9418C0.73802 24.637 0.875924 23.3481 1.1093 22.0646C1.55483 19.5982 2.33452 17.2379 3.44835 14.9944C5.1032 11.6582 7.35739 8.7834 10.2003 6.37008C12.4969 4.42352 15.0482 2.90658 17.854 1.81396C19.4611 1.18809 21.1159 0.726646 22.8079 0.424319C23.8263 0.243983 24.8552 0.116688 25.8895 0.0583438C26.1759 0.0424319 26.457 0.0212159 26.7434 0C27.2951 0 27.852 0 28.4036 0C28.4301 0.00530398 28.4619 0.0159119 28.4885 0.0212159C29.0083 0.0530398 29.5333 0.0795597 30.0531 0.121992C31.0927 0.206855 32.1164 0.365975 33.1347 0.578134C35.5215 1.08201 37.7969 1.89352 39.9557 3.01797C42.9842 4.59325 45.6203 6.67241 47.8639 9.24484C49.7574 11.4195 51.2691 13.8328 52.3829 16.4954C53.5551 19.2853 54.234 22.1972 54.4196 25.2204C54.4355 25.5122 54.4568 25.7986 54.478 26.0903L54.4886 26.085ZM27.5656 51.6661C41.1597 51.6926 52.1548 40.7134 52.3352 27.2731C52.5208 13.4138 41.393 2.32845 27.9262 2.15872C14.0828 1.98369 2.99221 13.1008 2.82248 26.5783C2.64745 40.48 13.9025 51.6926 27.5656 51.6661V51.6661Z" fill="#351D63"/>
<path d="M16.178 24.0483V13.7585H18.7663C20.331 18.6064 20.6917 19.7733 20.7978 20.2453H20.8402C20.7394 18.9511 20.7076 17.2539 20.7076 15.6468V13.7585H22.7973V24.0483H20.2461C18.6231 18.7019 18.3155 17.6623 18.1988 17.2167H18.1511C18.2306 18.4526 18.273 20.362 18.273 22.0434V24.0483H16.178Z" fill="#351D63"/>
<path d="M31.098 18.8342C31.098 22.6054 30.069 24.239 27.5125 24.239C25.1257 24.239 24.0702 22.5788 24.0702 18.7812C24.0702 14.9835 25.2477 13.5674 27.608 13.5674C29.9682 13.5674 31.098 15.254 31.098 18.8342ZM26.5366 18.7812C26.5366 21.3218 26.7646 22.3773 27.5762 22.3773C28.4301 22.3773 28.6263 21.3961 28.6263 18.7812C28.6263 16.3414 28.4248 15.4344 27.5762 15.4344C26.7275 15.4344 26.5366 16.3838 26.5366 18.7812Z" fill="#351D63"/>
<path d="M32.3604 24.0483V13.7585H34.9487C36.5134 18.6064 36.874 19.7733 36.9801 20.2453H37.0226C36.9218 18.9511 36.89 17.2539 36.89 15.6468V13.7585H38.9797V24.0483H36.4285C34.8055 18.7019 34.4979 17.6623 34.3812 17.2167H34.3334C34.413 18.4526 34.4554 20.362 34.4554 22.0434V24.0483H32.3604Z" fill="#351D63"/>
<path d="M36.2003 32.7307C35.4206 32.7307 35.2032 33.643 35.2032 35.9396C35.2032 38.3742 35.4206 39.3872 36.2003 39.3872C37.0224 39.3872 37.2081 38.4431 37.2081 35.9396C37.2081 33.6006 37.0118 32.7307 36.2003 32.7307V32.7307Z" fill="#351D63"/>
<path d="M4.34467 26.9282C4.25451 34.0409 7.8453 42.2302 15.7482 46.9242C23.4178 51.4804 33.1612 51.2205 40.5974 46.1658C44.289 43.657 47.047 40.3526 48.8557 36.2738C50.1711 33.3036 50.8129 30.1902 50.8129 26.9335H4.34467V26.9282ZM22.1342 40.9785H20.4688C20.4316 40.7186 20.3945 40.4746 20.3839 40.1988C19.9596 40.9679 19.2223 41.1641 18.448 41.1641C16.4802 41.1641 15.5785 39.6896 15.5785 36.1094C15.5785 32.2004 16.9257 30.9433 19.0791 30.9433C21.8637 30.9433 22.0865 33.1445 22.113 33.9136H19.8482C19.8217 33.4309 19.758 32.7255 19.0102 32.7255C18.1668 32.7255 17.96 33.8287 17.96 36.1253C17.96 38.422 18.1615 39.382 18.9784 39.382C19.6679 39.382 19.8694 38.8038 19.8694 37.743V37.1119H18.8988V35.335H22.1342V40.9785V40.9785ZM31.6496 40.9785H29.5174V37.8226C29.5174 36.2898 29.5439 34.253 29.5704 33.0596H29.5068C29.215 35.1176 28.8066 38.4485 28.3611 40.9785H26.5312C26.1865 38.3477 25.7781 35.0274 25.5076 33.0331H25.4333C25.481 34.1894 25.5235 36.1837 25.5235 37.8916V40.9732H23.5292V31.1131H26.7169C27.0404 33.171 27.364 35.648 27.5125 37.027H27.5602C27.7511 35.5578 28.1224 33.415 28.4884 31.1131H31.6443V40.9732L31.6496 40.9785ZM36.1367 41.1641C33.8507 41.1641 32.8377 39.5729 32.8377 35.9344C32.8377 32.2959 33.9674 30.938 36.2269 30.938C38.4864 30.938 39.5684 32.5557 39.5684 35.9874C39.5684 39.5994 38.5819 41.1641 36.1314 41.1641H36.1367Z" fill="#351D63"/>
</svg>
