<svg width="54" height="54" viewBox="0 0 54 54" fill="none" xmlns="http://www.w3.org/2000/svg">
<path d="M15.5706 17.0625C15.5308 16.9242 15.4749 16.8021 15.403 16.696C15.331 16.5881 15.2429 16.4972 15.1388 16.4233C15.0365 16.3475 14.9191 16.2898 14.7865 16.25C14.6558 16.2102 14.5109 16.1903 14.3518 16.1903C14.0545 16.1903 13.7931 16.2642 13.5677 16.4119C13.3443 16.5597 13.17 16.7746 13.045 17.0568C12.92 17.3371 12.8575 17.6799 12.8575 18.0852C12.8575 18.4905 12.9191 18.8352 13.0422 19.1193C13.1653 19.4034 13.3395 19.6203 13.5649 19.7699C13.7903 19.9176 14.0564 19.9915 14.3632 19.9915C14.6416 19.9915 14.8793 19.9422 15.0763 19.8438C15.2751 19.7434 15.4266 19.6023 15.5308 19.4205C15.6369 19.2386 15.6899 19.0237 15.6899 18.7756L15.9399 18.8125H14.4399V17.8864H16.8746V18.6193C16.8746 19.1307 16.7666 19.5701 16.5507 19.9375C16.3348 20.303 16.0374 20.5852 15.6586 20.7841C15.2799 20.9811 14.8461 21.0796 14.3575 21.0796C13.8121 21.0796 13.3329 20.9593 12.92 20.7188C12.5071 20.4763 12.1852 20.1326 11.9541 19.6875C11.7249 19.2405 11.6104 18.7102 11.6104 18.0966C11.6104 17.625 11.6785 17.2046 11.8149 16.8352C11.9532 16.464 12.1463 16.1496 12.3944 15.8921C12.6425 15.6345 12.9314 15.4385 13.2609 15.304C13.5905 15.1695 13.9475 15.1023 14.3319 15.1023C14.6615 15.1023 14.9683 15.1506 15.2524 15.2472C15.5365 15.3419 15.7884 15.4763 16.0081 15.6506C16.2297 15.8248 16.4105 16.0322 16.5507 16.2727C16.6908 16.5114 16.7808 16.7746 16.8206 17.0625H15.5706Z" fill="#936DDC"/>
<path d="M17.7986 21V15.1818H19.0287V19.9858H21.523V21H17.7986Z" fill="#936DDC"/>
<path d="M25.9314 15.1818H27.1615V18.9602C27.1615 19.3845 27.0602 19.7557 26.8575 20.0739C26.6568 20.3921 26.3755 20.6402 26.0138 20.8182C25.652 20.9943 25.2306 21.0824 24.7496 21.0824C24.2666 21.0824 23.8443 20.9943 23.4825 20.8182C23.1208 20.6402 22.8395 20.3921 22.6388 20.0739C22.438 19.7557 22.3376 19.3845 22.3376 18.9602V15.1818H23.5677V18.8551C23.5677 19.0767 23.616 19.2737 23.7126 19.446C23.8111 19.6184 23.9494 19.7538 24.1274 19.8523C24.3054 19.9508 24.5128 20 24.7496 20C24.9882 20 25.1956 19.9508 25.3717 19.8523C25.5497 19.7538 25.6871 19.6184 25.7836 19.446C25.8821 19.2737 25.9314 19.0767 25.9314 18.8551V15.1818Z" fill="#936DDC"/>
<path d="M27.952 16.196V15.1818H32.7304V16.196H30.9491V21H29.7332V16.196H27.952Z" fill="#936DDC"/>
<path d="M33.5173 21V15.1818H37.4378V16.196H34.7474V17.5824H37.2361V18.5966H34.7474V19.9858H37.4491V21H33.5173Z" fill="#936DDC"/>
<path d="M43.2822 15.1818V21H42.2197L39.6885 17.3381H39.6459V21H38.4157V15.1818H39.4953L42.0067 18.8409H42.0578V15.1818H43.2822Z" fill="#936DDC"/>
<path fill-rule="evenodd" clip-rule="evenodd" d="M27 50C14.2974 50 4 39.7025 4 27H50C50 39.7025 39.7026 50 27 50ZM15.803 32.7273V40H17.3406V36.9957H20.2988V35.728H17.3406V33.995H20.6183V32.7273H15.803ZM21.6526 32.7273V40H23.1902V37.4219H24.3127L25.6902 40H27.3877L25.8446 37.1746C25.8668 37.165 25.8887 37.1551 25.9104 37.1449C26.3058 36.9602 26.6076 36.6951 26.816 36.3494C27.0243 36.0014 27.1285 35.5859 27.1285 35.103C27.1285 34.6224 27.0255 34.2045 26.8195 33.8494C26.6159 33.4919 26.3188 33.2161 25.9282 33.022C25.5399 32.8255 25.0712 32.7273 24.5219 32.7273H21.6526ZM23.1902 36.1861H24.2343C24.5278 36.1861 24.7717 36.1458 24.9658 36.0653C25.16 35.9848 25.3044 35.8641 25.399 35.7031C25.4961 35.5421 25.5447 35.3421 25.5447 35.103C25.5447 34.8615 25.4961 34.6579 25.399 34.4922C25.3044 34.3265 25.1588 34.201 24.9623 34.1158C24.7681 34.0282 24.5231 33.9844 24.2272 33.9844H23.1902V36.1861ZM28.2151 32.7273V40H33.1299V38.7322H29.7527V36.9957H32.8635V35.728H29.7527V33.995H33.1157V32.7273H28.2151ZM34.3381 32.7273V40H39.2529V38.7322H35.8758V36.9957H38.9866V35.728H35.8758V33.995H39.2387V32.7273H34.3381Z" fill="#936DDC"/>
<path fill-rule="evenodd" clip-rule="evenodd" d="M27 54C41.9117 54 54 41.9117 54 27C54 12.0883 41.9117 0 27 0C12.0883 0 0 12.0883 0 27C0 41.9117 12.0883 54 27 54ZM27 52C40.8071 52 52 40.8071 52 27C52 13.1929 40.8071 2 27 2C13.1929 2 2 13.1929 2 27C2 40.8071 13.1929 52 27 52Z" fill="#936DDC"/>
</svg>
