<svg width="54" height="54" viewBox="0 0 54 54" fill="none" xmlns="http://www.w3.org/2000/svg">
<path d="M53.6654 26.0111V27.6634C53.6404 27.9513 53.6279 28.2266 53.6029 28.5145C53.5277 29.7913 53.3525 31.043 53.1022 32.2948C52.5889 34.8108 51.7252 37.2016 50.5111 39.4547C49.1467 41.9957 47.4318 44.2614 45.3414 46.2516C43.4388 48.0666 41.3108 49.5687 38.9701 50.7704C36.7295 51.9095 34.3762 52.7106 31.9103 53.1862C30.7837 53.399 29.6446 53.5492 28.5056 53.6118C28.2177 53.6243 27.9423 53.6494 27.6544 53.6744H26.0021C26.0021 53.6744 25.9145 53.6619 25.8769 53.6494C24.9882 53.5743 24.0869 53.5367 23.1982 53.4241C21.5835 53.2238 20.0063 52.8483 18.4666 52.3476C14.2107 50.9456 10.5432 48.6174 7.43885 45.3879C5.42355 43.285 3.7963 40.9192 2.55708 38.2781C1.10507 35.1863 0.266404 31.9318 0.0661268 28.5145C0.0410921 28.2266 0.0285747 27.9387 0.00354004 27.6634C0.00354004 27.1126 0.00354004 26.5618 0.00354004 26.0111C0.00354004 25.961 0.0160574 25.9109 0.0285747 25.8734C0.0786442 24.5716 0.216335 23.2823 0.441647 22.0055C0.892272 19.5396 1.66835 17.1988 2.78239 14.9582C4.43468 11.6286 6.67529 8.76215 9.51673 6.35882C11.8074 4.41863 14.3484 2.90403 17.1523 1.81502C18.7545 1.18915 20.4068 0.726007 22.0967 0.42559C23.1106 0.23783 24.137 0.112656 25.1759 0.0625868C25.4388 0.0375521 25.7267 0.0250347 26.0146 0C26.5654 0 27.1161 0 27.6669 0C27.6919 0 27.7295 0.0125174 27.7545 0.0250347C28.2802 0.0625868 28.7935 0.0876215 29.3192 0.125174C30.3581 0.212795 31.3845 0.363003 32.3985 0.575798C34.7767 1.07649 37.0424 1.89012 39.1954 3.00417C42.2121 4.58135 44.8407 6.64672 47.0813 9.21277C48.9714 11.3783 50.4735 13.7941 51.5876 16.4478C52.7517 19.2267 53.4401 22.1307 53.6154 25.1474C53.6279 25.4353 53.6529 25.7232 53.678 26.0111H53.6654ZM26.8157 51.5214C40.372 51.5465 51.3372 40.6063 51.5125 27.2002C51.7002 13.3811 40.6098 2.32823 27.1787 2.15299C13.3721 1.97774 2.31925 13.0556 2.15653 26.4992C1.98128 40.356 13.2093 51.5339 26.8282 51.5214H26.8157Z" fill="#351D63"/>
<path fill-rule="evenodd" clip-rule="evenodd" d="M3.67112 26.8496C3.5835 33.9344 7.16347 42.1083 15.0369 46.7898C22.685 51.3336 32.3985 51.0707 39.8087 46.0387C43.4888 43.5352 46.2427 40.2432 48.0452 36.175C49.3595 33.2084 49.9979 30.1041 49.9979 26.8621H3.67112V26.8496ZM8.7407 37.9527V29.3783H10.756V32.8081H10.781L12.2706 29.3783H14.3234L12.4959 33.1585L14.4361 37.9527H12.3081L11.1941 34.9736L10.7435 35.8373V37.9527H8.7407ZM19.8937 37.452C20.3067 36.9764 20.507 36.2253 20.507 35.2239H20.5195V31.7316C20.5195 30.9054 20.2817 30.2671 19.8186 29.8289C19.3554 29.3908 18.6795 29.1655 17.8033 29.1655C16.9271 29.1655 16.2511 29.3783 15.7755 29.8289C15.2998 30.2796 15.062 30.9054 15.062 31.7316V35.2239C15.062 36.2253 15.2748 36.9638 15.6878 37.4395C16.1009 37.9277 16.8269 38.1655 17.8033 38.1655C18.7796 38.1655 19.4806 37.9277 19.8937 37.452ZM18.4667 31.4312C18.4917 31.5563 18.4917 31.7065 18.4917 31.8693V31.8818V35.3992C18.4917 35.5619 18.4792 35.6996 18.4667 35.8373C18.4542 35.975 18.4166 36.1001 18.3791 36.2128C18.3415 36.3255 18.2664 36.4256 18.1663 36.5007C18.0661 36.5758 17.941 36.6134 17.7908 36.6134C17.6405 36.6134 17.5154 36.5758 17.4152 36.5007C17.3151 36.4256 17.24 36.3255 17.1899 36.2003C17.1399 36.0751 17.1148 35.9499 17.0898 35.8122C17.0647 35.6746 17.0647 35.5369 17.0647 35.3867V35.3867V31.8693V31.8693C17.0647 31.7191 17.0647 31.5689 17.0898 31.4437C17.1148 31.306 17.1399 31.1933 17.1899 31.0807C17.2275 30.9805 17.3026 30.8929 17.4027 30.8178C17.5029 30.7552 17.6155 30.7177 17.7782 30.7177C17.941 30.7177 18.0661 30.7552 18.1663 30.8178C18.2664 30.8929 18.329 30.9805 18.3791 31.0807C18.4166 31.1933 18.4542 31.306 18.4667 31.4312ZM22.998 35.0988V35.6871C22.998 35.975 23.0606 36.2003 23.1732 36.3631C23.2859 36.5258 23.4987 36.6134 23.7991 36.6134C24.0244 36.6134 24.1871 36.5258 24.2998 36.3631C24.4124 36.2003 24.475 35.9875 24.475 35.7622C24.475 35.4743 24.3999 35.249 24.2372 35.0738C24.0745 34.8985 23.8366 34.7233 23.5112 34.5355C23.4737 34.5105 23.4236 34.4855 23.3486 34.448L23.3485 34.4479L23.3485 34.4479C22.9855 34.2476 22.685 34.0474 22.4472 33.8846C22.2094 33.7094 21.9966 33.5216 21.8213 33.3339C21.6336 33.1085 21.4834 32.8457 21.3832 32.5703C21.2831 32.2949 21.233 31.9695 21.233 31.619C21.233 30.8304 21.4583 30.217 21.8964 29.804C22.3346 29.3909 22.9604 29.1781 23.749 29.1781C24.5376 29.1781 25.201 29.4159 25.6391 29.8791C26.0772 30.3422 26.3026 30.9681 26.3026 31.7316V31.8443V31.957H24.45V31.8568C24.45 31.7308 24.435 31.6123 24.4224 31.513C24.4187 31.484 24.4153 31.4567 24.4124 31.4312C24.3999 31.3186 24.3749 31.2059 24.3248 31.1058C24.2873 30.9931 24.2122 30.9055 24.1245 30.8429C24.0369 30.7803 23.9243 30.7428 23.7741 30.7303C23.5613 30.7303 23.3985 30.7803 23.2859 30.8805C23.1732 30.9806 23.0981 31.1183 23.0856 31.3061V31.3686V31.4312C23.0856 31.6315 23.1357 31.7942 23.2358 31.9319C23.3359 32.0696 23.4987 32.2073 23.6989 32.345C23.8492 32.4451 24.087 32.5953 24.425 32.7831C24.9882 33.1086 25.3763 33.3714 25.5766 33.5592C25.8269 33.7845 26.0147 34.0599 26.1398 34.3853C26.265 34.7108 26.3276 35.1113 26.3276 35.612C26.3276 36.4382 26.1023 37.064 25.6642 37.5147C25.2261 37.9653 24.5877 38.1781 23.749 38.1781C23.3109 38.1781 22.9229 38.1155 22.5849 38.0028C22.2469 37.8902 21.9716 37.7275 21.7588 37.5272C21.546 37.3269 21.3832 37.1016 21.2831 36.8387C21.183 36.5759 21.1329 36.3005 21.1329 36.0126V35.0988H22.998ZM27.1287 29.3783V37.9527H29.144V34.3852H30.5334V37.9527H32.5487V29.3783H30.5334V32.6704H29.144V29.3783H27.1287ZM33.5501 37.9527V29.3783H38.1565V31.0932H35.5654V32.6704H38.0814V34.3852H35.5654V36.2378H38.2942V37.9527H33.5501ZM39.2205 37.9527H41.2358L41.2608 37.9652V34.5855H41.9242C42.1495 34.598 42.3123 34.6857 42.4124 34.8359C42.5125 34.9861 42.5876 35.1989 42.6127 35.4868C42.6252 35.6119 42.6377 35.7496 42.6377 35.8998V36.6509V37.477C42.6377 37.6147 42.6878 37.7774 42.7504 37.9652H44.9409V37.8525C44.8533 37.7774 44.7907 37.6773 44.7406 37.5521C44.7097 37.4182 44.6958 37.2503 44.6778 37.0346C44.674 36.9882 44.6699 36.9396 44.6655 36.8887C44.6492 36.7014 44.6382 36.4823 44.6257 36.2315C44.6189 36.0967 44.6117 35.9528 44.6029 35.7997C44.5951 35.6429 44.5885 35.5045 44.5827 35.3838C44.5701 35.119 44.5615 34.939 44.5529 34.8359C44.5403 34.548 44.4402 34.2976 44.265 34.1099C44.0897 33.9096 43.8519 33.7844 43.564 33.7218V33.6968C43.9771 33.509 44.2524 33.2587 44.4026 32.9457C44.5529 32.6328 44.628 32.2323 44.628 31.7441C44.628 30.9054 44.4277 30.2921 44.0271 29.9291C43.6266 29.5661 43.0007 29.3783 42.162 29.3783H39.2205V37.9527ZM41.9242 33.0208H41.2358V30.9179C41.799 30.9179 42.1746 30.9805 42.3623 31.1057C42.5501 31.2309 42.6502 31.5188 42.6502 31.9569C42.6502 32.2698 42.6001 32.5202 42.4875 32.7204C42.3748 32.9207 42.1871 33.0208 41.9242 33.0208Z" fill="#351D63"/>
<path d="M10.0925 19.3767V18.9136C10.0925 18.6132 10.0424 18.3878 9.95482 18.2251C9.85468 18.0624 9.72951 17.9873 9.56678 17.9873C9.31644 17.9873 9.15371 18.0499 9.05357 18.1625C8.96595 18.2877 8.91588 18.4755 8.91588 18.7258V22.2432C8.91588 22.456 8.95343 22.6062 9.05357 22.7188C9.15371 22.8315 9.30392 22.8816 9.5042 22.8816C9.64189 22.8816 9.74203 22.844 9.82965 22.7814C9.91727 22.7188 9.97986 22.6437 10.0174 22.5436C10.055 22.4435 10.08 22.3433 10.0925 22.2307C10.0925 22.118 10.1175 21.9928 10.1175 21.8551V21.2042H11.7949V22.0805C11.7949 22.7314 11.5946 23.2321 11.2066 23.6076C10.8185 23.9831 10.2052 24.1583 9.37902 24.1583C8.62798 24.1583 8.08974 23.9706 7.75177 23.5825C7.4138 23.1945 7.23856 22.6312 7.23856 21.8927V18.9636C7.23856 18.1876 7.42632 17.6243 7.78932 17.2488C8.15232 16.8732 8.7156 16.698 9.47916 16.698C10.2427 16.698 10.781 16.8607 11.169 17.1987C11.557 17.5367 11.7573 18.0499 11.7573 18.7634V19.3642H10.08L10.0925 19.3767Z" fill="#351D63"/>
<path d="M12.596 24.0081V16.8857H16.4263V18.3127H14.2733V19.627H16.3637V21.054H14.2733V22.5937H16.5389V24.0206H12.596V24.0081Z" fill="#351D63"/>
<path d="M18.9798 24.0081H17.3025V16.8857H19.7433C20.4443 16.8857 20.9575 17.036 21.2955 17.3489C21.6335 17.6618 21.7962 18.1625 21.7962 18.851C21.7962 19.2515 21.7336 19.5895 21.6084 19.8524C21.4833 20.1152 21.2454 20.3155 20.92 20.4782V20.5033C21.1578 20.5533 21.3581 20.6535 21.5083 20.8162C21.6585 20.9789 21.7336 21.1792 21.7461 21.417C21.7461 21.5422 21.7712 21.8051 21.7837 22.2181C21.8087 22.5811 21.8212 22.8816 21.8337 23.1194C21.8463 23.3572 21.8713 23.5325 21.8963 23.6701C21.9464 23.7828 21.9965 23.8579 22.0591 23.9205V24.0206H20.2315C20.1689 23.8579 20.1439 23.7202 20.1314 23.6076C20.1314 23.4198 20.1314 23.1945 20.1314 22.9191C20.1314 22.6312 20.1314 22.4184 20.1314 22.2932C20.1314 22.1681 20.1314 22.0554 20.1063 21.9553C20.0813 21.7174 20.0312 21.5422 19.9436 21.417C19.856 21.2919 19.7183 21.2167 19.5431 21.2042H18.9923V24.0206L18.9798 24.0081ZM18.9798 19.9149H19.5556C19.7809 19.9149 19.9311 19.8273 20.0187 19.6646C20.1063 19.5019 20.1564 19.2891 20.1564 19.0262C20.1564 18.6632 20.0813 18.4254 19.9186 18.3252C19.7559 18.2251 19.4554 18.1625 18.9923 18.1625V19.9149H18.9798Z" fill="#351D63"/>
<path d="M22.2218 16.8857H26.5528V18.3127H25.2009V24.0081H23.5236V18.3127H22.2093V16.8857H22.2218Z" fill="#351D63"/>
<path d="M27.2538 24.0081V16.8857H28.9311V24.0081H27.2538Z" fill="#351D63"/>
<path d="M29.8699 24.0081V16.8857H33.8004V18.3127H31.5347V19.577H33.6126V21.004H31.5347V24.0206H29.8574L29.8699 24.0081Z" fill="#351D63"/>
<path d="M34.639 24.0081V16.8857H36.3164V24.0081H34.639Z" fill="#351D63"/>
<path d="M37.2301 24.0081V16.8857H41.0604V18.3127H38.9075V19.627H40.9979V21.054H38.9075V22.5937H41.1731V24.0206H37.2301V24.0081Z" fill="#351D63"/>
<path d="M41.9867 24.0081V16.8857H43.8017C44.2023 16.8857 44.5653 16.9108 44.8657 16.9483C45.1661 16.9859 45.4415 17.0735 45.6793 17.2237C45.9797 17.399 46.18 17.6243 46.2801 17.9247C46.3803 18.2251 46.4304 18.5756 46.4304 18.9761V22.143C46.4304 22.8816 46.1925 23.3948 45.7169 23.6827C45.5166 23.8204 45.2913 23.908 45.0534 23.9455C44.8156 23.9956 44.5402 24.0081 44.2398 24.0081H41.9867V24.0081ZM43.664 22.7313H43.7892C43.7892 22.7313 43.8643 22.7313 43.8893 22.7313C44.2523 22.7313 44.4902 22.6562 44.6028 22.506C44.7155 22.3558 44.7781 22.1055 44.7781 21.7425C44.7781 21.6924 44.7781 21.6423 44.7781 21.5798V19.0638C44.7781 18.851 44.753 18.6882 44.7155 18.5756C44.6779 18.4629 44.6153 18.3753 44.5402 18.3127C44.4526 18.2501 44.3525 18.2126 44.2273 18.2001C44.1021 18.1875 43.9144 18.175 43.6765 18.1625V22.7188L43.664 22.7313Z" fill="#351D63"/>
</svg>
