<svg width="54" height="54" viewBox="0 0 54 54" fill="none" xmlns="http://www.w3.org/2000/svg">
<path d="M14.3259 17.6914H13.2372C13.2173 17.5505 13.1767 17.4254 13.1154 17.3161C13.0541 17.205 12.9753 17.1106 12.8792 17.0327C12.7831 16.9548 12.6721 16.8951 12.5461 16.8537C12.4218 16.8123 12.2868 16.7916 12.1409 16.7916C11.8774 16.7916 11.6479 16.857 11.4524 16.9879C11.2568 17.1172 11.1052 17.3061 10.9975 17.5547C10.8898 17.8016 10.8359 18.1016 10.8359 18.4545C10.8359 18.8175 10.8898 19.1224 10.9975 19.3693C11.1068 19.6162 11.2593 19.8027 11.4549 19.9286C11.6504 20.0546 11.8766 20.1175 12.1335 20.1175C12.2777 20.1175 12.4111 20.0985 12.5337 20.0604C12.658 20.0223 12.7682 19.9667 12.8643 19.8938C12.9604 19.8193 13.04 19.7289 13.1029 19.6229C13.1676 19.5168 13.2123 19.3958 13.2372 19.2599L14.3259 19.2649C14.2978 19.4986 14.2273 19.724 14.1147 19.9411C14.0036 20.1565 13.8536 20.3496 13.6647 20.5202C13.4775 20.6893 13.2537 20.8235 12.9936 20.9229C12.735 21.0207 12.4425 21.0696 12.1161 21.0696C11.662 21.0696 11.256 20.9669 10.898 20.7614C10.5417 20.5559 10.26 20.2584 10.0529 19.869C9.84738 19.4795 9.74463 19.0081 9.74463 18.4545C9.74463 17.8994 9.84903 17.4271 10.0578 17.0376C10.2666 16.6482 10.55 16.3516 10.908 16.1477C11.2659 15.9422 11.6686 15.8395 12.1161 15.8395C12.4111 15.8395 12.6845 15.8809 12.9364 15.9638C13.1899 16.0466 13.4145 16.1676 13.61 16.3267C13.8056 16.4841 13.9647 16.6772 14.0873 16.9059C14.2116 17.1346 14.2911 17.3964 14.3259 17.6914Z" fill="#936DDC"/>
<path d="M15.0978 21V15.9091H18.5282V16.7965H16.1741V18.0096H18.3517V18.897H16.1741V20.1126H18.5381V21H15.0978Z" fill="#936DDC"/>
<path d="M19.3839 21V15.9091H21.3924C21.7769 15.9091 22.105 15.9779 22.3768 16.1154C22.6503 16.2513 22.8582 16.4444 23.0008 16.6946C23.1449 16.9432 23.217 17.2357 23.217 17.5721C23.217 17.9102 23.1441 18.201 22.9983 18.4446C22.8524 18.6866 22.6411 18.8722 22.3644 19.0014C22.0893 19.1307 21.7562 19.1953 21.3651 19.1953H20.0203V18.3303H21.1911C21.3966 18.3303 21.5673 18.3021 21.7032 18.2457C21.8391 18.1894 21.9401 18.1049 22.0064 17.9922C22.0744 17.8795 22.1084 17.7395 22.1084 17.5721C22.1084 17.4031 22.0744 17.2605 22.0064 17.1445C21.9401 17.0285 21.8382 16.9407 21.7007 16.881C21.5648 16.8197 21.3933 16.7891 21.1861 16.7891H20.4603V21H19.3839ZM22.1332 18.6832L23.3985 21H22.2103L20.9723 18.6832H22.1332Z" fill="#936DDC"/>
<path d="M23.7838 16.7965V15.9091H27.9649V16.7965H26.4063V21H25.3424V16.7965H23.7838Z" fill="#936DDC"/>
<path d="M29.7298 15.9091V21H28.6535V15.9091H29.7298Z" fill="#936DDC"/>
<path d="M30.6154 21V15.9091H33.9861V16.7965H31.6917V18.0096H33.7624V18.897H31.6917V21H30.6154Z" fill="#936DDC"/>
<path d="M35.7864 15.9091V21H34.7101V15.9091H35.7864Z" fill="#936DDC"/>
<path d="M36.672 21V15.9091H40.1024V16.7965H37.7484V18.0096H39.9259V18.897H37.7484V20.1126H40.1123V21H36.672Z" fill="#936DDC"/>
<path d="M42.7628 21H40.9581V15.9091H42.7777C43.2898 15.9091 43.7306 16.011 44.1002 16.2148C44.4697 16.417 44.754 16.7079 44.9528 17.0874C45.1533 17.4669 45.2536 17.9209 45.2536 18.4496C45.2536 18.9799 45.1533 19.4356 44.9528 19.8168C44.754 20.1979 44.4681 20.4904 44.0952 20.6943C43.724 20.8981 43.2799 21 42.7628 21ZM42.0345 20.0778H42.7181C43.0363 20.0778 43.3039 20.0214 43.521 19.9087C43.7397 19.7944 43.9038 19.6179 44.0132 19.3793C44.1242 19.139 44.1797 18.8291 44.1797 18.4496C44.1797 18.0734 44.1242 17.766 44.0132 17.5273C43.9038 17.2887 43.7406 17.113 43.5235 17.0004C43.3064 16.8877 43.0388 16.8313 42.7206 16.8313H42.0345V20.0778Z" fill="#936DDC"/>
<path fill-rule="evenodd" clip-rule="evenodd" d="M27 54C41.9117 54 54 41.9117 54 27C54 12.0883 41.9117 0 27 0C12.0883 0 0 12.0883 0 27C0 41.9117 12.0883 54 27 54ZM27 52C40.8071 52 52 40.8071 52 27C52 13.1929 40.8071 2 27 2C13.1929 2 2 13.1929 2 27C2 40.8071 13.1929 52 27 52Z" fill="#936DDC"/>
<path fill-rule="evenodd" clip-rule="evenodd" d="M27 50C14.2974 50 4 39.7025 4 27H50C50 39.7025 39.7026 50 27 50ZM11.6033 32.1818V38H12.8334V36.3466L13.4385 35.608L15.0323 38H16.5039L14.3193 34.7869L16.4783 32.1818H15.0039L12.9102 34.7472H12.8334V32.1818H11.6033ZM21.7766 36.7102C22.0172 36.2652 22.1375 35.7254 22.1375 35.0909C22.1375 34.4564 22.0172 33.9167 21.7766 33.4716C21.538 33.0265 21.2122 32.6875 20.7994 32.4545C20.3884 32.2197 19.9263 32.1023 19.413 32.1023C18.8959 32.1023 18.4319 32.2197 18.0209 32.4545C17.61 32.6875 17.2852 33.0265 17.0465 33.4716C16.8079 33.9167 16.6885 34.4564 16.6885 35.0909C16.6885 35.7235 16.8079 36.2623 17.0465 36.7074C17.2852 37.1525 17.61 37.4924 18.0209 37.7273C18.4319 37.9621 18.8959 38.0795 19.413 38.0795C19.9263 38.0795 20.3884 37.9631 20.7994 37.7301C21.2122 37.4953 21.538 37.1553 21.7766 36.7102ZM20.7056 34.0511C20.8287 34.3333 20.8903 34.6799 20.8903 35.0909C20.8903 35.5019 20.8287 35.8485 20.7056 36.1307C20.5844 36.4129 20.413 36.6269 20.1914 36.7727C19.9698 36.9186 19.7103 36.9915 19.413 36.9915C19.1157 36.9915 18.8562 36.9186 18.6346 36.7727C18.413 36.6269 18.2407 36.4129 18.1176 36.1307C17.9963 35.8485 17.9357 35.5019 17.9357 35.0909C17.9357 34.6799 17.9963 34.3333 18.1176 34.0511C18.2407 33.7689 18.413 33.5549 18.6346 33.4091C18.8562 33.2633 19.1157 33.1903 19.413 33.1903C19.7103 33.1903 19.9698 33.2633 20.1914 33.4091C20.413 33.5549 20.5844 33.7689 20.7056 34.0511ZM25.9123 33.321C26.0847 33.4479 26.1822 33.6259 26.2049 33.8551H27.3839C27.3782 33.5085 27.2854 33.2036 27.1055 32.9403C26.9255 32.6771 26.6736 32.4716 26.3498 32.3239C26.0278 32.1761 25.6509 32.1023 25.2191 32.1023C24.7949 32.1023 24.4161 32.1761 24.0828 32.3239C23.7494 32.4716 23.4871 32.6771 23.2958 32.9403C23.1064 33.2036 23.0127 33.5114 23.0146 33.8636C23.0127 34.2936 23.1537 34.6354 23.4379 34.8892C23.7219 35.143 24.1093 35.3295 24.5998 35.4489L25.2333 35.608C25.4454 35.6591 25.6244 35.7159 25.7703 35.7784C25.918 35.8409 26.0297 35.9167 26.1055 36.0057C26.1831 36.0947 26.2219 36.2045 26.2219 36.3352C26.2219 36.4754 26.1793 36.5994 26.0941 36.7074C26.0089 36.8153 25.8886 36.8996 25.7333 36.9602C25.5799 37.0208 25.399 37.0511 25.1907 37.0511C24.9786 37.0511 24.7882 37.0189 24.6197 36.9545C24.453 36.8883 24.3195 36.7907 24.2191 36.6619C24.1206 36.5312 24.0648 36.3684 24.0515 36.1733H22.8611C22.8706 36.5919 22.9719 36.9432 23.1651 37.2273C23.3602 37.5095 23.631 37.7225 23.9776 37.8665C24.3261 38.0104 24.7352 38.0824 25.2049 38.0824C25.6784 38.0824 26.0828 38.0114 26.418 37.8693C26.7551 37.7254 27.0127 37.5237 27.1907 37.2642C27.3706 37.0028 27.4615 36.6941 27.4634 36.3381C27.4615 36.0956 27.417 35.8807 27.3299 35.6932C27.2447 35.5057 27.1244 35.3428 26.9691 35.2045C26.8138 35.0663 26.6301 34.9498 26.418 34.8551C26.2059 34.7604 25.9729 34.6847 25.7191 34.6278L25.1964 34.5028C25.0695 34.4744 24.9502 34.4403 24.8384 34.4006C24.7267 34.3589 24.6282 34.3106 24.543 34.2557C24.4578 34.1989 24.3905 34.1316 24.3412 34.054C24.2939 33.9763 24.2722 33.8854 24.2759 33.7812C24.2759 33.6562 24.3119 33.5445 24.3839 33.446C24.4578 33.3475 24.5638 33.2708 24.7021 33.2159C24.8403 33.1591 25.0098 33.1307 25.2106 33.1307C25.506 33.1307 25.7399 33.1941 25.9123 33.321ZM29.5209 32.1818H28.2908V38H29.5209V35.5966H32.0181V38H33.2454V32.1818H32.0181V34.5824H29.5209V32.1818ZM38.1801 32.1818H34.2596V38H38.1914V36.9858H35.4897V35.5966H37.9783V34.5824H35.4897V33.196H38.1801V32.1818ZM41.4535 32.1818H39.158V38H40.3881V35.9375H41.2861L42.3881 38H43.7461L42.5117 35.7397C42.5294 35.732 42.5469 35.7241 42.5643 35.7159C42.8806 35.5682 43.1221 35.3561 43.2887 35.0795C43.4554 34.8011 43.5387 34.4688 43.5387 34.0824C43.5387 33.6979 43.4563 33.3636 43.2916 33.0795C43.1287 32.7936 42.891 32.5729 42.5785 32.4176C42.2679 32.2604 41.8929 32.1818 41.4535 32.1818ZM40.3881 34.9489H41.2234C41.4582 34.9489 41.6533 34.9167 41.8086 34.8523C41.9639 34.7879 42.0794 34.6913 42.1552 34.5625C42.2328 34.4337 42.2717 34.2737 42.2717 34.0824C42.2717 33.8892 42.2328 33.7263 42.1552 33.5938C42.0794 33.4612 41.963 33.3608 41.8057 33.2926C41.6505 33.2225 41.4544 33.1875 41.2177 33.1875H40.3881V34.9489Z" fill="#936DDC"/>
</svg>
