<svg width="54" height="54" viewBox="0 0 54 54" fill="none" xmlns="http://www.w3.org/2000/svg">
<path d="M21.5407 13.2727V22H19.9469L16.1501 16.5071H16.0861V22H14.241V13.2727H15.8603L19.6273 18.7614H19.704V13.2727H21.5407Z" fill="#936DDC"/>
<path d="M31.0851 17.6364C31.0851 18.5881 30.9047 19.3977 30.5439 20.0653C30.1859 20.733 29.6973 21.2429 29.078 21.5952C28.4615 21.9446 27.7683 22.1193 26.9984 22.1193C26.2229 22.1193 25.5268 21.9432 24.9104 21.5909C24.2939 21.2386 23.8067 20.7287 23.4487 20.0611C23.0908 19.3935 22.9118 18.5852 22.9118 17.6364C22.9118 16.6847 23.0908 15.875 23.4487 15.2074C23.8067 14.5398 24.2939 14.0313 24.9104 13.6818C25.5268 13.3295 26.2229 13.1534 26.9984 13.1534C27.7683 13.1534 28.4615 13.3295 29.078 13.6818C29.6973 14.0313 30.1859 14.5398 30.5439 15.2074C30.9047 15.875 31.0851 16.6847 31.0851 17.6364ZM29.2143 17.6364C29.2143 17.0199 29.122 16.5 28.9373 16.0767C28.7555 15.6534 28.4984 15.3324 28.166 15.1136C27.8337 14.8949 27.4444 14.7855 26.9984 14.7855C26.5524 14.7855 26.1632 14.8949 25.8308 15.1136C25.4984 15.3324 25.2399 15.6534 25.0552 16.0767C24.8734 16.5 24.7825 17.0199 24.7825 17.6364C24.7825 18.2528 24.8734 18.7727 25.0552 19.196C25.2399 19.6193 25.4984 19.9403 25.8308 20.1591C26.1632 20.3778 26.5524 20.4872 26.9984 20.4872C27.4444 20.4872 27.8337 20.3778 28.166 20.1591C28.4984 19.9403 28.7555 19.6193 28.9373 19.196C29.122 18.7727 29.2143 18.2528 29.2143 17.6364Z" fill="#936DDC"/>
<path d="M39.7516 13.2727V22H38.1579L34.361 16.5071H34.2971V22H32.4519V13.2727H34.0712L37.8383 18.7614H37.915V13.2727H39.7516Z" fill="#936DDC"/>
<path fill-rule="evenodd" clip-rule="evenodd" d="M27 54C41.9117 54 54 41.9117 54 27C54 12.0883 41.9117 0 27 0C12.0883 0 0 12.0883 0 27C0 41.9117 12.0883 54 27 54ZM27 52C40.8071 52 52 40.8071 52 27C52 13.1929 40.8071 2 27 2C13.1929 2 2 13.1929 2 27C2 40.8071 13.1929 52 27 52Z" fill="#936DDC"/>
<path fill-rule="evenodd" clip-rule="evenodd" d="M27 50C14.2974 50 4 39.7025 4 27H50C50 39.7025 39.7026 50 27 50ZM18.546 34.544C18.6539 34.7031 18.7377 34.8864 18.7974 35.0938H20.6724C20.6127 34.6619 20.4778 34.267 20.2676 33.9091C20.0574 33.5483 19.7861 33.2372 19.4537 32.9758C19.1241 32.7145 18.7463 32.5128 18.3201 32.3707C17.894 32.2258 17.4338 32.1534 16.9395 32.1534C16.3627 32.1534 15.8272 32.2543 15.3329 32.456C14.8386 32.6577 14.4053 32.9517 14.0332 33.3381C13.6611 33.7244 13.3713 34.196 13.1639 34.7528C12.9594 35.3068 12.8571 35.9375 12.8571 36.6449C12.8571 37.5653 13.0289 38.3608 13.3727 39.0312C13.7193 39.6989 14.2022 40.2145 14.8215 40.5781C15.4409 40.9389 16.1596 41.1193 16.9778 41.1193C17.7108 41.1193 18.3613 40.9716 18.9295 40.6761C19.4977 40.3778 19.9437 39.9545 20.2676 39.4062C20.5914 38.8551 20.7534 38.196 20.7534 37.429V36.3295H17.1014V37.7188H18.9758C18.9682 38.0676 18.8889 38.3716 18.7377 38.6307C18.5815 38.9034 18.3542 39.1151 18.0559 39.2656C17.7605 39.4133 17.4039 39.4872 16.9863 39.4872C16.5261 39.4872 16.127 39.3764 15.7889 39.1548C15.4508 38.9304 15.1895 38.6051 15.0048 38.179C14.8201 37.7528 14.7278 37.2358 14.7278 36.6278C14.7278 36.0199 14.8215 35.5057 15.009 35.0852C15.1965 34.6619 15.4579 34.3395 15.7932 34.1179C16.1312 33.8963 16.5233 33.7855 16.9693 33.7855C17.2079 33.7855 17.4252 33.8153 17.6213 33.875C17.8201 33.9347 17.9963 34.0213 18.1497 34.1349C18.3059 34.2457 18.438 34.3821 18.546 34.544ZM24.415 32.2727H22.1394V41H23.9291V35.2983H24.0016L26.2601 40.9574H27.4789L29.7374 35.3196H29.8098V41H31.5996V32.2727H29.324L26.9207 38.1364H26.8184L24.415 32.2727ZM40.5986 39.0653C40.9594 38.3977 41.1397 37.5881 41.1397 36.6364C41.1397 35.6847 40.9594 34.875 40.5986 34.2074C40.2406 33.5398 39.752 33.0312 39.1326 32.6818C38.5162 32.3295 37.823 32.1534 37.0531 32.1534C36.2775 32.1534 35.5815 32.3295 34.965 32.6818C34.3486 33.0312 33.8613 33.5398 33.5034 34.2074C33.1454 34.875 32.9664 35.6847 32.9664 36.6364C32.9664 37.5852 33.1454 38.3935 33.5034 39.0611C33.8613 39.7287 34.3486 40.2386 34.965 40.5909C35.5815 40.9432 36.2775 41.1193 37.0531 41.1193C37.823 41.1193 38.5162 40.9446 39.1326 40.5952C39.752 40.2429 40.2406 39.733 40.5986 39.0653ZM38.992 35.0767C39.1767 35.5 39.269 36.0199 39.269 36.6364C39.269 37.2528 39.1767 37.7727 38.992 38.196C38.8102 38.6193 38.5531 38.9403 38.2207 39.1591C37.8883 39.3778 37.4991 39.4872 37.0531 39.4872C36.6071 39.4872 36.2178 39.3778 35.8855 39.1591C35.5531 38.9403 35.2946 38.6193 35.1099 38.196C34.9281 37.7727 34.8372 37.2528 34.8372 36.6364C34.8372 36.0199 34.9281 35.5 35.1099 35.0767C35.2946 34.6534 35.5531 34.3324 35.8855 34.1136C36.2178 33.8949 36.6071 33.7855 37.0531 33.7855C37.4991 33.7855 37.8883 33.8949 38.2207 34.1136C38.5531 34.3324 38.8102 34.6534 38.992 35.0767Z" fill="#936DDC"/>
</svg>
