<svg width="54" height="54" viewBox="0 0 54 54" fill="none" xmlns="http://www.w3.org/2000/svg">
<path d="M15.6507 13.2727V22H13.8056V15.0241H13.7544L11.7559 16.277V14.6406L13.9164 13.2727H15.6507Z" fill="#936DDC"/>
<path d="M21.1468 22.1918C20.4139 22.1889 19.7832 22.0085 19.2548 21.6506C18.7292 21.2926 18.3244 20.7741 18.0403 20.0952C17.7591 19.4162 17.6199 18.5994 17.6227 17.6449C17.6227 16.6932 17.7633 15.8821 18.0446 15.2116C18.3287 14.5412 18.7335 14.0312 19.2591 13.6818C19.7875 13.3295 20.4167 13.1534 21.1468 13.1534C21.877 13.1534 22.5048 13.3295 23.0304 13.6818C23.5588 14.0341 23.965 14.5455 24.2491 15.2159C24.5332 15.8835 24.6738 16.6932 24.671 17.6449C24.671 18.6023 24.5289 19.4205 24.2449 20.0994C23.9636 20.7784 23.5602 21.2969 23.0346 21.6548C22.5091 22.0128 21.8798 22.1918 21.1468 22.1918ZM21.1468 20.6619C21.6468 20.6619 22.046 20.4105 22.3443 19.9077C22.6426 19.4048 22.7903 18.6506 22.7875 17.6449C22.7875 16.983 22.7193 16.4318 22.5829 15.9915C22.4494 15.5511 22.2591 15.2202 22.0119 14.9986C21.7676 14.777 21.4792 14.6662 21.1468 14.6662C20.6497 14.6662 20.252 14.9148 19.9537 15.4119C19.6554 15.9091 19.5048 16.6534 19.502 17.6449C19.502 18.3153 19.5687 18.875 19.7022 19.3239C19.8386 19.7699 20.0304 20.1051 20.2775 20.3295C20.5247 20.5511 20.8145 20.6619 21.1468 20.6619Z" fill="#936DDC"/>
<path d="M29.4086 22.1918C28.6756 22.1889 28.0449 22.0085 27.5165 21.6506C26.9909 21.2926 26.5861 20.7741 26.302 20.0952C26.0208 19.4162 25.8816 18.5994 25.8844 17.6449C25.8844 16.6932 26.025 15.8821 26.3063 15.2116C26.5904 14.5412 26.9952 14.0312 27.5208 13.6818C28.0492 13.3295 28.6784 13.1534 29.4086 13.1534C30.1387 13.1534 30.7665 13.3295 31.2921 13.6818C31.8205 14.0341 32.2267 14.5455 32.5108 15.2159C32.7949 15.8835 32.9355 16.6932 32.9327 17.6449C32.9327 18.6023 32.7907 19.4205 32.5066 20.0994C32.2253 20.7784 31.8219 21.2969 31.2963 21.6548C30.7708 22.0128 30.1415 22.1918 29.4086 22.1918ZM29.4086 20.6619C29.9086 20.6619 30.3077 20.4105 30.606 19.9077C30.9043 19.4048 31.052 18.6506 31.0492 17.6449C31.0492 16.983 30.981 16.4318 30.8446 15.9915C30.7111 15.5511 30.5208 15.2202 30.2736 14.9986C30.0293 14.777 29.7409 14.6662 29.4086 14.6662C28.9114 14.6662 28.5137 14.9148 28.2154 15.4119C27.9171 15.9091 27.7665 16.6534 27.7637 17.6449C27.7637 18.3153 27.8304 18.875 27.964 19.3239C28.1003 19.7699 28.2921 20.1051 28.5392 20.3295C28.7864 20.5511 29.0762 20.6619 29.4086 20.6619Z" fill="#936DDC"/>
<path d="M39.0254 20.3636V19.9034C39.0254 19.554 39.0993 19.233 39.247 18.9403C39.3976 18.6449 39.6149 18.4091 39.899 18.233C40.1859 18.054 40.5353 17.9645 40.9473 17.9645C41.3649 17.9645 41.7157 18.0526 41.9998 18.2287C42.2868 18.4048 42.5027 18.6406 42.6476 18.9361C42.7953 19.2287 42.8691 19.5511 42.8691 19.9034V20.3636C42.8691 20.7131 42.7953 21.0355 42.6476 21.331C42.4998 21.6236 42.2825 21.858 41.9956 22.0341C41.7086 22.2131 41.3592 22.3026 40.9473 22.3026C40.5297 22.3026 40.1788 22.2131 39.8947 22.0341C39.6106 21.858 39.3947 21.6236 39.247 21.331C39.0993 21.0355 39.0254 20.7131 39.0254 20.3636ZM40.2654 19.9034V20.3636C40.2654 20.5653 40.3137 20.7557 40.4103 20.9347C40.5098 21.1136 40.6887 21.2031 40.9473 21.2031C41.2058 21.2031 41.3819 21.1151 41.4757 20.9389C41.5723 20.7628 41.6206 20.571 41.6206 20.3636V19.9034C41.6206 19.696 41.5751 19.5028 41.4842 19.3239C41.3933 19.1449 41.2143 19.0554 40.9473 19.0554C40.6916 19.0554 40.514 19.1449 40.4146 19.3239C40.3152 19.5028 40.2654 19.696 40.2654 19.9034ZM34.5467 15.3693V14.9091C34.5467 14.5568 34.622 14.2344 34.7726 13.9418C34.9231 13.6463 35.1404 13.4105 35.4245 13.2344C35.7115 13.0582 36.0581 12.9702 36.4643 12.9702C36.8848 12.9702 37.237 13.0582 37.5211 13.2344C37.8052 13.4105 38.0211 13.6463 38.1689 13.9418C38.3166 14.2344 38.3904 14.5568 38.3904 14.9091V15.3693C38.3904 15.7216 38.3152 16.044 38.1646 16.3366C38.0169 16.6293 37.7995 16.8636 37.5126 17.0398C37.2285 17.2131 36.8791 17.2997 36.4643 17.2997C36.0495 17.2997 35.6987 17.2116 35.4118 17.0355C35.1277 16.8565 34.9118 16.6222 34.764 16.3324C34.6191 16.0398 34.5467 15.7187 34.5467 15.3693ZM35.7953 14.9091V15.3693C35.7953 15.5767 35.8436 15.7685 35.9402 15.9446C36.0396 16.1207 36.2143 16.2088 36.4643 16.2088C36.7257 16.2088 36.9032 16.1207 36.997 15.9446C37.0936 15.7685 37.1419 15.5767 37.1419 15.3693V14.9091C37.1419 14.7017 37.0964 14.5085 37.0055 14.3295C36.9146 14.1506 36.7342 14.0611 36.4643 14.0611C36.2115 14.0611 36.0368 14.152 35.9402 14.3338C35.8436 14.5156 35.7953 14.7074 35.7953 14.9091ZM35.1092 22L41.1092 13.2727H42.2257L36.2257 22H35.1092Z" fill="#936DDC"/>
<path fill-rule="evenodd" clip-rule="evenodd" d="M27 54C41.9117 54 54 41.9117 54 27C54 12.0883 41.9117 0 27 0C12.0883 0 0 12.0883 0 27C0 41.9117 12.0883 54 27 54ZM27 52C40.8071 52 52 40.8071 52 27C52 13.1929 40.8071 2 27 2C13.1929 2 2 13.1929 2 27C2 40.8071 13.1929 52 27 52Z" fill="#936DDC"/>
<path fill-rule="evenodd" clip-rule="evenodd" d="M27 50C14.2974 50 4 39.7025 4 27H50C50 39.7025 39.7026 50 27 50ZM12.7937 37.2528L11.0359 31.7273H9.32776L11.8384 39H13.8199L16.3271 31.7273H14.6225L12.8611 37.2528H12.7937ZM17.2024 31.7273V39H22.1172V37.7322H18.7401V35.9957H21.8508V34.728H18.7401V32.995H22.103V31.7273H17.2024ZM27.9384 33.62C28.0283 33.7526 28.0982 33.9053 28.1479 34.0781H29.7104C29.6607 33.7183 29.5482 33.3892 29.373 33.0909C29.1979 32.7902 28.9717 32.531 28.6948 32.3132C28.4202 32.0954 28.1053 31.9273 27.7502 31.809C27.3951 31.6882 27.0115 31.6278 26.5996 31.6278C26.119 31.6278 25.6728 31.7119 25.2608 31.88C24.8489 32.0481 24.4879 32.2931 24.1777 32.6151C23.8676 32.937 23.6261 33.33 23.4533 33.794C23.2828 34.2557 23.1976 34.7812 23.1976 35.3707C23.1976 36.1378 23.3408 36.8007 23.6273 37.3594C23.9161 37.9157 24.3186 38.3454 24.8347 38.6484C25.3508 38.9491 25.9498 39.0994 26.6316 39.0994C27.2424 39.0994 27.7845 38.9763 28.258 38.7301C28.7314 38.4815 29.1031 38.1288 29.373 37.6719C29.6429 37.2126 29.7779 36.6634 29.7779 36.0241V35.108H26.7346V36.2656H28.2966C28.2903 36.5563 28.2242 36.8096 28.0982 37.0256C27.968 37.2528 27.7786 37.4292 27.53 37.5547C27.2838 37.6778 26.9867 37.7393 26.6387 37.7393C26.2551 37.7393 25.9225 37.647 25.6408 37.4624C25.3591 37.2753 25.1413 37.0043 24.9874 36.6491C24.8335 36.294 24.7566 35.8632 24.7566 35.3565C24.7566 34.8499 24.8347 34.4214 24.991 34.071C25.1472 33.7183 25.365 33.4496 25.6443 33.2649C25.9261 33.0803 26.2528 32.9879 26.6245 32.9879C26.8233 32.9879 27.0045 33.0128 27.1678 33.0625C27.3335 33.1122 27.4803 33.1844 27.6082 33.2791C27.7383 33.3715 27.8484 33.4851 27.9384 33.62ZM30.3141 39H31.9619L32.5013 37.3416H35.1272L35.6656 39H37.3134L34.8063 31.7273H32.8248L30.3141 39ZM34.7375 36.1413L33.8439 33.3892H33.7871L32.8918 36.1413H34.7375ZM44.2719 39V31.7273H42.7413V36.3011H42.6774L39.5381 31.7273H38.1887V39H39.7264V34.4226H39.7797L42.9437 39H44.2719Z" fill="#936DDC"/>
</svg>
