<svg width="54" height="54" viewBox="0 0 54 54" fill="none" xmlns="http://www.w3.org/2000/svg">
<path d="M53.8195 26.085V27.7451C53.7983 28.0315 53.7771 28.3127 53.7612 28.5991C53.6869 29.8773 53.5172 31.1397 53.2573 32.3914C52.7375 34.9108 51.8729 37.3082 50.6583 39.5783C49.2952 42.1295 47.5661 44.3996 45.4763 46.3939C43.5669 48.2132 41.4347 49.7248 39.085 50.9182C36.8415 52.0586 34.4812 52.8648 32.0095 53.3422C30.8798 53.5596 29.7394 53.7081 28.5938 53.7665C28.3074 53.7824 28.0262 53.8036 27.7398 53.8248H26.0797C26.0372 53.8195 25.9948 53.8089 25.9524 53.8036C25.056 53.7293 24.1596 53.6869 23.2686 53.5755C21.6509 53.374 20.0703 53.0027 18.5215 52.4935C14.2571 51.0827 10.5708 48.7542 7.4627 45.5135C5.44189 43.4078 3.80296 41.0316 2.56182 38.3902C1.09792 35.2821 0.259895 32.0201 0.0583438 28.5938C0.0371279 28.3127 0.0212159 28.0262 0 27.7451C0 27.1935 0 26.6366 0 26.085C0.00530398 26.0373 0.0159119 25.9895 0.0212159 25.9418C0.0689518 24.637 0.206855 23.3481 0.440231 22.0646C0.885765 19.5982 1.66545 17.2379 2.77929 14.9944C4.43413 11.6582 6.68832 8.7834 9.53126 6.37008C11.8279 4.42352 14.3791 2.90658 17.1849 1.81396C18.792 1.18809 20.4469 0.726646 22.1388 0.424319C23.1572 0.243983 24.1862 0.116688 25.2204 0.0583438C25.5069 0.0424319 25.788 0.0212159 26.0744 0C26.626 0 27.1829 0 27.7345 0C27.761 0.00530398 27.7929 0.0159119 27.8194 0.0212159C28.3392 0.0530398 28.8643 0.0795597 29.3841 0.121992C30.4236 0.206855 31.4473 0.365975 32.4657 0.578134C34.8525 1.08201 37.1279 1.89352 39.2866 3.01797C42.3152 4.59325 44.9513 6.67241 47.1948 9.24484C49.0884 11.4195 50.6 13.8328 51.7138 16.4954C52.886 19.2853 53.5649 22.1972 53.7506 25.2204C53.7665 25.5122 53.7877 25.7986 53.8089 26.0903L53.8195 26.085ZM26.8965 51.6661C40.4906 51.6926 51.4858 40.7134 51.6661 27.2731C51.8517 13.4138 40.724 2.32845 27.2572 2.15872C13.4138 1.97839 2.32314 13.1008 2.15342 26.5783C1.97839 40.48 13.2334 51.6926 26.8965 51.6661Z" fill="#351D63"/>
<path d="M8.14697 23.1734V15.5356H10.067C11.2286 19.137 11.4991 20.0016 11.5786 20.3517H11.6105C11.5362 19.3916 11.5097 18.1346 11.5097 16.9412V15.5409H13.0585V23.1787H11.1649C9.96093 19.2113 9.73286 18.4369 9.64799 18.1081H9.61087C9.66921 19.0257 9.70103 20.4418 9.70103 21.6936V23.1787H8.14166L8.14697 23.1734Z" fill="#351D63"/>
<path d="M15.6998 21.5344L15.4399 23.168H13.6843L15.1906 15.5303H17.6569L19.1845 23.168H17.3599L17.0947 21.5344H15.6998V21.5344ZM16.8614 20.0599C16.6863 18.946 16.5219 17.7049 16.4264 16.9995H16.3681C16.2938 17.7314 16.1082 18.946 15.9279 20.0599H16.8667H16.8614Z" fill="#351D63"/>
<path d="M20.2771 16.9677H18.7708V15.5303H23.5284V16.9677H22.0327V23.168H20.2824V16.9677H20.2771Z" fill="#351D63"/>
<path d="M25.8833 15.5356V20.8821C25.8833 21.3806 25.9894 21.9429 26.61 21.9429C27.2305 21.9429 27.3207 21.4602 27.3207 20.8927V15.5356H29.0816V20.8343C29.0816 22.3884 28.3178 23.3166 26.5728 23.3166C24.8278 23.3166 24.133 22.399 24.133 20.8184V15.5356H25.8886H25.8833Z" fill="#351D63"/>
<path d="M31.8504 20.044V23.168H30.116V15.5303H32.6937C34.1682 15.5303 34.9161 16.2622 34.9161 17.6466C34.9161 18.7021 34.3963 19.2006 33.9348 19.381C34.5342 19.6462 34.8153 20.1394 34.8153 21.2374V21.5026C34.8153 22.3512 34.8471 22.8339 34.8949 23.168H33.1923C33.1021 22.871 33.0703 22.1921 33.0703 21.4442V21.179C33.0703 20.2773 32.89 20.0387 32.2163 20.0387H31.8398L31.8504 20.044ZM31.8504 18.7286H32.2588C32.9165 18.7286 33.1658 18.4899 33.1658 17.7473C33.1658 17.1162 32.943 16.8404 32.3702 16.8404H31.8504V18.7286V18.7286Z" fill="#351D63"/>
<path d="M37.4355 21.5344L37.1756 23.168H35.42L36.9263 15.5303H39.3927L40.9202 23.168H39.0956L38.8304 21.5344H37.4355V21.5344ZM38.5971 20.0599C38.422 18.946 38.2576 17.7049 38.1621 16.9995H38.1038C38.0295 17.7314 37.8439 18.946 37.6636 20.0599H38.6024H38.5971Z" fill="#351D63"/>
<path d="M41.4983 15.5356H43.2539V21.7466H45.6778L45.5134 23.1734H41.4983V15.5356V15.5356Z" fill="#351D63"/>
<path d="M21.3379 33.5103C20.781 33.5103 20.6696 34.1043 20.6696 36.1463C20.6696 38.1884 20.7227 39.037 21.3379 39.037C21.9532 39.037 21.9956 38.2944 21.9956 36.1676C21.9956 34.0407 21.9479 33.5156 21.3379 33.5156V33.5103Z" fill="#351D63"/>
<path d="M27.2677 33.5103C26.7108 33.5103 26.5994 34.1043 26.5994 36.1463C26.5994 38.1884 26.6525 39.037 27.2677 39.037C27.883 39.037 27.9254 38.2944 27.9254 36.1676C27.9254 34.0407 27.8777 33.5156 27.2677 33.5156V33.5103Z" fill="#351D63"/>
<path d="M32.8423 34.3855C32.8423 33.4255 32.7256 33.1338 32.3808 33.1338C32.0626 33.1338 31.9141 33.4255 31.9141 34.3961C31.9141 35.3668 32.0414 35.6585 32.3808 35.6585C32.7203 35.6585 32.8423 35.319 32.8423 34.3908V34.3855Z" fill="#351D63"/>
<path d="M3.68092 26.9282C3.59075 34.0409 7.18154 42.2302 15.0845 46.9242C22.754 51.4804 32.4975 51.2205 39.9336 46.1658C43.6252 43.657 46.3833 40.3526 48.1919 36.2738C49.5073 33.3036 50.1491 30.1902 50.1491 26.9335H3.68092V26.9282ZM17.6993 40.3473H15.7952V34.1363C15.5777 34.1257 15.2277 34.0833 15.0367 34.0568V32.7308C15.6361 32.6777 16.1559 32.4178 16.3999 32.142H17.7046V40.3473H17.6993ZM21.3273 40.4746C19.8581 40.4746 18.7867 39.6896 18.7867 36.1678C18.7867 32.6459 20.0649 32.0572 21.3591 32.0572C22.6533 32.0572 23.8997 32.683 23.8997 36.1943C23.8997 39.7055 22.8283 40.4746 21.3273 40.4746ZM27.2571 40.4746C25.7879 40.4746 24.7165 39.6896 24.7165 36.1678C24.7165 32.6459 25.9948 32.0572 27.2889 32.0572C28.5831 32.0572 29.8296 32.683 29.8296 36.1943C29.8296 39.7055 28.7581 40.4746 27.2571 40.4746ZM30.5933 34.4068C30.5933 32.9695 31.1555 32.0572 32.3808 32.0572C33.606 32.0572 34.1523 32.8475 34.1523 34.3856C34.1523 35.9238 33.5476 36.73 32.3808 36.7353C31.1821 36.7353 30.5986 35.9768 30.5986 34.4068H30.5933ZM31.9671 40.3526L36.3694 32.1845H37.3771L32.9695 40.3526H31.9617H31.9671ZM37.0218 40.4693C35.8708 40.4693 35.2396 39.7161 35.2396 38.1408C35.2396 36.7035 35.8124 35.7912 37.0271 35.7912C38.2417 35.7912 38.7986 36.6239 38.7986 38.109C38.7986 39.5941 38.1939 40.4587 37.0271 40.4693H37.0218Z" fill="#351D63"/>
<path d="M37.0271 36.8628C36.7088 36.8628 36.5603 37.1545 36.5603 38.1251C36.5603 39.0958 36.6876 39.3875 37.0271 39.3875C37.3665 39.3875 37.4885 39.048 37.4885 38.1198C37.4885 37.1916 37.3718 36.8681 37.0271 36.8681V36.8628Z" fill="#351D63"/>
</svg>
