<svg width="54" height="54" viewBox="0 0 54 54" fill="none" xmlns="http://www.w3.org/2000/svg">
<path d="M16.2332 13.2727H18.0783V18.9403C18.0783 19.5767 17.9263 20.1335 17.6224 20.6108C17.3212 21.0881 16.8993 21.4602 16.3567 21.7273C15.8141 21.9915 15.182 22.1236 14.4604 22.1236C13.736 22.1236 13.1025 21.9915 12.5599 21.7273C12.0172 21.4602 11.5954 21.0881 11.2942 20.6108C10.9931 20.1335 10.8425 19.5767 10.8425 18.9403V13.2727H12.6877V18.7827C12.6877 19.1151 12.7601 19.4105 12.905 19.669C13.0528 19.9276 13.2601 20.1307 13.5272 20.2784C13.7942 20.4261 14.1053 20.5 14.4604 20.5C14.8184 20.5 15.1295 20.4261 15.3937 20.2784C15.6607 20.1307 15.8667 19.9276 16.0116 19.669C16.1593 19.4105 16.2332 19.1151 16.2332 18.7827V13.2727Z" fill="#936DDC"/>
<path d="M24.3308 15.7827C24.2967 15.4389 24.1504 15.1719 23.8919 14.9815C23.6334 14.7912 23.2825 14.696 22.8393 14.696C22.5382 14.696 22.2839 14.7386 22.0765 14.8239C21.8692 14.9063 21.7101 15.0213 21.5993 15.169C21.4913 15.3168 21.4373 15.4844 21.4373 15.6719C21.4317 15.8281 21.4643 15.9645 21.5354 16.081C21.6092 16.1974 21.7101 16.2983 21.8379 16.3835C21.9658 16.4659 22.1135 16.5384 22.2811 16.6009C22.4487 16.6605 22.6277 16.7117 22.818 16.7543L23.6021 16.9418C23.9828 17.027 24.3322 17.1406 24.6504 17.2827C24.9686 17.4247 25.2442 17.5994 25.4771 17.8068C25.7101 18.0142 25.8905 18.2585 26.0183 18.5398C26.149 18.821 26.2158 19.1435 26.2186 19.5071C26.2158 20.0412 26.0794 20.5043 25.8095 20.8963C25.5425 21.2855 25.1561 21.5881 24.6504 21.804C24.1476 22.017 23.541 22.1236 22.8308 22.1236C22.1263 22.1236 21.5126 22.0156 20.9899 21.7997C20.47 21.5838 20.0638 21.2642 19.7712 20.8409C19.4814 20.4148 19.3294 19.8878 19.3152 19.2599H21.1007C21.1206 19.5526 21.2044 19.7969 21.3521 19.9929C21.5027 20.1861 21.703 20.3324 21.953 20.4318C22.2058 20.5284 22.4913 20.5767 22.8095 20.5767C23.122 20.5767 23.3933 20.5313 23.6234 20.4403C23.8564 20.3494 24.0368 20.223 24.1646 20.0611C24.2925 19.8992 24.3564 19.7131 24.3564 19.5028C24.3564 19.3068 24.2981 19.142 24.1817 19.0085C24.068 18.875 23.9004 18.7614 23.6788 18.6676C23.4601 18.5739 23.1916 18.4886 22.8734 18.4119L21.9231 18.1733C21.1873 17.9943 20.6064 17.7145 20.1802 17.3338C19.7541 16.9531 19.5425 16.4403 19.5453 15.7955C19.5425 15.267 19.6831 14.8054 19.9672 14.4105C20.2541 14.0156 20.6476 13.7074 21.1476 13.4858C21.6476 13.2642 22.2158 13.1534 22.8521 13.1534C23.4998 13.1534 24.0652 13.2642 24.5481 13.4858C25.0339 13.7074 25.4118 14.0156 25.6817 14.4105C25.9515 14.8054 26.0908 15.2628 26.0993 15.7827H24.3308Z" fill="#936DDC"/>
<path d="M30.5535 22H27.4597V13.2727H30.579C31.4569 13.2727 32.2126 13.4474 32.8461 13.7969C33.4796 14.1435 33.9668 14.642 34.3077 15.2926C34.6515 15.9432 34.8234 16.7216 34.8234 17.6278C34.8234 18.5369 34.6515 19.3182 34.3077 19.9716C33.9668 20.625 33.4768 21.1264 32.8376 21.4759C32.2012 21.8253 31.4398 22 30.5535 22ZM29.3049 20.419H30.4768C31.0222 20.419 31.481 20.3224 31.8532 20.1293C32.2282 19.9332 32.5094 19.6307 32.6969 19.2216C32.8873 18.8097 32.9824 18.2784 32.9824 17.6278C32.9824 16.983 32.8873 16.456 32.6969 16.0469C32.5094 15.6378 32.2296 15.3367 31.8574 15.1435C31.4853 14.9503 31.0265 14.8537 30.481 14.8537H29.3049V20.419Z" fill="#936DDC"/>
<path d="M37.2023 22H35.225L38.2378 13.2727H40.6156L43.6241 22H41.6469L39.4608 15.267H39.3926L37.2023 22ZM37.0787 18.5696H41.7491V20.0099H37.0787V18.5696Z" fill="#936DDC"/>
<path fill-rule="evenodd" clip-rule="evenodd" d="M27 54C41.9117 54 54 41.9117 54 27C54 12.0883 41.9117 0 27 0C12.0883 0 0 12.0883 0 27C0 41.9117 12.0883 54 27 54ZM27 52C40.8071 52 52 40.8071 52 27C52 13.1929 40.8071 2 27 2C13.1929 2 2 13.1929 2 27C2 40.8071 13.1929 52 27 52Z" fill="#936DDC"/>
<path fill-rule="evenodd" clip-rule="evenodd" d="M27 50C14.2974 50 4 39.7025 4 27H50C50 39.7025 39.7026 50 27 50ZM8.31744 37H9.47083L9.84851 35.8391H11.6866L12.0635 37H13.2169L11.462 31.9091H10.0749L8.31744 37ZM11.4138 34.9989L10.7883 33.0724H10.7485L10.1218 34.9989H11.4138ZM13.8297 31.9091V37H14.906V35.3494H15.8109C16.202 35.3494 16.535 35.2773 16.8101 35.1332C17.0869 34.989 17.2982 34.7876 17.444 34.5291C17.5898 34.2706 17.6628 33.9723 17.6628 33.6342C17.6628 33.2962 17.5907 32.9979 17.4465 32.7393C17.304 32.4792 17.0969 32.2762 16.8251 32.1303C16.5533 31.9828 16.2243 31.9091 15.8382 31.9091H13.8297ZM14.906 34.4869H15.6368C15.844 34.4869 16.0147 34.4512 16.1489 34.38C16.2848 34.3071 16.3859 34.2068 16.4522 34.0792C16.5201 33.9499 16.5541 33.8016 16.5541 33.6342C16.5541 33.4652 16.5201 33.3177 16.4522 33.1918C16.3859 33.0642 16.2848 32.9656 16.1489 32.896C16.0131 32.8247 15.8407 32.7891 15.6319 32.7891H14.906V34.4869ZM18.3619 31.9091V37H19.4382V35.3494H20.3431C20.7342 35.3494 21.0673 35.2773 21.3423 35.1332C21.6191 34.989 21.8304 34.7876 21.9763 34.5291C22.1221 34.2706 22.195 33.9723 22.195 33.6342C22.195 33.2962 22.1229 32.9979 21.9788 32.7393C21.8362 32.4792 21.6291 32.2762 21.3573 32.1303C21.0855 31.9828 20.7565 31.9091 20.3704 31.9091H18.3619ZM19.4382 34.4869H20.1691C20.3762 34.4869 20.5469 34.4512 20.6812 34.38C20.817 34.3071 20.9182 34.2068 20.9844 34.0792C21.0524 33.9499 21.0864 33.8016 21.0864 33.6342C21.0864 33.4652 21.0524 33.3177 20.9844 33.1918C20.9182 33.0642 20.817 32.9656 20.6812 32.896C20.5453 32.8247 20.3729 32.7891 20.1641 32.7891H19.4382V34.4869ZM22.8941 31.9091V37H23.9705V35.1953H24.7562L25.7205 37H26.9087L25.8286 35.0222C25.8441 35.0155 25.8594 35.0085 25.8746 35.0014C26.1514 34.8722 26.3627 34.6866 26.5085 34.4446C26.6543 34.201 26.7272 33.9102 26.7272 33.5721C26.7272 33.2357 26.6552 32.9432 26.511 32.6946C26.3685 32.4444 26.1605 32.2513 25.887 32.1154C25.6152 31.9779 25.2871 31.9091 24.9026 31.9091H22.8941ZM23.9705 34.3303H24.7013C24.9068 34.3303 25.0775 34.3021 25.2134 34.2457C25.3492 34.1894 25.4504 34.1049 25.5167 33.9922C25.5846 33.8795 25.6186 33.7395 25.6186 33.5721C25.6186 33.4031 25.5846 33.2605 25.5167 33.1445C25.4504 33.0285 25.3484 32.9407 25.2109 32.881C25.075 32.8197 24.9035 32.7891 24.6964 32.7891H23.9705V34.3303ZM31.8505 35.8714C32.0609 35.482 32.1661 35.0097 32.1661 34.4545C32.1661 33.8994 32.0609 33.4271 31.8505 33.0376C31.6417 32.6482 31.3566 32.3516 30.9954 32.1477C30.6357 31.9422 30.2314 31.8395 29.7823 31.8395C29.3298 31.8395 28.9238 31.9422 28.5642 32.1477C28.2046 32.3516 27.9204 32.6482 27.7116 33.0376C27.5028 33.4271 27.3984 33.8994 27.3984 34.4545C27.3984 35.0081 27.5028 35.4795 27.7116 35.869C27.9204 36.2584 28.2046 36.5559 28.5642 36.7614C28.9238 36.9669 29.3298 37.0696 29.7823 37.0696C30.2314 37.0696 30.6357 36.9677 30.9954 36.7639C31.3566 36.5583 31.6417 36.2609 31.8505 35.8714ZM30.9133 33.5447C31.021 33.7917 31.0749 34.0949 31.0749 34.4545C31.0749 34.8142 31.021 35.1174 30.9133 35.3643C30.8073 35.6113 30.6573 35.7985 30.4634 35.9261C30.2695 36.0537 30.0425 36.1175 29.7823 36.1175C29.5221 36.1175 29.295 36.0537 29.1011 35.9261C28.9073 35.7985 28.7565 35.6113 28.6487 35.3643C28.5427 35.1174 28.4897 34.8142 28.4897 34.4545C28.4897 34.0949 28.5427 33.7917 28.6487 33.5447C28.7565 33.2978 28.9073 33.1106 29.1011 32.983C29.295 32.8553 29.5221 32.7915 29.7823 32.7915C30.0425 32.7915 30.2695 32.8553 30.4634 32.983C30.6573 33.1106 30.8073 33.2978 30.9133 33.5447ZM34.8266 35.777L33.5961 31.9091H32.4005L34.1579 37H35.545L37.2999 31.9091H36.1068L34.8738 35.777H34.8266ZM41.3431 31.9091H37.9127V37H41.353V36.1126H38.989V34.897H41.1666V34.0096H38.989V32.7965H41.3431V31.9091ZM42.1988 37H44.0035C44.5206 37 44.9647 36.8981 45.3359 36.6942C45.7087 36.4904 45.9946 36.1979 46.1935 35.8168C46.394 35.4356 46.4943 34.9799 46.4943 34.4496C46.4943 33.9209 46.394 33.4669 46.1935 33.0874C45.9946 32.7079 45.7104 32.417 45.3409 32.2148C44.9713 32.011 44.5305 31.9091 44.0184 31.9091H42.1988V37ZM43.9587 36.0778H43.2751V32.8313H43.9612C44.2794 32.8313 44.5471 32.8877 44.7642 33.0004C44.9813 33.113 45.1445 33.2887 45.2538 33.5273C45.3649 33.766 45.4204 34.0734 45.4204 34.4496C45.4204 34.8291 45.3649 35.139 45.2538 35.3793C45.1445 35.6179 44.9804 35.7944 44.7617 35.9087C44.5446 36.0214 44.2769 36.0778 43.9587 36.0778Z" fill="#936DDC"/>
</svg>
