<svg width="54" height="54" viewBox="0 0 54 54" fill="none" xmlns="http://www.w3.org/2000/svg">
<path d="M54 25.9985V27.6508C53.975 27.9387 53.9625 28.2141 53.9374 28.502C53.8623 29.7788 53.6871 31.0305 53.4368 32.2823C52.9235 34.7982 52.0598 37.1891 50.8457 39.4422C49.4813 41.9832 47.7664 44.2488 45.676 46.2391C43.7734 48.0541 41.6454 49.5562 39.3047 50.7579C37.0641 51.897 34.7108 52.6981 32.2449 53.1737C31.1183 53.3865 29.9792 53.5367 28.8402 53.5993C28.5523 53.6118 28.2769 53.6369 27.989 53.6619H26.3367C26.3367 53.6619 26.2491 53.6494 26.2115 53.6369C25.3228 53.5618 24.4215 53.5242 23.5328 53.4115C21.9181 53.2113 20.3409 52.8358 18.8012 52.3351C14.5453 50.9331 10.8777 48.6049 7.77344 45.3754C5.75815 43.2725 4.13089 40.9067 2.89168 38.2781C1.43966 35.1738 0.600999 31.9193 0.400722 28.502C0.375687 28.2266 0.363169 27.9387 0.338135 27.6508C0.338135 27.1001 0.338135 26.5493 0.338135 25.9985C0.338135 25.9485 0.350652 25.8984 0.363169 25.8609C0.413239 24.559 0.55093 23.2698 0.776242 21.993C1.22687 19.5271 2.00294 17.1863 3.10447 14.9457C4.75676 11.6161 6.99737 8.74963 9.83881 6.3463C12.1295 4.40611 14.6705 2.89151 17.4744 1.8025C19.0766 1.17663 20.7289 0.713489 22.4187 0.413073C23.4327 0.225312 24.4591 0.100139 25.498 0.0500694C25.7734 0.0375521 26.0613 0.0250347 26.3367 0C26.8874 0 27.4382 0 27.989 0C28.014 0 28.0516 0.0125174 28.0766 0.0250347C28.6023 0.0625868 29.1155 0.0876215 29.6413 0.125174C30.6802 0.212795 31.7066 0.363003 32.7205 0.575798C35.0988 1.07649 37.3645 1.89012 39.5175 3.00417C42.5341 4.58135 45.1628 6.64672 47.4034 9.21277C49.2935 11.3783 50.7956 13.7941 51.9096 16.4353C53.0738 19.2141 53.7622 22.1182 53.9374 25.1348C53.95 25.4227 53.975 25.7106 54 25.9985ZM27.1628 51.5089C40.7191 51.534 51.6718 40.5938 51.8596 27.1877C52.0473 13.3685 40.9569 2.31571 27.5258 2.15299C13.7067 1.96522 2.65385 13.0556 2.4786 26.4992C2.30336 40.356 13.5189 51.534 27.1503 51.5089H27.1628Z" fill="#351D63"/>
<path d="M12.868 18.6887H15.8722C15.8722 18.6887 15.8722 18.7888 15.8722 18.8764C15.8722 18.9641 15.8722 19.0266 15.8722 19.0642C15.8722 20.4161 15.6218 21.4675 15.1336 22.2186C14.6455 22.9696 13.957 23.3451 13.0808 23.3451C12.2046 23.3451 11.5537 22.9821 11.0655 22.2436C10.5773 21.5051 10.3145 20.5037 10.3145 19.2269C10.3145 17.9501 10.5773 16.9362 11.0905 16.1977C11.6037 15.4592 12.3047 15.0962 13.206 15.0962C13.8068 15.0962 14.32 15.2714 14.7456 15.6219C15.1712 15.9724 15.4716 16.4856 15.6719 17.1616L14.2199 17.825C14.1573 17.4244 14.0446 17.124 13.8694 16.9237C13.6941 16.7234 13.4688 16.6233 13.1809 16.6233C12.7553 16.6233 12.4299 16.8361 12.2296 17.2492C12.0293 17.6622 11.9292 18.3257 11.9292 19.2269C11.9292 20.1282 12.0293 20.729 12.2421 21.1796C12.4549 21.6303 12.7679 21.843 13.1684 21.843C13.5314 21.843 13.8068 21.6928 14.0071 21.3924C14.2074 21.092 14.3075 20.6664 14.3075 20.1282H12.868V18.7012V18.6887Z" fill="#351D63"/>
<path d="M16.8736 23.2448V15.1836H18.4633V21.6676H20.2908V23.2448H16.8611H16.8736Z" fill="#351D63"/>
<path d="M25.9236 15.1712V20.2407C25.9236 20.8541 25.9111 21.2922 25.8735 21.5551C25.836 21.8179 25.7734 22.0307 25.6858 22.1934C25.4855 22.5815 25.2101 22.8694 24.8346 23.0571C24.4591 23.2449 23.9834 23.3325 23.4076 23.3325C22.8318 23.3325 22.3437 23.2449 21.9681 23.0571C21.5926 22.8694 21.3172 22.5815 21.117 22.1934C21.0293 22.0182 20.9667 21.8054 20.9292 21.5425C20.8916 21.2797 20.8791 20.8416 20.8791 20.2282V15.1587H22.4813V20.3534C22.4813 21.0168 22.5439 21.4424 22.6816 21.6302C22.8193 21.8179 23.0571 21.9181 23.3951 21.9181C23.7331 21.9181 23.9834 21.8179 24.1211 21.6302C24.2588 21.4424 24.3214 21.0168 24.3214 20.3659V15.1712H25.9236V15.1712Z" fill="#351D63"/>
<path d="M27.9014 23.2448V16.6732H26.6747V15.1836H30.7553V16.6732H29.5286V23.2448H27.9139H27.9014Z" fill="#351D63"/>
<path d="M31.5439 23.2448V15.1836H34.9361V16.6732H33.1086V18.3004H34.7734V19.7775H33.1086V21.6676H34.9361V23.2448H31.5439Z" fill="#351D63"/>
<path d="M36.0251 23.2449V15.1837H37.6524L39.2796 19.5272C39.3297 19.6649 39.3923 19.8777 39.4799 20.1656C39.5675 20.4535 39.6677 20.7915 39.7803 21.1795C39.6927 20.6037 39.6301 20.0905 39.5926 19.6024C39.555 19.1142 39.53 18.6761 39.53 18.263V15.1587H41.0195V23.2199H39.53L37.765 18.7136C37.74 18.651 37.6524 18.3757 37.5272 17.8875C37.4646 17.6622 37.4271 17.4994 37.3895 17.3743C37.4271 17.6872 37.4521 18.0377 37.4771 18.4257C37.5022 18.8138 37.5022 19.2894 37.5022 19.8277V23.2199H36.0251V23.2449Z" fill="#351D63"/>
<path d="M23.9709 33.296C23.9709 33.296 23.8707 33.296 23.8457 33.296C23.8207 33.296 23.7831 33.296 23.7581 33.296V35.5366C23.7581 35.5366 23.7956 35.5366 23.8457 35.5366C23.8958 35.5366 23.9208 35.5366 23.9333 35.5366C24.2838 35.5366 24.5467 35.4365 24.7219 35.2487C24.8972 35.061 24.9848 34.7606 24.9848 34.385C24.9848 34.0095 24.9097 33.7216 24.747 33.5339C24.5842 33.3461 24.3214 33.271 23.9709 33.271V33.296Z" fill="#351D63"/>
<path d="M4.00572 26.8496C3.9181 33.9344 7.49806 42.1083 15.3715 46.7898C23.0196 51.3336 32.733 51.0707 40.1433 46.0387C43.8234 43.5352 46.5647 40.2432 48.3797 36.175C49.6941 33.2209 50.3324 30.1166 50.3324 26.8621H4.00572V26.8496ZM21.2672 33.5589H19.3395V35.2362H21.0919V36.7258H19.3395V40.143H17.7873V32.0819H21.2672V33.5714V33.5589ZM25.0724 40.1305L23.7581 36.7884V40.1305H22.206V32.0693H23.8833C24.8096 32.0693 25.473 32.2446 25.8861 32.6076C26.2991 32.9706 26.5119 33.5464 26.5119 34.335C26.5119 34.9108 26.4118 35.3739 26.199 35.7244C25.9862 36.0749 25.6733 36.3127 25.2352 36.4504L26.7873 40.1305H25.0975H25.0724ZM30.7803 33.5589H28.9528V35.1862H30.6176V36.6632H28.9528V38.5533H30.7803V40.1305H27.3881V32.0693H30.7803V33.5589V33.5589ZM35.2616 33.5589H33.434V35.1862H35.0988V36.6632H33.434V38.5533H35.2616V40.1305H31.8694V32.0693H35.2616V33.5589Z" fill="#351D63"/>
</svg>
