<svg width="55" height="54" viewBox="0 0 55 54" fill="none" xmlns="http://www.w3.org/2000/svg">
<path d="M54.1541 26.085V27.7451C54.1329 28.0316 54.1117 28.3127 54.0958 28.5991C54.0215 29.8773 53.8518 31.1397 53.5919 32.3914C53.0721 34.9108 52.2075 37.3082 50.9929 39.5783C49.6298 42.1295 47.9007 44.3996 45.8109 46.3939C43.9015 48.2132 41.7693 49.7248 39.4196 50.9182C37.1761 52.0586 34.8158 52.8648 32.3441 53.3422C31.2144 53.5596 30.074 53.7081 28.9284 53.7665C28.6419 53.7824 28.3608 53.8036 28.0744 53.8248H26.4143C26.3718 53.8195 26.3294 53.8089 26.287 53.8036C25.3906 53.7294 24.4942 53.6869 23.6032 53.5755C21.9855 53.374 20.4049 53.0027 18.8561 52.4935C14.5917 51.0827 10.9054 48.7542 7.79729 45.5135C5.77648 43.4078 4.13755 41.0316 2.89642 38.3902C1.43252 35.2874 0.59449 32.0255 0.392939 28.5991C0.377027 28.3127 0.355811 28.0316 0.334595 27.7451C0.334595 27.1935 0.334595 26.6366 0.334595 26.085C0.339899 26.0373 0.350503 25.9895 0.355807 25.9418C0.403543 24.637 0.541451 23.3481 0.774826 22.0646C1.22036 19.5982 2.00005 17.2379 3.11388 14.9944C4.76873 11.6582 7.02292 8.7834 9.86585 6.37008C12.1625 4.42352 14.7137 2.90658 17.5195 1.81396C19.1266 1.18809 20.7815 0.726646 22.4734 0.424319C23.4918 0.243983 24.5208 0.116688 25.555 0.0583438C25.8415 0.0424319 26.1226 0.0212159 26.409 0C26.9606 0 27.5175 0 28.0691 0C28.0956 0.00530398 28.1275 0.015912 28.154 0.0212159C28.6738 0.0530398 29.1989 0.0795598 29.7187 0.121992C30.7582 0.206855 31.7819 0.365975 32.8003 0.578134C35.1871 1.08201 37.4625 1.89352 39.6212 3.01797C42.6498 4.59325 45.2858 6.67241 47.5294 9.24484C49.423 11.4195 50.9346 13.8328 52.0484 16.4954C53.2206 19.2853 53.8995 22.1972 54.0852 25.2204C54.1011 25.5122 54.1223 25.7986 54.1435 26.0903L54.1541 26.085ZM27.2311 51.6661C40.8252 51.6926 51.8204 40.7134 52.0007 27.2731C52.1863 13.4138 41.0586 2.32845 27.5918 2.15872C13.7484 1.98369 2.65774 13.1008 2.48801 26.5783C2.31298 40.48 13.568 51.6926 27.2311 51.6661Z" fill="#351D63"/>
<path d="M50.4838 26.9282C50.4838 30.1901 49.842 33.3035 48.5266 36.2685C46.7179 40.3525 43.9599 43.6516 40.2683 46.1604C32.8321 51.2151 23.0887 51.475 15.4191 46.9189C7.51619 42.2248 3.9254 34.0355 4.01557 26.9229H50.4785L50.4838 26.9282ZM33.4951 33.4149C33.4951 33.4149 33.511 33.4149 33.5216 33.4149C33.6701 33.8552 33.8239 34.3007 33.9672 34.7409C34.2483 35.6161 34.5294 36.4912 34.8105 37.3717C34.8423 37.4778 34.9007 37.5043 35.0014 37.5043C35.5212 37.4937 36.0357 37.4884 36.5555 37.4884C36.6669 37.4884 36.6987 37.446 36.6987 37.3399C36.6987 36.7936 36.6987 36.2473 36.6987 35.6956C36.6987 34.3909 36.6987 33.0914 36.6987 31.7866C36.6987 31.2297 36.6987 30.6728 36.6987 30.1105C36.6987 30.0522 36.6987 29.9939 36.6934 29.9302H34.9961C35.0492 31.3092 35.1022 32.6777 35.1553 34.0514C34.9961 33.6324 34.8582 33.2081 34.7203 32.7838C34.4286 31.8715 34.1316 30.9539 33.8452 30.0416C33.8187 29.9514 33.7762 29.9143 33.6808 29.9143C33.3466 29.9143 33.0071 29.9143 32.673 29.9143C32.4396 29.9143 32.2009 29.9143 31.9623 29.9143V37.4831C32.5033 37.4831 33.0337 37.4831 33.5588 37.4831C33.6542 37.4831 33.6542 37.4194 33.6489 37.3505C33.6383 37.0906 33.6277 36.8307 33.6171 36.5655C33.5747 35.5153 33.5375 34.4598 33.4951 33.4096V33.4149ZM15.1751 29.9249V30.1424C15.1751 31.6381 15.1751 33.1338 15.1751 34.6295C15.1751 35.5259 15.1751 36.417 15.1751 37.3134C15.1751 37.446 15.207 37.4937 15.3449 37.4937C15.8328 37.4831 16.3208 37.4937 16.8141 37.4937C16.8618 37.4937 16.9096 37.4884 16.9732 37.4831V34.5235C17.1907 34.5235 17.3922 34.5129 17.5938 34.5235C17.7953 34.5394 17.9438 34.6561 18.0181 34.847C18.0605 34.9478 18.1029 35.0539 18.1082 35.1599C18.1348 35.6585 18.1401 36.1571 18.1666 36.6504C18.1772 36.8943 18.2143 37.1383 18.2408 37.3823C18.2515 37.4619 18.2992 37.4937 18.3841 37.4937C18.9622 37.4937 19.5403 37.4937 20.1185 37.4937C20.1556 37.4937 20.2139 37.4778 20.2192 37.4566C20.2298 37.4194 20.2192 37.3611 20.1927 37.3346C20.0601 37.1967 20.0283 37.0216 20.0177 36.8413C19.9753 36.1571 19.9381 35.4729 19.901 34.7887C19.8745 34.2954 19.6252 33.9506 19.1637 33.7862C19.1319 33.7756 19.0948 33.7597 19.0418 33.7385C19.1001 33.7066 19.1425 33.6801 19.185 33.6589C19.6093 33.4202 19.8426 33.0383 19.9275 32.5716C20.0071 32.1155 19.97 31.654 19.8586 31.2085C19.7101 30.6091 19.3388 30.206 18.7341 30.0522C18.4636 29.9833 18.1825 29.9408 17.9014 29.9355C17.0475 29.9196 16.1935 29.9302 15.3396 29.9302C15.2918 29.9302 15.2441 29.9302 15.1751 29.9302V29.9249ZM14.3849 33.6165C14.3849 33.0065 14.3849 32.3913 14.3849 31.7813C14.3849 31.707 14.3689 31.6328 14.3583 31.5585C14.2735 30.7205 13.7537 30.0999 12.9422 29.8666C12.4701 29.7287 11.9875 29.7181 11.5048 29.7764C10.2796 29.9196 9.57414 30.7099 9.57414 31.9457C9.57414 32.858 9.55823 33.7756 9.57414 34.6879C9.57945 35.144 9.59536 35.6055 9.67492 36.0563C9.81813 36.8731 10.3061 37.3982 11.1282 37.5786C11.7116 37.7058 12.2951 37.7058 12.8732 37.5786C13.5787 37.4194 14.0507 36.9951 14.2363 36.2897C14.3159 35.9821 14.3689 35.6585 14.3796 35.3403C14.4008 34.7674 14.3849 34.1946 14.3849 33.6218V33.6165ZM23.6933 32.4973C23.6933 32.4973 23.7252 32.5133 23.7358 32.5133C24.2768 32.5133 24.8231 32.5133 25.3641 32.5133C25.4437 32.5133 25.4702 32.4814 25.4649 32.4072C25.4596 32.0942 25.4808 31.7707 25.4384 31.4631C25.3376 30.7311 24.9663 30.1795 24.245 29.9302C23.5183 29.6756 22.7704 29.6756 22.0332 29.8772C21.4073 30.0522 20.9883 30.4712 20.8133 31.0971C20.7231 31.4312 20.6754 31.7813 20.6542 32.1314C20.6277 32.4867 20.6595 32.8421 20.6648 33.1975C20.6648 33.8764 20.6542 34.55 20.6701 35.2289C20.6807 35.5683 20.7125 35.9131 20.7815 36.242C20.9247 36.889 21.2853 37.3717 21.9483 37.5732C22.3408 37.6952 22.7439 37.7218 23.147 37.6475C23.5979 37.5679 23.9373 37.3293 24.1442 36.9156C24.1548 36.8996 24.176 36.889 24.1919 36.8678C24.2131 37.0482 24.2291 37.2126 24.245 37.3823C24.2556 37.4778 24.298 37.5149 24.3988 37.5096C24.717 37.499 25.0406 37.499 25.3641 37.499C25.4065 37.499 25.449 37.4937 25.502 37.4884V33.3831H23.094V34.7621H23.7199C23.704 35.1334 23.7093 35.4888 23.6668 35.8388C23.635 36.1465 23.4335 36.2844 23.1046 36.2897C22.7492 36.2897 22.5371 36.1518 22.4787 35.8495C22.4575 35.7593 22.4628 35.6638 22.4628 35.5683C22.4628 34.5553 22.4628 33.5422 22.4628 32.5292C22.4628 32.2481 22.4681 31.9669 22.4787 31.6858C22.4946 31.3358 22.6909 31.1448 23.041 31.1342C23.4122 31.1236 23.5342 31.2191 23.6138 31.5798C23.6244 31.6381 23.6297 31.6964 23.635 31.7548C23.6509 32.0041 23.6668 32.2534 23.6827 32.5026L23.6933 32.4973ZM45.148 34.5235H43.3287C43.3287 34.6667 43.3393 34.7993 43.3287 34.9319C43.3022 35.2448 43.281 35.5577 43.2279 35.8707C43.2067 35.9821 43.1165 36.1147 43.0211 36.173C42.5808 36.4488 42.0876 36.173 42.0716 35.6585C42.0716 35.6267 42.0716 35.6002 42.0716 35.5683C42.0716 34.6932 42.0716 33.818 42.0716 32.9482C42.0716 32.7997 42.0929 32.6512 42.0982 32.5079C42.0982 32.2056 42.0876 31.9086 42.1035 31.6063C42.1194 31.3782 42.2467 31.2138 42.4801 31.1501C42.8885 31.044 43.1855 31.2297 43.2438 31.654C43.2757 31.898 43.2809 32.142 43.2969 32.3913C43.2969 32.4496 43.2969 32.5079 43.2969 32.5663H45.1055C45.0896 32.1897 45.0949 31.8237 45.0525 31.4578C44.9676 30.7205 44.5804 30.2007 43.875 29.9302C43.334 29.7234 42.7771 29.7181 42.2149 29.7711C41.9709 29.7923 41.7269 29.8507 41.4988 29.9355C40.979 30.1212 40.6237 30.4871 40.4486 31.0069C40.316 31.3888 40.2789 31.7972 40.2789 32.2003C40.2789 33.2134 40.2736 34.2264 40.2789 35.2342C40.2789 35.5312 40.3107 35.8388 40.3691 36.1306C40.5229 36.8784 40.9578 37.4088 41.7163 37.5839C42.3952 37.7377 43.09 37.7165 43.7636 37.4937C44.4531 37.2656 44.9199 36.7989 45.0472 36.0775C45.132 35.579 45.1214 35.0592 45.1533 34.5341L45.148 34.5235ZM31.4531 37.4725C30.9068 34.9478 30.3605 32.4443 29.8195 29.9355C29.7611 29.9355 29.7187 29.9302 29.6762 29.9302C29.0557 29.9302 28.4298 29.9302 27.8092 29.9302C27.6872 29.9302 27.6501 29.9779 27.6289 30.084C27.5281 30.5667 27.4221 31.0494 27.316 31.5267C26.9447 33.1975 26.5734 34.8629 26.2074 36.5337C26.1385 36.8466 26.0854 37.1595 26.0218 37.4725C26.0536 37.4831 26.0695 37.4937 26.0854 37.4937C26.6265 37.4937 27.1728 37.4937 27.7138 37.4937C27.8092 37.4937 27.8251 37.4353 27.8358 37.3611C27.8835 37.0216 27.9312 36.6875 27.979 36.3533C28.0267 36.0351 28.0214 36.0298 28.3396 36.0245C28.6897 36.0192 29.0398 36.0245 29.3898 36.0245C29.4694 36.4806 29.5436 36.9156 29.6126 37.3558C29.6285 37.4672 29.6762 37.499 29.7876 37.499C30.2915 37.499 30.7954 37.499 31.2993 37.499C31.347 37.499 31.3947 37.4884 31.4531 37.4831V37.4725ZM39.3931 29.9355H37.611V37.4778H39.3931V29.9355V29.9355Z" fill="#351D63"/>
<path d="M27.5865 14.0395H27.7722C28.6526 14.0395 29.5278 14.0342 30.4083 14.0395C31.0447 14.0395 31.6759 14.0819 32.2912 14.2835C33.2034 14.5805 33.6649 15.2329 33.7816 16.1558C33.8293 16.527 33.8399 16.9036 33.8399 17.2749C33.8452 18.5372 33.8399 19.8049 33.8399 21.0672C33.8399 21.534 33.8293 21.9954 33.6914 22.4463C33.4421 23.2737 32.8534 23.7405 32.0419 23.9314C31.6865 24.0163 31.3099 24.0534 30.944 24.0587C29.8619 24.0746 28.7799 24.064 27.6979 24.064C27.6661 24.064 27.629 24.064 27.5812 24.0587V14.0395H27.5865ZM29.9415 22.2872C30.0847 22.2872 30.2279 22.2925 30.3658 22.2872C31.0129 22.25 31.4531 22.0856 31.485 21.2317C31.5009 20.8763 31.485 20.5209 31.485 20.1656C31.485 19.1154 31.485 18.0599 31.485 17.0097C31.485 16.8294 31.4584 16.6437 31.4213 16.4687C31.3736 16.2565 31.2569 16.0762 31.05 15.9807C30.7 15.8216 30.3234 15.8481 29.9415 15.8216V22.2872V22.2872Z" fill="#351D63"/>
<path d="M13.3824 14.0395C13.4567 14.0395 13.5097 14.0395 13.5628 14.0395C14.2152 14.0395 14.8676 14.0395 15.52 14.0395C15.7215 14.0395 15.7268 14.0395 15.7268 14.241C15.7268 16.6543 15.7268 19.073 15.7268 21.4863C15.7268 21.6454 15.7374 21.8151 15.7692 21.9689C15.8329 22.2819 16.0503 22.4622 16.3633 22.4993C16.9892 22.5683 17.3286 22.25 17.3657 21.5605C17.3657 21.5022 17.3657 21.4438 17.3657 21.3802C17.3657 19.004 17.3657 16.6278 17.3657 14.2569C17.3657 14.1084 17.4382 14.0342 17.5832 14.0342C18.225 14.0342 18.8668 14.0342 19.5086 14.0342C19.5722 14.0342 19.6358 14.0395 19.7101 14.0448V14.2039C19.7101 16.6013 19.7101 19.004 19.7101 21.4014C19.7101 21.831 19.6465 22.2554 19.4926 22.6638C19.2168 23.401 18.697 23.8837 17.9545 24.1064C17.0422 24.3769 16.114 24.3876 15.2017 24.1171C14.2311 23.8306 13.6636 23.157 13.4779 22.1705C13.4196 21.8682 13.3931 21.5552 13.3931 21.2476C13.3878 18.9191 13.3931 16.5854 13.3931 14.2569V14.0395H13.3824Z" fill="#351D63"/>
<path d="M41.7269 24.0587H39.3719C39.3242 23.7723 39.2711 23.4859 39.2234 23.1995C39.1703 22.8812 39.1067 22.5577 39.059 22.2394C39.0431 22.144 39.0059 22.1068 38.9051 22.1068C38.3694 22.1068 37.8391 22.1068 37.3033 22.1068C37.2079 22.1068 37.1707 22.1334 37.1548 22.2394C37.0753 22.8282 36.9851 23.4169 36.8949 24.0057C36.8949 24.0216 36.8896 24.0322 36.879 24.0534H34.5347C34.6673 23.4434 34.7946 22.8441 34.9272 22.2447C35.2984 20.5475 35.6697 18.8502 36.041 17.1529C36.2585 16.1558 36.4759 15.1533 36.6934 14.1509C36.7093 14.0713 36.7464 14.0342 36.8313 14.0342C37.7012 14.0342 38.571 14.0342 39.4409 14.0342C39.5416 14.0342 39.5681 14.0872 39.5841 14.1615C39.7909 15.1268 40.0031 16.0974 40.2099 17.0628C40.613 18.9138 41.0161 20.7649 41.4192 22.616C41.52 23.0722 41.6155 23.5283 41.7163 23.9845C41.7163 24.0004 41.7163 24.0216 41.7163 24.0534L41.7269 24.0587ZM38.8097 20.3565C38.5869 18.8449 38.3695 17.3598 38.1573 15.8747C38.1414 15.8747 38.1255 15.8747 38.1095 15.8747C37.8815 17.3651 37.6587 18.8555 37.4306 20.3565H38.815H38.8097Z" fill="#351D63"/>
<path d="M20.4896 20.7332H22.6483C22.6483 20.8021 22.6483 20.8658 22.6483 20.9347C22.6643 21.2477 22.6483 21.5712 22.712 21.8735C22.8128 22.388 23.3591 22.6532 23.8524 22.4729C24.1706 22.3562 24.3085 22.091 24.3669 21.7834C24.4729 21.2371 24.2979 20.7809 23.8471 20.4574C23.444 20.171 23.0037 19.927 22.5847 19.6618C22.1657 19.4019 21.7573 19.1261 21.4125 18.7654C20.9405 18.2721 20.6912 17.6834 20.6381 17.0045C20.601 16.5483 20.6222 16.0975 20.7442 15.6573C20.9723 14.8192 21.4974 14.2464 22.3301 13.9812C23.1416 13.7213 23.9637 13.7054 24.7699 13.9812C25.7671 14.3207 26.3134 15.0526 26.499 16.0657C26.5574 16.3733 26.5574 16.6915 26.5839 17.0151H24.4146C24.3934 16.7923 24.3774 16.5749 24.3509 16.3574C24.3403 16.2725 24.3191 16.1824 24.2926 16.0975C24.1653 15.7209 23.8471 15.53 23.4333 15.5777C23.0621 15.6201 22.8393 15.8747 22.7969 16.2778C22.7544 16.6703 22.8711 17.0045 23.1787 17.2325C23.5606 17.5137 23.9743 17.7576 24.3775 18.0175C24.7593 18.2615 25.1518 18.4896 25.5178 18.7601C26.1596 19.2321 26.4619 19.9005 26.5362 20.6854C26.5892 21.2371 26.5892 21.7887 26.4513 22.3297C26.1861 23.3533 25.5337 23.9792 24.5101 24.1967C23.6561 24.377 22.8022 24.3611 21.9801 24.0163C21.0306 23.6185 20.5374 22.8919 20.5002 21.8629C20.4896 21.4863 20.5002 21.1151 20.5002 20.7226L20.4896 20.7332Z" fill="#351D63"/>
<path d="M16.9733 31.2881C17.2279 31.3093 17.4718 31.3146 17.7105 31.357C18.0022 31.4048 18.1189 31.6275 18.156 31.8927C18.1932 32.1739 18.1773 32.455 18.0871 32.7255C18.0075 32.9748 17.8272 33.1074 17.5726 33.118C17.4082 33.1286 17.2491 33.1233 17.0846 33.118C17.0475 33.118 16.9786 33.0649 16.9786 33.0331C16.9733 32.4603 16.9786 31.8927 16.9786 31.2881H16.9733Z" fill="#351D63"/>
<path d="M12.5976 33.6751C12.5976 34.2214 12.6082 34.773 12.5923 35.3193C12.587 35.5368 12.5393 35.7595 12.4756 35.9664C12.412 36.168 12.2529 36.2687 12.0354 36.2793C11.8073 36.2899 11.6058 36.2157 11.5262 36.0035C11.4467 35.7967 11.3777 35.5686 11.3777 35.3511C11.3618 34.2373 11.3671 33.1182 11.3777 32.0043C11.3777 31.8293 11.4149 31.649 11.4679 31.4845C11.5528 31.2246 11.7596 31.1133 12.0513 31.1292C12.29 31.1398 12.4756 31.2883 12.534 31.5376C12.5711 31.6967 12.5923 31.8664 12.5976 32.0362C12.6029 32.5825 12.5976 33.1341 12.5976 33.6804V33.6751Z" fill="#351D63"/>
<path d="M28.7428 31.4102C28.9019 32.4922 29.0557 33.5742 29.2148 34.6615H28.223C28.3874 33.5742 28.5518 32.4922 28.7162 31.4102H28.7428V31.4102Z" fill="#351D63"/>
</svg>
