<svg width="54" height="54" viewBox="0 0 54 54" fill="none" xmlns="http://www.w3.org/2000/svg">
<path d="M15.6507 13.2727V22H13.8056V15.0241H13.7544L11.7559 16.277V14.6406L13.9164 13.2727H15.6507Z" fill="#936DDC"/>
<path d="M21.1468 22.1918C20.4139 22.1889 19.7832 22.0085 19.2548 21.6506C18.7292 21.2926 18.3244 20.7741 18.0403 20.0952C17.7591 19.4162 17.6199 18.5994 17.6227 17.6449C17.6227 16.6932 17.7633 15.8821 18.0446 15.2116C18.3287 14.5412 18.7335 14.0312 19.2591 13.6818C19.7875 13.3295 20.4167 13.1534 21.1468 13.1534C21.877 13.1534 22.5048 13.3295 23.0304 13.6818C23.5588 14.0341 23.965 14.5455 24.2491 15.2159C24.5332 15.8835 24.6738 16.6932 24.671 17.6449C24.671 18.6023 24.5289 19.4205 24.2449 20.0994C23.9636 20.7784 23.5602 21.2969 23.0346 21.6548C22.5091 22.0128 21.8798 22.1918 21.1468 22.1918ZM21.1468 20.6619C21.6468 20.6619 22.046 20.4105 22.3443 19.9077C22.6426 19.4048 22.7903 18.6506 22.7875 17.6449C22.7875 16.983 22.7193 16.4318 22.5829 15.9915C22.4494 15.5511 22.2591 15.2202 22.0119 14.9986C21.7676 14.777 21.4792 14.6662 21.1468 14.6662C20.6497 14.6662 20.252 14.9148 19.9537 15.4119C19.6554 15.9091 19.5048 16.6534 19.502 17.6449C19.502 18.3153 19.5687 18.875 19.7022 19.3239C19.8386 19.7699 20.0304 20.1051 20.2775 20.3295C20.5247 20.5511 20.8145 20.6619 21.1468 20.6619Z" fill="#936DDC"/>
<path d="M29.4086 22.1918C28.6756 22.1889 28.0449 22.0085 27.5165 21.6506C26.9909 21.2926 26.5861 20.7741 26.302 20.0952C26.0208 19.4162 25.8816 18.5994 25.8844 17.6449C25.8844 16.6932 26.025 15.8821 26.3063 15.2116C26.5904 14.5412 26.9952 14.0312 27.5208 13.6818C28.0492 13.3295 28.6784 13.1534 29.4086 13.1534C30.1387 13.1534 30.7665 13.3295 31.2921 13.6818C31.8205 14.0341 32.2267 14.5455 32.5108 15.2159C32.7949 15.8835 32.9355 16.6932 32.9327 17.6449C32.9327 18.6023 32.7907 19.4205 32.5066 20.0994C32.2253 20.7784 31.8219 21.2969 31.2963 21.6548C30.7708 22.0128 30.1415 22.1918 29.4086 22.1918ZM29.4086 20.6619C29.9086 20.6619 30.3077 20.4105 30.606 19.9077C30.9043 19.4048 31.052 18.6506 31.0492 17.6449C31.0492 16.983 30.981 16.4318 30.8446 15.9915C30.7111 15.5511 30.5208 15.2202 30.2736 14.9986C30.0293 14.777 29.7409 14.6662 29.4086 14.6662C28.9114 14.6662 28.5137 14.9148 28.2154 15.4119C27.9171 15.9091 27.7665 16.6534 27.7637 17.6449C27.7637 18.3153 27.8304 18.875 27.964 19.3239C28.1003 19.7699 28.2921 20.1051 28.5392 20.3295C28.7864 20.5511 29.0762 20.6619 29.4086 20.6619Z" fill="#936DDC"/>
<path d="M39.0254 20.3636V19.9034C39.0254 19.554 39.0993 19.233 39.247 18.9403C39.3976 18.6449 39.6149 18.4091 39.899 18.233C40.1859 18.054 40.5353 17.9645 40.9473 17.9645C41.3649 17.9645 41.7157 18.0526 41.9998 18.2287C42.2868 18.4048 42.5027 18.6406 42.6476 18.9361C42.7953 19.2287 42.8691 19.5511 42.8691 19.9034V20.3636C42.8691 20.7131 42.7953 21.0355 42.6476 21.331C42.4998 21.6236 42.2825 21.858 41.9956 22.0341C41.7086 22.2131 41.3592 22.3026 40.9473 22.3026C40.5297 22.3026 40.1788 22.2131 39.8947 22.0341C39.6106 21.858 39.3947 21.6236 39.247 21.331C39.0993 21.0355 39.0254 20.7131 39.0254 20.3636ZM40.2654 19.9034V20.3636C40.2654 20.5653 40.3137 20.7557 40.4103 20.9347C40.5098 21.1136 40.6887 21.2031 40.9473 21.2031C41.2058 21.2031 41.3819 21.1151 41.4757 20.9389C41.5723 20.7628 41.6206 20.571 41.6206 20.3636V19.9034C41.6206 19.696 41.5751 19.5028 41.4842 19.3239C41.3933 19.1449 41.2143 19.0554 40.9473 19.0554C40.6916 19.0554 40.514 19.1449 40.4146 19.3239C40.3152 19.5028 40.2654 19.696 40.2654 19.9034ZM34.5467 15.3693V14.9091C34.5467 14.5568 34.622 14.2344 34.7726 13.9418C34.9231 13.6463 35.1404 13.4105 35.4245 13.2344C35.7115 13.0582 36.0581 12.9702 36.4643 12.9702C36.8848 12.9702 37.237 13.0582 37.5211 13.2344C37.8052 13.4105 38.0211 13.6463 38.1689 13.9418C38.3166 14.2344 38.3904 14.5568 38.3904 14.9091V15.3693C38.3904 15.7216 38.3152 16.044 38.1646 16.3366C38.0169 16.6293 37.7995 16.8636 37.5126 17.0398C37.2285 17.2131 36.8791 17.2997 36.4643 17.2997C36.0495 17.2997 35.6987 17.2116 35.4118 17.0355C35.1277 16.8565 34.9118 16.6222 34.764 16.3324C34.6191 16.0398 34.5467 15.7187 34.5467 15.3693ZM35.7953 14.9091V15.3693C35.7953 15.5767 35.8436 15.7685 35.9402 15.9446C36.0396 16.1207 36.2143 16.2088 36.4643 16.2088C36.7257 16.2088 36.9032 16.1207 36.997 15.9446C37.0936 15.7685 37.1419 15.5767 37.1419 15.3693V14.9091C37.1419 14.7017 37.0964 14.5085 37.0055 14.3295C36.9146 14.1506 36.7342 14.0611 36.4643 14.0611C36.2115 14.0611 36.0368 14.152 35.9402 14.3338C35.8436 14.5156 35.7953 14.7074 35.7953 14.9091ZM35.1092 22L41.1092 13.2727H42.2257L36.2257 22H35.1092Z" fill="#936DDC"/>
<path fill-rule="evenodd" clip-rule="evenodd" d="M27 54C41.9117 54 54 41.9117 54 27C54 12.0883 41.9117 0 27 0C12.0883 0 0 12.0883 0 27C0 41.9117 12.0883 54 27 54ZM27 52C40.8071 52 52 40.8071 52 27C52 13.1929 40.8071 2 27 2C13.1929 2 2 13.1929 2 27C2 40.8071 13.1929 52 27 52Z" fill="#936DDC"/>
<path fill-rule="evenodd" clip-rule="evenodd" d="M27 50C14.2974 50 4 39.7025 4 27H50C50 39.7025 39.7026 50 27 50ZM13.7219 35.7102C13.9625 35.2652 14.0828 34.7254 14.0828 34.0909C14.0828 33.4564 13.9625 32.9167 13.7219 32.4716C13.4833 32.0265 13.1575 31.6875 12.7447 31.4545C12.3337 31.2197 11.8716 31.1023 11.3583 31.1023C10.8412 31.1023 10.3773 31.2197 9.96625 31.4545C9.5553 31.6875 9.23047 32.0265 8.99182 32.4716C8.75317 32.9167 8.63385 33.4564 8.63385 34.0909C8.63385 34.7235 8.75317 35.2623 8.99182 35.7074C9.23047 36.1525 9.5553 36.4924 9.96625 36.7273C10.3773 36.9621 10.8412 37.0795 11.3583 37.0795C11.8716 37.0795 12.3337 36.9631 12.7447 36.7301C13.1575 36.4953 13.4833 36.1553 13.7219 35.7102ZM12.6509 33.0511C12.774 33.3333 12.8356 33.6799 12.8356 34.0909C12.8356 34.5019 12.774 34.8485 12.6509 35.1307C12.5297 35.4129 12.3583 35.6269 12.1367 35.7727C11.9151 35.9186 11.6556 35.9915 11.3583 35.9915C11.061 35.9915 10.8015 35.9186 10.5799 35.7727C10.3583 35.6269 10.186 35.4129 10.0629 35.1307C9.94165 34.8485 9.88104 34.5019 9.88104 34.0909C9.88104 33.6799 9.94165 33.3333 10.0629 33.0511C10.186 32.7689 10.3583 32.5549 10.5799 32.4091C10.8015 32.2633 11.061 32.1903 11.3583 32.1903C11.6556 32.1903 11.9151 32.2633 12.1367 32.4091C12.3583 32.5549 12.5297 32.7689 12.6509 33.0511ZM17.2894 31.1818H14.994V37H16.2241V34.9375H17.122L18.2241 37H19.582L18.3476 34.7397C18.3654 34.732 18.3829 34.7241 18.4002 34.7159C18.7165 34.5682 18.958 34.3561 19.1246 34.0795C19.2913 33.8011 19.3746 33.4688 19.3746 33.0824C19.3746 32.6979 19.2922 32.3636 19.1275 32.0795C18.9646 31.7936 18.7269 31.5729 18.4144 31.4176C18.1038 31.2604 17.7288 31.1818 17.2894 31.1818ZM16.2241 33.9489H17.0593C17.2941 33.9489 17.4893 33.9167 17.6445 33.8523C17.7998 33.7879 17.9153 33.6913 17.9911 33.5625C18.0688 33.4337 18.1076 33.2737 18.1076 33.0824C18.1076 32.8892 18.0688 32.7263 17.9911 32.5938C17.9153 32.4612 17.7989 32.3608 17.6417 32.2926C17.4864 32.2225 17.2903 32.1875 17.0536 32.1875H16.2241V33.9489ZM23.9343 32.696C24.0063 32.8021 24.0621 32.9242 24.1019 33.0625H25.3519C25.3121 32.7746 25.2222 32.5114 25.082 32.2727C24.9419 32.0322 24.761 31.8248 24.5394 31.6506C24.3197 31.4763 24.0678 31.3419 23.7838 31.2472C23.4996 31.1506 23.1928 31.1023 22.8633 31.1023C22.4788 31.1023 22.1218 31.1695 21.7922 31.304C21.4627 31.4384 21.1739 31.6345 20.9258 31.892C20.6777 32.1496 20.4845 32.464 20.3463 32.8352C20.2099 33.2045 20.1417 33.625 20.1417 34.0966C20.1417 34.7102 20.2563 35.2405 20.4854 35.6875C20.7165 36.1326 21.0385 36.4763 21.4514 36.7188C21.8643 36.9593 22.3434 37.0795 22.8889 37.0795C23.3775 37.0795 23.8112 36.9811 24.19 36.7841C24.5688 36.5852 24.8661 36.303 25.082 35.9375C25.2979 35.5701 25.4059 35.1307 25.4059 34.6193V33.8864H22.9713V34.8125H24.2208C24.2158 35.0451 24.1629 35.2477 24.0621 35.4205C23.958 35.6023 23.8065 35.7434 23.6076 35.8438C23.4106 35.9422 23.1729 35.9915 22.8945 35.9915C22.5877 35.9915 22.3216 35.9176 22.0963 35.7699C21.8708 35.6203 21.6966 35.4034 21.5735 35.1193C21.4504 34.8352 21.3889 34.4905 21.3889 34.0852C21.3889 33.6799 21.4514 33.3371 21.5764 33.0568C21.7014 32.7746 21.8756 32.5597 22.0991 32.4119C22.3245 32.2642 22.5858 32.1903 22.8832 32.1903C23.0422 32.1903 23.1871 32.2102 23.3178 32.25C23.4504 32.2898 23.5678 32.3475 23.6701 32.4233C23.7743 32.4972 23.8623 32.5881 23.9343 32.696ZM25.8349 37H27.1531L27.5847 35.6733H29.6854L30.1161 37H31.4343L29.4286 31.1818H27.8434L25.8349 37ZM29.3736 34.7131L28.6588 32.5114H28.6133L27.897 34.7131H29.3736ZM35.9385 37H37.001V31.1818H35.7766V34.8409H35.7255L33.2141 31.1818H32.1346V37H33.3647V33.3381H33.4073L35.9385 37ZM38.0174 37H39.2475V31.1818H38.0174V37ZM44.1488 33.2188H45.3931C45.3533 32.8816 45.2625 32.5824 45.1204 32.321C44.9802 32.0597 44.7984 31.839 44.575 31.6591C44.3514 31.4773 44.0948 31.339 43.8051 31.2443C43.5172 31.1496 43.2047 31.1023 42.8676 31.1023C42.3562 31.1023 41.8959 31.2197 41.4869 31.4545C41.0778 31.6875 40.7539 32.0265 40.5153 32.4716C40.2766 32.9167 40.1573 33.4564 40.1573 34.0909C40.1573 34.7235 40.2747 35.2623 40.5096 35.7074C40.7463 36.1525 41.0683 36.4924 41.4755 36.7273C41.8846 36.9621 42.3486 37.0795 42.8676 37.0795C43.2407 37.0795 43.575 37.0237 43.8704 36.9119C44.1677 36.7983 44.4234 36.6449 44.6375 36.4517C44.8533 36.2566 45.0247 36.036 45.1516 35.7898C45.2804 35.5417 45.3609 35.2841 45.3931 35.017L44.1488 35.0114C44.1204 35.1667 44.0693 35.3049 43.9954 35.4261C43.9234 35.5473 43.8325 35.6506 43.7227 35.7358C43.6128 35.8191 43.4869 35.8826 43.3448 35.9261C43.2047 35.9697 43.0522 35.9915 42.8875 35.9915C42.5939 35.9915 42.3353 35.9195 42.1119 35.7756C41.8884 35.6316 41.7141 35.4186 41.5891 35.1364C41.466 34.8542 41.4045 34.5057 41.4045 34.0909C41.4045 33.6875 41.466 33.3447 41.5891 33.0625C41.7122 32.7784 41.8856 32.5625 42.109 32.4148C42.3325 32.2652 42.5948 32.1903 42.8959 32.1903C43.0626 32.1903 43.217 32.214 43.359 32.2614C43.5029 32.3087 43.6299 32.3769 43.7397 32.4659C43.8495 32.5549 43.9395 32.6629 44.0096 32.7898C44.0797 32.9148 44.126 33.0578 44.1488 33.2188Z" fill="#936DDC"/>
</svg>
