<svg width="1537" height="426" viewBox="0 0 1537 426" fill="none" xmlns="http://www.w3.org/2000/svg">
<path d="M62.2268 423.279C32.9038 423.279 18.2538 422.866 18.2538 422.017C18.2538 420.342 21.0464 410.108 26.6317 391.361C36.4061 357.218 43.7998 332.574 48.8357 317.453L66.4387 256.991C68.9566 248.318 71.0397 241.595 72.7336 236.845L79.8526 214.175C89.0776 183.932 98.1423 156.375 107.07 131.456C114.051 111.034 117.554 100.387 117.554 99.5383L104.575 99.9513L64.3556 103.301C38.6494 106.101 21.4813 109.313 12.8287 112.961C10.8601 112.961 7.65537 109.611 3.19168 102.888C1.52066 100.364 0.673706 98.5516 0.673706 97.4273C1.79535 96.5783 9.0517 94.7656 22.4656 91.9662C40.8926 88.0425 62.4099 85.1054 86.9716 83.1551C90.039 82.8797 93.8159 82.742 98.2796 82.742L119.225 81.48C129.274 80.631 155.941 80.218 199.228 80.218C215.984 80.218 231.687 80.2869 246.359 80.4245C261.032 80.5622 274.767 81.2047 287.631 82.3061L292.667 82.7191C292.667 84.3941 292.049 87.6295 290.79 92.3792C289.531 97.1519 288.753 99.653 288.478 99.9283C284.564 99.9283 281.222 99.7907 278.429 99.5153C275.637 99.24 268.518 98.9646 257.072 98.6663C233.884 98.1156 216.579 97.8173 205.133 97.8173L182.517 97.4043C170.797 97.4043 164.159 98.2533 162.625 99.9283C161.092 101.603 159.901 104.265 159.054 107.913C147.609 141.506 137.972 170.211 130.143 194.006L103.75 280.511L97.4555 302.768C85.7355 341.959 73.9926 382.137 62.2726 423.279H62.2268Z" fill="#351D63"/>
<path d="M166.105 348.109C143.214 348.109 130.716 348.04 128.61 347.902C126.504 347.764 125.474 347.42 125.474 346.847V345.998C125.474 345.447 126.321 341.799 127.992 335.076C132.73 315.205 140.284 286.936 150.608 250.245C155.071 233.725 158.001 223.789 159.398 220.439H200.441C200.441 221.013 199.456 224.225 197.511 230.099L194.993 239.759H195.405C196.252 239.759 198.747 238.497 202.936 235.973C217.723 228.149 231.274 224.225 243.567 224.225C245.512 224.225 246.771 224.294 247.344 224.432C247.893 224.569 248.191 225.212 248.191 226.313C248.191 227.713 247.71 230.512 246.726 234.711C245.741 238.91 244.849 241.159 244.002 241.434C243.155 241.71 242.331 241.847 241.484 241.847C237.295 241.847 231.068 245.197 222.851 251.92C214.61 258.643 206.369 266.697 198.129 276.059C189.888 285.444 183.387 294.462 178.649 303.135C176.703 306.784 174.185 315.044 171.118 327.916L166.082 348.063L166.105 348.109Z" fill="#351D63"/>
<path d="M331.581 346.434H312.742C313.017 342.808 313.589 339.573 314.413 336.773C316.359 330.05 318.03 325.025 319.449 321.652C319.449 321.377 319.312 321.239 319.037 321.239C318.763 321.239 317.916 321.813 316.519 322.914C310.385 327.962 305.211 331.725 301.022 334.249C289.005 340.973 277.01 344.323 264.992 344.323C256.889 344.323 249.358 342.648 242.376 339.275C239.858 338.15 238.05 337.118 236.928 336.131C235.807 335.144 234.823 333.607 233.998 331.519C233.151 329.408 232.533 327.733 232.121 326.471C231.709 325.209 231.503 323.465 231.503 321.216V317.017C231.503 303.571 235.83 284.962 244.482 261.168C252.013 241.297 257.187 229.961 259.979 227.162C259.979 226.313 266.824 225.9 280.512 225.9C288.616 225.9 293.858 226.038 296.215 226.313C298.596 226.588 299.786 227.024 299.786 227.575C299.786 228.424 298.802 231.086 296.856 235.56C292.095 246.482 287.769 257.955 283.877 270.002C277.445 289.873 274.24 304.718 274.24 314.516C274.24 317.591 274.515 319.427 275.087 319.977C276.484 319.977 282.756 314.103 293.949 302.332C302.602 292.81 312.651 280.212 324.119 264.541C331.65 254.467 342.134 239.071 355.548 218.351H377.34L398.697 218.764L396.591 225.487C393.249 235.56 389.609 245.496 385.695 255.293L376.058 282.599C364.887 313.667 358.455 332.437 356.784 338.862C355.662 342.785 354.335 345.034 352.801 345.585C351.267 346.158 344.217 346.434 331.65 346.434H331.581Z" fill="#351D63"/>
<path d="M441.754 359.031C424.998 359.031 410.829 354.901 399.223 346.64C387.641 338.38 381.849 326.976 381.849 312.428C381.849 300.405 385.054 288.358 391.486 276.312C397.919 264.288 405.038 254.192 412.843 246.069C421.496 236.547 432.186 228.218 444.89 221.081C457.595 213.945 470.642 210.366 484.056 210.366C493.281 210.366 502.209 212.752 510.861 217.502C517.568 221.701 520.91 226.474 520.91 231.774C520.91 239.897 516.241 248.502 506.878 257.588C497.516 266.697 487.673 274.797 477.349 281.933C467.026 289.069 459.54 293.475 454.939 295.15C450.338 296.825 445.508 298.362 440.495 299.762C434.361 301.162 429.325 301.873 425.41 301.873C425.136 301.873 424.998 303.984 424.998 308.16C424.998 311.809 425.548 316.283 426.669 321.606C427.791 326.93 429.943 331.611 433.17 335.672C436.375 339.733 441.48 341.753 448.461 341.753L454.756 340.904C472.909 335.856 492.457 323.121 513.402 302.699C522.055 294.301 528.19 287.027 531.829 280.855C532.951 278.331 534.072 277.069 535.171 277.069C536.842 277.069 541.031 280.58 547.738 287.578L559.046 298.913C537.827 321.583 514.089 338.54 487.833 349.715L484.056 350.977C468.971 356.3 454.871 358.962 441.754 358.962V359.031ZM431.705 283.035C432.552 283.035 434.498 282.186 437.565 280.511C448.164 274.637 457.663 266.514 466.041 256.165C473.572 246.918 477.349 239.231 477.349 233.082C477.349 230.833 477.075 229.732 476.502 229.732L474.396 230.994C468.262 234.642 461.692 239.966 454.71 246.941C446.058 255.615 439.213 264.999 434.178 275.073C432.232 278.996 431.248 281.658 431.248 283.058H431.66L431.705 283.035Z" fill="#351D63"/>
<path d="M831.743 425.78H788.182V420.732C786.786 412.058 773.669 358.319 748.81 259.493L738.326 216.24C733.015 194.12 729.948 182.097 729.101 180.123C727.979 180.123 718.342 208.393 700.19 264.954C682.587 320.39 670.295 360.545 663.336 385.464L661.23 392.187L639.438 392.6C624.926 392.6 617.646 392.463 617.646 392.187C617.646 390.788 619.043 385.189 621.835 375.391C628.542 351.321 634.54 331.175 639.85 314.929L646.969 293.934C657.865 259.791 669.173 225.349 680.893 190.633C693.186 154.791 701.129 132.465 704.768 123.654C708.385 114.843 712.162 106.101 716.076 97.4043H737.021C751.259 97.4043 758.378 97.6797 758.378 98.2533C758.378 98.8269 757.966 99.9972 757.119 101.833C756.272 103.646 755.86 105.275 755.86 106.651L756.272 109.588L769.251 159.564L809.47 320.39C810.867 328.238 811.988 332.574 812.812 333.4C813.362 333.4 814.209 331.725 815.33 328.352C816.452 323.878 822.861 303.571 834.604 267.455L843.394 239.736C856.236 198.021 874.388 144.695 897.851 79.7591L941.412 79.3461C922.985 130.859 903.986 188.109 884.437 251.094L867.681 304.42C859.853 328.215 847.858 368.668 831.651 425.78H831.743Z" fill="#351D63"/>
<path d="M996.373 346.434C983.806 346.434 977.534 346.021 977.534 345.172V343.061C977.534 340.261 979.342 332.712 982.982 320.39C984.653 314.792 985.5 311.441 985.5 310.317L978.793 314.929C971.811 320.253 965.516 324.452 959.931 327.526C950.156 332.85 939.97 335.511 929.349 335.511C904.489 335.511 892.06 326.838 892.06 309.468C892.06 307.219 892.609 303.158 893.731 297.284C894.852 291.41 898.263 284.067 903.986 275.233C909.709 266.422 915.637 259.63 921.795 254.857C934.637 243.109 949.172 234.436 965.356 228.814C972.612 226.29 979.457 225.028 985.889 225.028C990.627 225.028 995.388 225.739 1000.13 227.139L1005.16 228.401L1011.02 218.328H1031.97C1045.66 218.328 1052.78 218.603 1053.32 219.177C1053.32 220.852 1051.36 228.286 1047.46 241.434L1036.57 277.964C1035.17 282.163 1031.53 295.609 1025.67 318.279C1022.03 335.351 1019.31 344.323 1017.5 345.149C1015.69 345.998 1008.62 346.411 996.35 346.411L996.373 346.434ZM938.139 313.254L944.846 307.38C956.566 297.032 969.408 281.635 983.394 261.19C988.704 253.917 991.36 249.167 991.36 246.918C991.36 245.519 990.101 244.532 987.583 243.981L985.065 243.568L982.547 243.981C965.219 251.829 952.239 266.239 943.587 287.234C939.947 295.632 938.139 302.493 938.139 307.816V313.277V313.254Z" fill="#351D63"/>
<path d="M1081.39 392.623H1049.98C1044.95 392.623 1042.09 392.486 1041.4 392.21C1040.71 391.935 1040.35 391.522 1040.35 390.948L1041.6 386.336C1042.73 380.737 1048.04 361.004 1057.51 327.136C1073.7 266.95 1085.3 224.822 1092.28 200.752C1093.96 194.602 1094.8 191.091 1094.8 190.242V189.829H1060.88C1060.88 188.98 1062.28 183.68 1065.07 173.882C1065.34 173.033 1066.33 172.551 1068 172.414C1069.67 172.276 1074.43 172.207 1082.24 172.207C1093.41 172.207 1099.47 171.863 1100.46 171.152C1101.44 170.463 1104.71 160.872 1110.3 142.378L1142.55 141.965C1147.02 141.965 1149.6 142.034 1150.31 142.171C1151 142.309 1151.37 142.653 1151.37 143.227L1143.83 168.834C1143.83 169.408 1150.68 169.683 1164.37 169.683L1225.53 169.27C1226.08 169.545 1226.38 170.119 1226.38 170.945C1226.38 172.07 1225.97 174.158 1225.12 177.255C1223.72 182.028 1222.74 184.896 1222.19 185.86C1221.62 186.847 1212.28 187.328 1194.13 187.328C1169.54 187.328 1152.92 187.604 1144.27 188.177C1140.63 188.453 1138.34 189.026 1137.36 189.852C1136.37 190.701 1122.61 239.392 1096.08 335.97C1089.93 358.365 1085.05 377.273 1081.41 392.669L1081.39 392.623Z" fill="#351D63"/>
<path d="M1169.79 364.056C1165.88 364.056 1161.96 363.643 1158.07 362.794C1148.3 360.27 1141.25 356.851 1136.92 352.514C1132.6 348.177 1130.42 340.973 1130.42 330.899C1130.42 314.379 1136.72 288.909 1149.28 254.467C1155.99 235.147 1160.02 224.087 1161.44 221.288C1162.28 219.613 1163.18 218.626 1164.16 218.351C1165.15 218.076 1169.54 217.938 1177.35 217.938C1192.71 217.938 1201.08 218.213 1202.48 218.787C1202.48 220.462 1199.96 228.447 1194.95 242.719C1184.33 274.912 1177.78 297.582 1175.26 310.753C1174.14 316.925 1173.59 322.501 1173.59 327.549C1173.59 332.597 1174.14 336.659 1175.26 339.733L1177.37 344.346L1186.59 340.147C1193.58 336.223 1204.82 328.743 1220.31 317.683C1235.81 306.623 1249.84 296.206 1262.41 286.408C1267.15 282.782 1269.66 280.947 1269.94 280.947C1270.79 280.947 1273.92 283.815 1279.37 289.551C1284.82 295.288 1287.68 298.73 1287.95 299.831C1285.16 302.355 1274.54 310.317 1256.11 323.763C1219.26 350.633 1190.49 364.079 1169.82 364.079L1169.79 364.056ZM1188.65 197.356H1174.21C1170.43 197.356 1168.42 197.218 1168.14 196.943C1168.14 195.543 1170.09 189.118 1174 177.622C1177.92 166.15 1180.3 160.138 1181.12 159.564C1181.97 159.013 1195.22 158.715 1220.91 158.715L1209.19 196.92L1188.65 197.333V197.356Z" fill="#351D63"/>
<path d="M1292.1 347.26H1243.09L1244.76 326.264C1250.89 256.28 1254.4 220.301 1255.22 218.351C1255.22 217.8 1262.06 217.502 1275.75 217.502C1285.25 217.502 1291.04 217.571 1293.13 217.708C1295.21 217.846 1296.26 218.328 1296.26 219.177L1293.33 253.182C1291.66 271.654 1290.82 282.438 1290.82 285.513V286.362L1300.45 272.916C1310.5 258.093 1323.62 239.323 1339.82 216.653C1366.63 216.653 1380.04 216.791 1380.04 217.066L1292.07 347.237L1292.1 347.26Z" fill="#351D63"/>
<path d="M1419.03 359.031C1402.27 359.031 1388.1 354.901 1376.52 346.64C1364.94 338.38 1359.14 326.976 1359.14 312.428C1359.14 300.405 1362.35 288.358 1368.78 276.312C1375.19 264.288 1382.33 254.192 1390.14 246.069C1398.79 236.547 1409.48 228.218 1422.19 221.081C1434.89 213.945 1447.94 210.366 1461.35 210.366C1470.58 210.366 1479.5 212.752 1488.16 217.502C1494.86 221.701 1498.21 226.474 1498.21 231.774C1498.21 239.897 1493.54 248.502 1484.17 257.588C1474.81 266.697 1464.97 274.797 1454.64 281.933C1444.3 289.069 1436.84 293.475 1432.23 295.15C1427.63 296.825 1422.8 298.362 1417.79 299.762C1411.66 301.162 1406.62 301.873 1402.71 301.873C1402.43 301.873 1402.29 303.984 1402.29 308.16C1402.29 311.809 1402.84 316.283 1403.96 321.606C1405.09 326.93 1407.24 331.611 1410.47 335.672C1413.67 339.733 1418.77 341.753 1425.76 341.753L1432.03 340.904C1450.18 335.856 1469.73 323.121 1490.67 302.699C1499.33 294.301 1505.46 287.027 1509.1 280.855C1510.22 278.331 1511.32 277.069 1512.44 277.069C1514.11 277.069 1518.3 280.58 1525.01 287.578L1536.32 298.913C1515.1 321.583 1491.36 338.54 1465.11 349.715L1461.33 350.977C1446.24 356.3 1432.14 358.962 1419.03 358.962V359.031ZM1408.98 283.035C1409.82 283.035 1411.77 282.186 1414.84 280.511C1425.46 274.637 1434.94 266.514 1443.31 256.165C1450.84 246.918 1454.62 239.231 1454.62 233.082C1454.62 230.833 1454.35 229.732 1453.77 229.732L1451.67 230.994C1445.53 234.642 1438.96 239.966 1431.98 246.941C1423.33 255.615 1416.49 264.999 1411.45 275.073C1409.5 278.996 1408.52 281.658 1408.52 283.058H1408.93L1408.98 283.035Z" fill="#351D63"/>
<path d="M595.053 0.0229457C590.75 0.367131 490.305 2.89115 459.105 34.1661C428.34 65.3493 425.571 113.558 452.353 144.03C472.268 90.9566 552.431 52.1326 552.431 52.1326C492.137 87.5836 470.917 138.523 465.309 155.273C496.44 176.682 537.208 173.584 568.157 143.456C599.38 112.548 602.218 11.4958 602.218 7.18199C601.623 2.77643 599.197 0.458913 595.03 0L595.053 0.0229457Z" fill="#8DC740"/>
</svg>
