<svg width="165" height="46" viewBox="0 0 165 46" fill="none" xmlns="http://www.w3.org/2000/svg">
<path d="M6.61368 45.4803C3.46302 45.4803 1.88892 45.4359 1.88892 45.3447C1.88892 45.1647 2.18898 44.0651 2.78911 42.0508C3.83933 38.3823 4.63376 35.7344 5.17485 34.1097L7.06623 27.6132C7.33678 26.6813 7.5606 25.9589 7.7426 25.4486L8.50752 23.0127C9.49871 19.7633 10.4727 16.8023 11.4319 14.1248C12.1821 11.9306 12.5584 10.7866 12.5584 10.6954L11.1638 10.7398L6.84241 11.0997C4.08036 11.4005 2.23571 11.7457 1.30601 12.1377C1.09449 12.1377 0.750157 11.7777 0.270548 11.0554C0.0910026 10.7842 0 10.5894 0 10.4686C0.120517 10.3774 0.900188 10.1826 2.34147 9.88181C4.32139 9.46022 6.63335 9.14464 9.27243 8.93508C9.60201 8.9055 10.0078 8.8907 10.4874 8.8907L12.7379 8.75511C13.8176 8.66388 16.683 8.61951 21.334 8.61951C23.1343 8.61951 24.8216 8.6269 26.3981 8.6417C27.9747 8.65649 29.4504 8.72552 30.8327 8.84386L31.3738 8.88824C31.3738 9.06822 31.3074 9.41584 31.1721 9.92619C31.0368 10.439 30.9532 10.7077 30.9237 10.7373C30.5031 10.7373 30.144 10.7225 29.8439 10.6929C29.5439 10.6634 28.779 10.6338 27.5492 10.6017C25.0577 10.5425 23.1983 10.5105 21.9685 10.5105L19.5385 10.4661C18.2792 10.4661 17.566 10.5573 17.4012 10.7373C17.2364 10.9173 17.1085 11.2033 17.0175 11.5953C15.7877 15.2047 14.7523 18.289 13.9111 20.8456L11.0753 30.1403L10.3989 32.5318C9.13962 36.7428 7.87788 41.0597 6.6186 45.4803H6.61368Z" fill="white"/>
<path d="M17.7749 37.4035C15.3154 37.4035 13.9725 37.3962 13.7462 37.3814C13.5199 37.3666 13.4092 37.3296 13.4092 37.2679V37.1767C13.4092 37.1176 13.5002 36.7256 13.6798 36.0032C14.1889 33.8681 15.0006 30.8307 16.1098 26.8885C16.5894 25.1133 16.9042 24.0458 17.0543 23.6859H21.4642C21.4642 23.7475 21.3584 24.0926 21.1494 24.7238L20.8788 25.7618H20.9231C21.0141 25.7618 21.2822 25.6262 21.7323 25.355C23.3211 24.5142 24.7772 24.0926 26.098 24.0926C26.307 24.0926 26.4423 24.1 26.5038 24.1148C26.5628 24.1296 26.5948 24.1987 26.5948 24.317C26.5948 24.4674 26.5431 24.7682 26.4374 25.2194C26.3316 25.6705 26.2357 25.9121 26.1447 25.9417C26.0537 25.9713 25.9651 25.9861 25.8741 25.9861C25.424 25.9861 24.7551 26.3461 23.8721 27.0684C22.9867 27.7908 22.1012 28.6562 21.2158 29.6621C20.3304 30.6704 19.6319 31.6394 19.1227 32.5713C18.9137 32.9633 18.6431 33.8509 18.3135 35.234L17.7724 37.3986L17.7749 37.4035Z" fill="white"/>
<path d="M35.555 37.2235H33.5308C33.5603 36.834 33.6218 36.4863 33.7103 36.1855C33.9194 35.4632 34.0989 34.9232 34.2514 34.5608C34.2514 34.5312 34.2367 34.5164 34.2072 34.5164C34.1776 34.5164 34.0866 34.5781 33.9366 34.6964C33.2775 35.2388 32.7216 35.6432 32.2715 35.9144C30.9803 36.6367 29.6915 36.9967 28.4002 36.9967C27.5295 36.9967 26.7203 36.8167 25.9702 36.4543C25.6996 36.3335 25.5053 36.2225 25.3848 36.1165C25.2643 36.0105 25.1585 35.8453 25.07 35.621C24.979 35.3941 24.9126 35.2142 24.8683 35.0786C24.824 34.943 24.8019 34.7556 24.8019 34.514V34.0628C24.8019 32.6181 25.2668 30.6186 26.1965 28.0619C27.0056 25.9269 27.5615 24.7089 27.8616 24.4082C27.8616 24.3169 28.597 24.2726 30.0678 24.2726C30.9384 24.2726 31.5017 24.2873 31.755 24.3169C32.0108 24.3465 32.1387 24.3934 32.1387 24.4525C32.1387 24.5438 32.0329 24.8297 31.8239 25.3105C31.3123 26.4841 30.8474 27.7168 30.4293 29.0111C29.7382 31.1462 29.3939 32.7413 29.3939 33.7941C29.3939 34.1244 29.4234 34.3217 29.4849 34.3808C29.6349 34.3808 30.3088 33.7497 31.5115 32.4849C32.4412 31.4618 33.5209 30.1082 34.7532 28.4244C35.5624 27.342 36.6888 25.6877 38.1301 23.4614H40.4716L42.7663 23.5058L42.54 24.2282C42.181 25.3105 41.7899 26.378 41.3693 27.4308L40.3338 30.3647C39.1336 33.7029 38.4425 35.7196 38.2629 36.4099C38.1424 36.8315 37.9998 37.0731 37.835 37.1323C37.6702 37.1939 36.9126 37.2235 35.5624 37.2235H35.555Z" fill="white"/>
<path d="M47.3927 38.5771C45.5923 38.5771 44.0699 38.1333 42.8229 37.2457C41.5784 36.3582 40.9561 35.1329 40.9561 33.5698C40.9561 32.2779 41.3005 30.9835 41.9916 29.6892C42.6827 28.3973 43.4476 27.3125 44.2863 26.4397C45.216 25.4166 46.3646 24.5216 47.7297 23.7549C49.0947 22.9881 50.4966 22.6035 51.9379 22.6035C52.9291 22.6035 53.8883 22.8599 54.818 23.3703C55.5387 23.8214 55.8978 24.3343 55.8978 24.9038C55.8978 25.7765 55.396 26.7011 54.3901 27.6774C53.3841 28.6562 52.3265 29.5265 51.2173 30.2932C50.108 31.06 49.3038 31.5333 48.8094 31.7133C48.315 31.8933 47.7961 32.0585 47.2574 32.2089C46.5983 32.3593 46.0572 32.4357 45.6366 32.4357C45.6071 32.4357 45.5923 32.6625 45.5923 33.1112C45.5923 33.5032 45.6514 33.984 45.7719 34.556C45.8924 35.1279 46.1236 35.6309 46.4704 36.0673C46.8147 36.5037 47.3632 36.7206 48.1134 36.7206L48.7897 36.6294C50.7401 36.087 52.8406 34.7187 55.091 32.5244C56.0207 31.6221 56.6799 30.8405 57.071 30.1773C57.1915 29.9061 57.312 29.7705 57.43 29.7705C57.6096 29.7705 58.0597 30.1478 58.7803 30.8997L59.9953 32.1176C57.7154 34.5535 55.1648 36.3754 52.3437 37.5761L51.9379 37.7117C50.3171 38.2837 48.802 38.5697 47.3927 38.5697V38.5771ZM46.313 30.4116C46.404 30.4116 46.613 30.3203 46.9426 30.1404C48.0814 29.5092 49.1021 28.6364 50.0023 27.5245C50.8115 26.531 51.2173 25.705 51.2173 25.0443C51.2173 24.8027 51.1878 24.6843 51.1263 24.6843L50.9 24.8199C50.2408 25.2119 49.535 25.7839 48.7848 26.5334C47.8551 27.4654 47.1197 28.4737 46.5786 29.5561C46.3695 29.9776 46.2638 30.2636 46.2638 30.414H46.3081L46.313 30.4116Z" fill="white"/>
<path d="M89.2957 45.7491H84.6152V45.2067C84.4652 44.2747 83.0559 38.5007 80.3848 27.882L79.2584 23.2347C78.6877 20.858 78.3582 19.5661 78.2672 19.3541C78.1467 19.3541 77.1112 22.3915 75.1608 28.4688C73.2694 34.4253 71.9486 38.7398 71.2009 41.4173L70.9747 42.1397L68.6332 42.184C67.0738 42.184 66.2917 42.1692 66.2917 42.1397C66.2917 41.9893 66.4417 41.3877 66.7418 40.335C67.4625 37.7487 68.1068 35.5841 68.6775 33.8385L69.4424 31.5826C70.6131 27.9141 71.8281 24.2135 73.0874 20.4833C74.4082 16.6322 75.2616 14.2334 75.6527 13.2866C76.0413 12.3399 76.4471 11.4006 76.8677 10.4662H79.1182C80.648 10.4662 81.4129 10.4958 81.4129 10.5574C81.4129 10.619 81.3686 10.7448 81.2776 10.942C81.1866 11.1368 81.1424 11.3118 81.1424 11.4597L81.1866 11.7753L82.5812 17.145L86.9026 34.4253C87.0526 35.2685 87.1731 35.7344 87.2617 35.8232C87.3207 35.8232 87.4117 35.6432 87.5322 35.2808C87.6527 34.8 88.3414 32.6181 89.6031 28.7375L90.5476 25.7593C91.9274 21.2771 93.8778 15.5474 96.3988 8.57026L101.079 8.52588C99.0994 14.0608 97.058 20.2121 94.9575 26.9797L93.1572 32.7094C92.316 35.266 91.0272 39.6126 89.2859 45.7491H89.2957Z" fill="white"/>
<path d="M106.985 37.2235C105.634 37.2235 104.96 37.1791 104.96 37.0879V36.861C104.96 36.5603 105.155 35.7491 105.546 34.4252C105.725 33.8236 105.816 33.4637 105.816 33.3429L105.096 33.8384C104.345 34.4104 103.669 34.8616 103.069 35.1919C102.019 35.7639 100.924 36.0499 99.783 36.0499C97.112 36.0499 95.7765 35.118 95.7765 33.2516C95.7765 33.01 95.8355 32.5736 95.956 31.9425C96.0765 31.3113 96.443 30.5224 97.0579 29.5732C97.6728 28.6265 98.3098 27.8967 98.9714 27.3839C100.351 26.1216 101.913 25.1897 103.652 24.5856C104.432 24.3144 105.167 24.1788 105.858 24.1788C106.367 24.1788 106.879 24.2553 107.388 24.4057L107.929 24.5413L108.559 23.4589H110.809C112.28 23.4589 113.045 23.4885 113.104 23.5501C113.104 23.7301 112.892 24.5289 112.474 25.9416L111.303 29.8666C111.153 30.3178 110.762 31.7625 110.133 34.1984C109.742 36.0327 109.449 36.9966 109.255 37.0854C109.06 37.1766 108.3 37.221 106.982 37.221L106.985 37.2235ZM100.727 33.6584L101.448 33.0273C102.707 31.9154 104.087 30.2611 105.59 28.0644C106.161 27.2828 106.446 26.7725 106.446 26.5309C106.446 26.3805 106.311 26.2745 106.04 26.2153L105.77 26.1709L105.499 26.2153C103.637 27.0585 102.243 28.6068 101.313 30.8626C100.922 31.765 100.727 32.5021 100.727 33.0741V33.6609V33.6584Z" fill="white"/>
<path d="M116.119 42.1867H112.745C112.204 42.1867 111.896 42.1719 111.823 42.1423C111.749 42.1127 111.709 42.0683 111.709 42.0067L111.845 41.5111C111.965 40.9096 112.536 38.7893 113.554 35.1503C115.293 28.6834 116.54 24.1569 117.29 21.5707C117.47 20.9099 117.561 20.5327 117.561 20.4415V20.3971H113.916C113.916 20.3059 114.066 19.7364 114.366 18.6836C114.395 18.5924 114.501 18.5406 114.68 18.5258C114.86 18.5111 115.372 18.5037 116.21 18.5037C117.411 18.5037 118.062 18.4667 118.168 18.3902C118.274 18.3163 118.626 17.2857 119.226 15.2986L122.691 15.2542C123.171 15.2542 123.449 15.2616 123.525 15.2764C123.599 15.2912 123.638 15.3282 123.638 15.3898L122.829 18.1412C122.829 18.2029 123.564 18.2325 125.035 18.2325L131.607 18.1881C131.666 18.2177 131.698 18.2793 131.698 18.3681C131.698 18.4889 131.654 18.7132 131.563 19.0461C131.413 19.5589 131.307 19.867 131.248 19.9706C131.186 20.0766 130.183 20.1284 128.232 20.1284C125.591 20.1284 123.805 20.158 122.876 20.2196C122.485 20.2492 122.239 20.3108 122.133 20.3996C122.027 20.4908 120.549 25.7225 117.698 36.0995C117.037 38.5058 116.513 40.5373 116.122 42.1916L116.119 42.1867Z" fill="white"/>
<path d="M125.618 39.1169C125.197 39.1169 124.777 39.0725 124.359 38.9813C123.309 38.7101 122.551 38.3428 122.086 37.8768C121.621 37.4108 121.388 36.6367 121.388 35.5544C121.388 33.7792 122.064 31.0426 123.414 27.342C124.135 25.2661 124.568 24.0777 124.72 23.777C124.811 23.597 124.907 23.491 125.013 23.4614C125.119 23.4318 125.591 23.417 126.43 23.417C128.08 23.417 128.98 23.4466 129.13 23.5082C129.13 23.6882 128.86 24.5462 128.321 26.0797C127.18 29.5387 126.476 31.9745 126.206 33.3897C126.085 34.0529 126.026 34.652 126.026 35.1944C126.026 35.7368 126.085 36.1732 126.206 36.5035L126.432 36.9991L127.423 36.5479C128.174 36.1263 129.381 35.3226 131.046 34.1343C132.711 32.9459 134.219 31.8266 135.569 30.7739C136.078 30.3843 136.349 30.1871 136.379 30.1871C136.47 30.1871 136.806 30.4953 137.392 31.1116C137.977 31.728 138.285 32.0978 138.314 32.2162C138.014 32.4873 136.873 33.3429 134.893 34.7876C130.933 37.6746 127.841 39.1194 125.621 39.1194L125.618 39.1169ZM127.645 21.2055H126.093C125.687 21.2055 125.47 21.1907 125.441 21.1611C125.441 21.0107 125.65 20.3204 126.071 19.0852C126.491 17.8525 126.747 17.2066 126.836 17.1449C126.927 17.0858 128.351 17.0537 131.11 17.0537L129.851 21.1587L127.645 21.203V21.2055Z" fill="white"/>
<path d="M138.759 37.3125H133.494L133.673 35.0566C134.332 27.537 134.709 23.6712 134.797 23.4617C134.797 23.4025 135.532 23.3705 137.003 23.3705C138.024 23.3705 138.646 23.3779 138.87 23.3926C139.094 23.4074 139.207 23.4592 139.207 23.5504L138.892 27.2042C138.713 29.1889 138.622 30.3476 138.622 30.678V30.7692L139.657 29.3245C140.737 27.7318 142.146 25.7151 143.887 23.2792C146.768 23.2792 148.209 23.294 148.209 23.3236L138.757 37.31L138.759 37.3125Z" fill="white"/>
<path d="M152.397 38.5771C150.597 38.5771 149.075 38.1333 147.83 37.2457C146.586 36.3582 145.963 35.1329 145.963 33.5698C145.963 32.2779 146.308 30.9835 146.999 29.6892C147.687 28.3973 148.455 27.3125 149.294 26.4397C150.223 25.4166 151.372 24.5216 152.737 23.7549C154.102 22.9881 155.504 22.6035 156.945 22.6035C157.936 22.6035 158.896 22.8599 159.825 23.3703C160.546 23.8214 160.905 24.3343 160.905 24.9038C160.905 25.7765 160.403 26.7011 159.397 27.6774C158.391 28.6562 157.334 29.5265 156.224 30.2932C155.113 31.06 154.311 31.5333 153.817 31.7133C153.322 31.8933 152.803 32.0585 152.265 32.2089C151.605 32.3593 151.064 32.4357 150.644 32.4357C150.614 32.4357 150.6 32.6625 150.6 33.1112C150.6 33.5032 150.659 33.984 150.779 34.556C150.9 35.1279 151.131 35.6309 151.478 36.0673C151.822 36.5037 152.37 36.7206 153.121 36.7206L153.794 36.6294C155.745 36.087 157.845 34.7187 160.096 32.5244C161.025 31.6221 161.685 30.8405 162.076 30.1773C162.196 29.9061 162.314 29.7705 162.435 29.7705C162.614 29.7705 163.064 30.1478 163.785 30.8997L165 32.1176C162.72 34.5535 160.17 36.3754 157.348 37.5761L156.943 37.7117C155.322 38.2837 153.807 38.5697 152.397 38.5697V38.5771ZM151.318 30.4116C151.409 30.4116 151.618 30.3203 151.947 30.1404C153.089 29.5092 154.107 28.6364 155.007 27.5245C155.816 26.531 156.222 25.705 156.222 25.0443C156.222 24.8027 156.192 24.6843 156.131 24.6843L155.905 24.8199C155.246 25.2119 154.54 25.7839 153.79 26.5334C152.86 27.4654 152.124 28.4737 151.583 29.5561C151.374 29.9776 151.268 30.2636 151.268 30.414H151.313L151.318 30.4116Z" fill="white"/>
<path d="M63.8641 0.00246544C63.4018 0.039447 52.6093 0.310645 49.257 3.67104C45.9514 7.02157 45.6538 12.2014 48.5314 15.4756C50.6712 9.77299 59.2845 5.60147 59.2845 5.60147C52.8061 9.41057 50.5261 14.8838 49.9235 16.6836C53.2685 18.9839 57.6489 18.651 60.9742 15.4139C64.329 12.093 64.634 1.23518 64.634 0.771682C64.57 0.298318 64.3093 0.0493088 63.8617 0L63.8641 0.00246544Z" fill="white"/>
</svg>
