<svg width="193" height="138" viewBox="0 0 193 138" fill="none" xmlns="http://www.w3.org/2000/svg">
<path fill-rule="evenodd" clip-rule="evenodd" d="M8.43717 0.208128C11.0844 0.994121 12.5932 3.77728 11.8072 6.42448C6.6148 23.9123 13.1273 38.6141 25.5663 49.6172C36.5585 59.3405 51.955 65.8813 66.9702 68.1453C66.0981 62.4009 65.9209 56.6342 66.5849 51.0491C68.7904 32.4989 78.3053 17.8226 93.945 7.73507C102.211 2.40385 112.245 -0.350395 120.73 1.83607C125.095 2.96115 129.033 5.41193 131.809 9.41657C134.554 13.3769 135.89 18.4607 135.838 24.4365C135.73 36.6524 129.193 49.3891 120.343 59.2325C111.49 69.0794 99.5108 76.9366 87.426 78.4679C84.9814 78.7777 82.4794 78.9556 79.9402 79.0079C85.6841 95.647 97.386 110.897 110.964 118.304C126.604 126.836 150.294 129.873 167.172 123.858C170.567 122.648 174.457 120.307 177.428 117.31C180.432 114.279 182.005 111.101 182.005 108.185C182.005 105.424 184.244 103.185 187.005 103.185C189.767 103.185 192.005 105.424 192.005 108.185C192.005 114.712 188.569 120.275 184.529 124.35C180.456 128.459 175.269 131.588 170.529 133.277C150.586 140.385 123.935 136.771 106.175 127.083C88.9825 117.704 75.1805 98.5246 69.2912 78.5268C51.411 76.595 32.4914 69.0937 18.9408 57.1073C4.31653 44.1713 -4.33065 25.6433 2.22082 3.57815C3.00682 0.930944 5.78997 -0.577865 8.43717 0.208128ZM77.2624 69.016C80.3373 69.0635 83.3211 68.9081 86.1689 68.5473C95.0886 67.417 105.037 61.3002 112.906 52.5468C120.779 43.7898 125.759 33.2999 125.838 24.3486C125.877 19.8816 124.876 16.9688 123.59 15.1129C122.334 13.3013 120.548 12.1161 118.234 11.5197C113.358 10.2631 106.21 11.7238 99.3653 16.1387C86.1277 24.6768 78.3545 36.7577 76.515 52.2297C75.8819 57.5548 76.1643 63.2382 77.2624 69.016Z" fill="#EE2AF2"/>
</svg>
