<svg width="155" height="155" viewBox="0 0 155 155" fill="none" xmlns="http://www.w3.org/2000/svg">
<path d="M14.7967 7.39834C14.7967 11.4843 11.4843 14.7967 7.39834 14.7967C3.31235 14.7967 0 11.4843 0 7.39834C0 3.31235 3.31235 0 7.39834 0C11.4843 0 14.7967 3.31235 14.7967 7.39834Z" fill="#351D63"/>
<path d="M49.8472 7.39834C49.8472 11.4843 46.5348 14.7967 42.4488 14.7967C38.3628 14.7967 35.0505 11.4843 35.0505 7.39834C35.0505 3.31235 38.3628 0 42.4488 0C46.5348 0 49.8472 3.31235 49.8472 7.39834Z" fill="#351D63"/>
<path d="M84.8981 7.39834C84.8981 11.4843 81.5857 14.7967 77.4997 14.7967C73.4137 14.7967 70.1014 11.4843 70.1014 7.39834C70.1014 3.31235 73.4137 0 77.4997 0C81.5857 0 84.8981 3.31235 84.8981 7.39834Z" fill="#351D63"/>
<path d="M119.949 7.39834C119.949 11.4843 116.637 14.7967 112.551 14.7967C108.465 14.7967 105.152 11.4843 105.152 7.39834C105.152 3.31235 108.465 0 112.551 0C116.637 0 119.949 3.31235 119.949 7.39834Z" fill="#351D63"/>
<path d="M155 7.39834C155 11.4843 151.688 14.7967 147.602 14.7967C143.516 14.7967 140.203 11.4843 140.203 7.39834C140.203 3.31235 143.516 0 147.602 0C151.688 0 155 3.31235 155 7.39834Z" fill="#351D63"/>
<path d="M14.7967 42.4493C14.7967 46.5352 11.4843 49.8476 7.39834 49.8476C3.31235 49.8476 0 46.5352 0 42.4493C0 38.3633 3.31235 35.0509 7.39834 35.0509C11.4843 35.0509 14.7967 38.3633 14.7967 42.4493Z" fill="#351D63"/>
<path d="M49.8472 42.4493C49.8472 46.5352 46.5348 49.8476 42.4488 49.8476C38.3628 49.8476 35.0505 46.5352 35.0505 42.4493C35.0505 38.3633 38.3628 35.0509 42.4488 35.0509C46.5348 35.0509 49.8472 38.3633 49.8472 42.4493Z" fill="#351D63"/>
<path d="M84.8981 42.4493C84.8981 46.5352 81.5857 49.8476 77.4997 49.8476C73.4137 49.8476 70.1014 46.5352 70.1014 42.4493C70.1014 38.3633 73.4137 35.0509 77.4997 35.0509C81.5857 35.0509 84.8981 38.3633 84.8981 42.4493Z" fill="#351D63"/>
<path d="M119.949 42.4493C119.949 46.5352 116.637 49.8476 112.551 49.8476C108.465 49.8476 105.152 46.5352 105.152 42.4493C105.152 38.3633 108.465 35.0509 112.551 35.0509C116.637 35.0509 119.949 38.3633 119.949 42.4493Z" fill="#351D63"/>
<path d="M155 42.4493C155 46.5352 151.688 49.8476 147.602 49.8476C143.516 49.8476 140.203 46.5352 140.203 42.4493C140.203 38.3633 143.516 35.0509 147.602 35.0509C151.688 35.0509 155 38.3633 155 42.4493Z" fill="#351D63"/>
<path d="M14.7967 77.5002C14.7967 81.5862 11.4843 84.8985 7.39834 84.8985C3.31235 84.8985 0 81.5862 0 77.5002C0 73.4142 3.31235 70.1018 7.39834 70.1018C11.4843 70.1018 14.7967 73.4142 14.7967 77.5002Z" fill="#351D63"/>
<path d="M49.8472 77.5002C49.8472 81.5862 46.5348 84.8985 42.4488 84.8985C38.3628 84.8985 35.0505 81.5862 35.0505 77.5002C35.0505 73.4142 38.3628 70.1018 42.4488 70.1018C46.5348 70.1018 49.8472 73.4142 49.8472 77.5002Z" fill="#351D63"/>
<path d="M84.8981 77.5002C84.8981 81.5862 81.5857 84.8985 77.4997 84.8985C73.4137 84.8985 70.1014 81.5862 70.1014 77.5002C70.1014 73.4142 73.4137 70.1018 77.4997 70.1018C81.5857 70.1018 84.8981 73.4142 84.8981 77.5002Z" fill="#351D63"/>
<path d="M119.949 77.5002C119.949 81.5862 116.637 84.8985 112.551 84.8985C108.465 84.8985 105.152 81.5862 105.152 77.5002C105.152 73.4142 108.465 70.1018 112.551 70.1018C116.637 70.1018 119.949 73.4142 119.949 77.5002Z" fill="#351D63"/>
<path d="M155 77.5002C155 81.5862 151.688 84.8985 147.602 84.8985C143.516 84.8985 140.203 81.5862 140.203 77.5002C140.203 73.4142 143.516 70.1018 147.602 70.1018C151.688 70.1018 155 73.4142 155 77.5002Z" fill="#351D63"/>
<path d="M14.7967 112.551C14.7967 116.637 11.4843 119.949 7.39834 119.949C3.31235 119.949 0 116.637 0 112.551C0 108.465 3.31235 105.152 7.39834 105.152C11.4843 105.152 14.7967 108.465 14.7967 112.551Z" fill="#351D63"/>
<path d="M49.8472 112.551C49.8472 116.637 46.5348 119.949 42.4488 119.949C38.3628 119.949 35.0505 116.637 35.0505 112.551C35.0505 108.465 38.3628 105.152 42.4488 105.152C46.5348 105.152 49.8472 108.465 49.8472 112.551Z" fill="#351D63"/>
<path d="M84.8981 112.551C84.8981 116.637 81.5857 119.949 77.4997 119.949C73.4137 119.949 70.1014 116.637 70.1014 112.551C70.1014 108.465 73.4137 105.152 77.4997 105.152C81.5857 105.152 84.8981 108.465 84.8981 112.551Z" fill="#351D63"/>
<path d="M119.949 112.551C119.949 116.637 116.637 119.949 112.551 119.949C108.465 119.949 105.152 116.637 105.152 112.551C105.152 108.465 108.465 105.152 112.551 105.152C116.637 105.152 119.949 108.465 119.949 112.551Z" fill="#351D63"/>
<path d="M155 112.551C155 116.637 151.688 119.949 147.602 119.949C143.516 119.949 140.203 116.637 140.203 112.551C140.203 108.465 143.516 105.152 147.602 105.152C151.688 105.152 155 108.465 155 112.551Z" fill="#351D63"/>
<path d="M14.7967 147.602C14.7967 151.688 11.4843 155 7.39834 155C3.31235 155 0 151.688 0 147.602C0 143.516 3.31235 140.203 7.39834 140.203C11.4843 140.203 14.7967 143.516 14.7967 147.602Z" fill="#351D63"/>
<path d="M49.8472 147.602C49.8472 151.688 46.5348 155 42.4488 155C38.3628 155 35.0505 151.688 35.0505 147.602C35.0505 143.516 38.3628 140.203 42.4488 140.203C46.5348 140.203 49.8472 143.516 49.8472 147.602Z" fill="#351D63"/>
<path d="M84.8981 147.602C84.8981 151.688 81.5857 155 77.4997 155C73.4137 155 70.1014 151.688 70.1014 147.602C70.1014 143.516 73.4137 140.203 77.4997 140.203C81.5857 140.203 84.8981 143.516 84.8981 147.602Z" fill="#351D63"/>
<path d="M119.949 147.602C119.949 151.688 116.637 155 112.551 155C108.465 155 105.152 151.688 105.152 147.602C105.152 143.516 108.465 140.203 112.551 140.203C116.637 140.203 119.949 143.516 119.949 147.602Z" fill="#351D63"/>
<path d="M155 147.602C155 151.688 151.688 155 147.602 155C143.516 155 140.203 151.688 140.203 147.602C140.203 143.516 143.516 140.203 147.602 140.203C151.688 140.203 155 143.516 155 147.602Z" fill="#351D63"/>
</svg>
