<svg width="325" height="25" viewBox="0 0 325 25" fill="none" xmlns="http://www.w3.org/2000/svg">
<path fill-rule="evenodd" clip-rule="evenodd" d="M165.328 10.9395C126.146 10.9395 86.1475 12.2055 47.3594 16.6934C36.5912 17.9393 26.1711 19.2392 15.7903 21.3984C12.4906 22.0847 9.31136 22.5136 5.77002 22.5136C3.0086 22.5136 0.77002 20.275 0.77002 17.5136C0.77002 14.7522 3.0086 12.5136 5.77002 12.5136C8.45321 12.5136 10.929 12.1955 13.7539 11.6079C24.6167 9.34847 35.4318 8.00674 46.2101 6.75966C85.5346 2.20972 125.958 0.939453 165.328 0.939453C204.304 0.939453 243.343 3.24961 282.061 7.39799C291.88 8.44995 302.015 9.54667 311.978 11.4041C314.068 11.7939 315.916 12.516 317.308 13.06L317.356 13.0785C318.881 13.6744 319.886 14.0601 320.906 14.2641C323.614 14.8057 325.37 17.4398 324.828 20.1476C324.287 22.8554 321.653 24.6115 318.945 24.07C317.014 23.6838 315.259 22.9965 313.932 22.477C313.859 22.4484 313.787 22.4204 313.717 22.393C312.24 21.8159 311.203 21.432 310.145 21.2347C300.623 19.4596 290.868 18.3987 280.996 17.3411C242.593 13.2264 203.91 10.9395 165.328 10.9395Z" fill="#A1D161"/>
</svg>
