<svg width="139" height="140" viewBox="0 0 139 140" fill="none" xmlns="http://www.w3.org/2000/svg">
<circle cx="6.81837" cy="7.26271" r="6.62013" fill="#C3B0E8"/>
<circle cx="38.1817" cy="7.26271" r="6.62013" fill="#C3B0E8"/>
<circle cx="69.5469" cy="7.26271" r="6.62013" fill="#C3B0E8"/>
<circle cx="100.91" cy="7.26271" r="6.62013" fill="#C3B0E8"/>
<circle cx="132.272" cy="7.26271" r="6.62013" fill="#C3B0E8"/>
<circle cx="6.81837" cy="38.6265" r="6.62013" fill="#C3B0E8"/>
<circle cx="38.1817" cy="38.6265" r="6.62013" fill="#C3B0E8"/>
<circle cx="69.5469" cy="38.6265" r="6.62013" fill="#C3B0E8"/>
<circle cx="100.91" cy="38.6265" r="6.62013" fill="#C3B0E8"/>
<circle cx="132.272" cy="38.6265" r="6.62013" fill="#C3B0E8"/>
<circle cx="6.81837" cy="69.9912" r="6.62013" fill="#C3B0E8"/>
<circle cx="38.1817" cy="69.9912" r="6.62013" fill="#C3B0E8"/>
<circle cx="69.5469" cy="69.9912" r="6.62013" fill="#C3B0E8"/>
<circle cx="100.91" cy="69.9912" r="6.62013" fill="#C3B0E8"/>
<circle cx="132.272" cy="69.9912" r="6.62013" fill="#C3B0E8"/>
<circle cx="6.81837" cy="101.355" r="6.62013" fill="#C3B0E8"/>
<circle cx="38.1817" cy="101.355" r="6.62013" fill="#C3B0E8"/>
<circle cx="69.5469" cy="101.355" r="6.62013" fill="#C3B0E8"/>
<circle cx="100.91" cy="101.355" r="6.62013" fill="#C3B0E8"/>
<circle cx="132.272" cy="101.355" r="6.62013" fill="#C3B0E8"/>
<circle cx="6.81837" cy="132.718" r="6.62013" fill="#C3B0E8"/>
<circle cx="38.1817" cy="132.718" r="6.62013" fill="#C3B0E8"/>
<circle cx="69.5469" cy="132.718" r="6.62013" fill="#C3B0E8"/>
<circle cx="100.91" cy="132.718" r="6.62013" fill="#C3B0E8"/>
<circle cx="132.272" cy="132.718" r="6.62013" fill="#C3B0E8"/>
</svg>
