<svg width="117" height="46" viewBox="0 0 117 46" fill="none" xmlns="http://www.w3.org/2000/svg">
<path d="M116.475 18.3969C110.679 18.3969 105.9 22.722 105.208 28.3086V20.0377C111.439 19.9894 116.475 14.9458 116.475 8.72909C110.679 8.72909 105.9 13.0542 105.208 18.6396V15.4959C109.165 11.0542 109.009 4.25442 104.737 0C100.466 4.25442 100.31 11.0542 104.267 15.4959V18.6408C103.575 13.0542 98.7959 8.72909 93 8.72909C93 14.9458 98.0367 19.9894 104.267 20.0377V28.3098C103.575 22.7232 98.7959 18.3969 93 18.3969C93 24.6148 98.0367 29.6584 104.267 29.7055V37.9776C103.575 32.391 98.7959 28.0648 93 28.0648C93 34.2815 98.0367 39.3263 104.267 39.3746V44.6007C104.267 45.1201 104.478 45.424 104.737 45.424C104.996 45.424 105.208 45.1201 105.208 44.6007V39.3746C111.439 39.3263 116.475 34.2827 116.475 28.066C110.679 28.066 105.9 32.391 105.208 37.9764V29.7055C111.439 29.6572 116.475 24.6137 116.475 18.3969Z" fill="#AEAEB7"/>
<path d="M16.4571 11.0421L16.1437 11.4609C15.7779 11.9178 15.5298 12.4128 15.3992 12.9459C15.2947 13.479 15.2424 14.2912 15.2424 15.3828V18.6573L14.8506 18.8096L12.813 17.7816C11.533 18.5939 10.0963 19 8.50285 19C5.89061 19 3.81387 18.175 2.27265 16.5251C0.75755 14.8751 0 12.654 0 9.86172C0 6.99332 0.822856 4.72144 2.46857 3.04609C4.1404 1.37074 6.38693 0.533066 9.20815 0.533066C11.0106 0.533066 12.4735 0.875751 13.5967 1.56112C14.7461 2.22111 15.3208 3.09686 15.3208 4.18838C15.3208 5.25451 14.8637 6.09218 13.9494 6.7014C13.0351 7.31062 11.8857 7.61523 10.5012 7.61523C10.8669 7.1837 11.1543 6.72679 11.3633 6.24449C11.5722 5.73681 11.6767 5.08951 11.6767 4.30261C11.6767 3.43955 11.4155 2.75417 10.893 2.24649C10.3706 1.71343 9.71754 1.44689 8.93387 1.44689C7.47101 1.44689 6.2955 2.22111 5.40734 3.76954C4.5453 5.29258 4.11428 7.32331 4.11428 9.86172C4.11428 11.3594 4.33632 12.7047 4.7804 13.8978C5.25061 15.0655 5.89061 15.9793 6.7004 16.6393C7.51019 17.2993 8.43754 17.6293 9.48244 17.6293C10.2661 17.6293 11.0237 17.4896 11.7551 17.2104V13.7836C11.7551 13.1997 11.7028 12.7809 11.5984 12.5271C11.4939 12.2478 11.2979 12.0321 11.0106 11.8798C10.7233 11.7021 10.253 11.5244 9.59999 11.3467L9.83509 10.6232H16.1437L16.4571 11.0421Z" fill="#AEAEB7"/>
<path d="M22.879 16.487C22.879 17.2485 23.1271 17.6293 23.6234 17.6293C24.1198 17.6293 24.603 17.4389 25.0732 17.0581L25.3867 17.4389C24.4724 18.4796 23.3361 19 21.9777 19C21.0634 19 20.3973 18.7969 19.9794 18.3908C19.5614 17.9593 19.3524 17.2866 19.3524 16.3727V2.3988C19.3524 2.04342 19.1826 1.86573 18.843 1.86573H17.5892L17.4716 1.48497C17.9679 1.02806 18.6079 0.672678 19.3916 0.418837C20.2014 0.139612 20.9981 0 21.7818 0C22.1214 0 22.3826 0.0761521 22.5655 0.228456C22.7745 0.355377 22.879 0.545758 22.879 0.799599V16.487Z" fill="#AEAEB7"/>
<path d="M35.8518 15.1924C35.4861 16.3093 34.8461 17.2231 33.9318 17.9339C33.0436 18.6446 32.0902 19 31.0714 19C29.922 19 29.073 18.6446 28.5245 17.9339C27.9759 17.2231 27.7016 16.1316 27.7016 14.6593V8.45291C27.7016 8.09753 27.5318 7.91984 27.1922 7.91984H25.9775L25.86 7.501C26.3824 7.06947 27.0355 6.7141 27.8191 6.43487C28.6028 6.15564 29.3734 6.01603 30.131 6.01603C30.4706 6.01603 30.7318 6.09218 30.9147 6.24449C31.1236 6.39679 31.2281 6.59987 31.2281 6.85371V14.4689C31.2281 15.332 31.3587 16.0047 31.62 16.487C31.8812 16.9439 32.2469 17.1723 32.7171 17.1723C33.6836 17.1723 34.4542 16.6012 35.0289 15.4589C35.6298 14.2912 35.9302 12.7809 35.9302 10.9279C35.9302 9.93788 35.8518 9.17635 35.6951 8.64329C35.5644 8.08484 35.3163 7.60254 34.9506 7.19639L34.5979 6.77756L34.9114 6.43487L39.4175 6.09218V16.487C39.4175 17.2485 39.6526 17.6293 40.1228 17.6293C40.6191 17.6293 41.1024 17.4389 41.5726 17.0581L41.8861 17.4389C40.9718 18.4796 39.8355 19 38.4771 19C37.4844 19 36.7922 18.7208 36.4004 18.1623C36.0346 17.6039 35.8518 16.6139 35.8518 15.1924Z" fill="#AEAEB7"/>
<path d="M47.3996 19C46.3286 19 45.558 18.7715 45.0878 18.3146C44.6176 17.8323 44.3825 17.0581 44.3825 15.992V7.91984H42.4233C42.4233 7.48831 42.4494 7.20908 42.5017 7.08216C42.5539 6.95524 42.7107 6.85371 42.9719 6.77756C43.8339 6.5491 44.5131 6.19372 45.0094 5.71142C45.5058 5.22912 45.9107 4.53106 46.2241 3.61723C46.3025 3.33801 46.4331 3.17301 46.616 3.12224C46.7988 3.04609 47.2429 3.00802 47.9482 3.00802V6.43487H51.1613C51.1613 6.76486 51.109 7.06947 51.0045 7.3487C50.9 7.60254 50.7564 7.79292 50.5735 7.91984H47.9482V16.487C47.9482 17.2485 48.2747 17.6293 48.9278 17.6293C49.2151 17.6293 49.5286 17.5404 49.8682 17.3627C50.2339 17.185 50.5604 16.9439 50.8478 16.6393L51.1613 17.02C50.038 18.34 48.7841 19 47.3996 19Z" fill="#AEAEB7"/>
<path d="M59.8328 17.7435C60.5903 17.7435 61.2565 17.6166 61.8311 17.3627C62.4058 17.0835 62.9675 16.6266 63.516 15.992L63.9862 16.3347C63.3854 17.1723 62.6148 17.8323 61.6744 18.3146C60.7601 18.7715 59.7544 19 58.6573 19C57.4556 19 56.3716 18.7208 55.405 18.1623C54.4646 17.6039 53.7201 16.8424 53.1716 15.8778C52.623 14.8878 52.3487 13.7709 52.3487 12.5271C52.3487 10.5471 52.9626 8.97328 54.1903 7.80561C55.4442 6.61256 57.103 6.01603 59.1667 6.01603C60.6295 6.01603 61.8181 6.35872 62.7324 7.04409C63.6728 7.70407 64.143 8.56713 64.143 9.63327C64.143 10.8517 63.6075 11.829 62.5365 12.5651C61.4916 13.2759 60.0548 13.6313 58.2263 13.6313C57.4948 13.6313 56.8287 13.5805 56.2279 13.479C56.3585 14.7989 56.7503 15.8397 57.4034 16.6012C58.0565 17.3627 58.8663 17.7435 59.8328 17.7435ZM58.7356 6.92986C57.9258 6.92986 57.2858 7.41216 56.8156 8.37675C56.3716 9.31597 56.1495 10.6359 56.1495 12.3367V12.9459C56.4369 12.9459 56.7895 12.9205 57.2075 12.8697C58.3046 12.7428 59.1405 12.4001 59.7152 11.8417C60.316 11.2578 60.6165 10.4963 60.6165 9.55711C60.6165 8.79559 60.4336 8.17368 60.0679 7.69138C59.7283 7.1837 59.2842 6.92986 58.7356 6.92986Z" fill="#AEAEB7"/>
<path d="M79.4922 16.487C79.4922 17.2485 79.7404 17.6293 80.2367 17.6293C80.7331 17.6293 81.2163 17.4389 81.6865 17.0581L82 17.4389C81.0335 18.4796 79.8971 19 78.591 19C77.6506 19 76.9714 18.7715 76.5535 18.3146C76.1616 17.8323 75.9657 17.0581 75.9657 15.992V10.1663C75.9657 8.69406 75.4825 7.95792 74.5159 7.95792C73.5755 7.95792 72.8049 8.57983 72.2041 9.82365C71.6294 11.0675 71.3421 12.6921 71.3421 14.6974C71.3421 15.4589 71.4074 16.0808 71.538 16.5631C71.6686 17.02 71.8776 17.4643 72.1649 17.8958L72.4784 18.2766L72.1649 18.6573H66.4833L66.2482 18.01L66.7968 17.8958C67.2147 17.7943 67.489 17.642 67.6196 17.4389C67.7502 17.2104 67.8155 16.7789 67.8155 16.1443V8.71944C67.8155 8.23714 67.6457 7.99599 67.3061 7.99599H66.0523L65.9347 7.57715C66.4572 7.14562 67.1102 6.79025 67.8939 6.51102C68.6776 6.2318 69.4612 6.09218 70.2449 6.09218C70.5845 6.09218 70.8457 6.16834 71.0286 6.32064C71.2376 6.47295 71.3421 6.67602 71.3421 6.92986V10.2044C71.7078 9.01136 72.3608 8.02138 73.3012 7.23447C74.2416 6.42218 75.2343 6.01603 76.2792 6.01603C77.4025 6.01603 78.2122 6.37141 78.7086 7.08216C79.231 7.79292 79.4922 8.92251 79.4922 10.4709V16.487Z" fill="#AEAEB7"/>
<path d="M30 43.9699C30.6481 43.7918 31.1148 43.6265 31.3999 43.4739C31.6851 43.2958 31.8795 43.0669 31.9832 42.7871C32.0869 42.5074 32.1388 42.075 32.1388 41.49V31.8373C32.1388 30.8199 32.061 30.0187 31.9055 29.4337C31.7499 28.8487 31.4518 28.2637 31.0111 27.6787L30.7 27.259L31.0111 26.8394H39.1774C40.6032 26.8394 41.5624 26.674 42.055 26.3434L42.5217 26L42.9105 26.3434V31.1124L42.1328 31.3795C41.6661 30.006 41.1995 29.0649 40.7328 28.5562C40.2921 28.0475 39.644 27.7932 38.7885 27.7932H37.5052C36.8312 27.7932 36.3905 27.9203 36.1831 28.1747C35.9757 28.4036 35.872 28.9123 35.872 29.7008V35.4237H38.6329C39.644 35.4237 40.3051 35.0422 40.6162 34.2791L40.8106 33.745L41.3162 34.012V38.2851L40.4606 38.5904L40.3051 37.7892C40.2014 37.2296 39.9681 36.8608 39.6051 36.6827C39.2422 36.4793 38.5552 36.3775 37.5441 36.3775H35.872V39.6586C35.872 40.6506 35.9497 41.4518 36.1053 42.0622C36.2868 42.6473 36.5979 43.2323 37.0386 43.8173L37.3497 44.2751L37.0386 44.6566H30.2722L30 43.9699Z" fill="#AEAEB7"/>
<path d="M53.0248 31.99C53.8544 31.99 54.5285 32.2316 55.047 32.7149C55.5655 33.1727 55.8247 33.7704 55.8247 34.508C55.8247 35.1948 55.6173 35.7544 55.2025 36.1867C54.7877 36.5937 54.2433 36.7972 53.5692 36.7972C53.0508 36.7972 52.5711 36.6954 52.1304 36.492C52.5971 36.1104 52.8304 35.5382 52.8304 34.7751C52.8304 34.419 52.7526 34.1392 52.5971 33.9357C52.4415 33.7323 52.2341 33.6305 51.9749 33.6305C51.3527 33.6305 50.8342 34.2537 50.4194 35.5C50.0046 36.7209 49.7972 38.247 49.7972 40.0783C49.7972 41.0194 49.849 41.7697 49.9527 42.3293C50.0824 42.8889 50.2898 43.4103 50.5749 43.8936L50.886 44.2751L50.5749 44.6566H44.9363L44.703 44.008L45.2474 43.8936C45.6622 43.7918 45.9344 43.6392 46.064 43.4357C46.1937 43.2068 46.2585 42.7744 46.2585 42.1386V34.6988C46.2585 34.2155 46.09 33.9739 45.7529 33.9739H44.5474L44.3919 33.5542C44.8845 33.1218 45.4937 32.7657 46.2196 32.4859C46.9714 32.2062 47.7103 32.0663 48.4361 32.0663C48.7732 32.0663 49.0454 32.1426 49.2528 32.2952C49.4602 32.4478 49.5639 32.6513 49.5639 32.9056V35.6908H49.6805C50.225 33.2236 51.3397 31.99 53.0248 31.99Z" fill="#AEAEB7"/>
<path d="M64.317 43.741C65.0688 43.741 65.7299 43.6138 66.3002 43.3594C66.8706 43.0797 67.428 42.6218 67.9724 41.9859L68.439 42.3293C67.8428 43.1687 67.078 43.83 66.1447 44.3133C65.2373 44.7711 64.2392 45 63.1504 45C61.9578 45 60.882 44.7202 59.9227 44.1606C58.9894 43.6011 58.2506 42.838 57.7062 41.8715C57.1618 40.8795 56.8895 39.7604 56.8895 38.5141C56.8895 36.5301 57.4988 34.9531 58.7172 33.7831C59.9616 32.5877 61.6078 31.99 63.6559 31.99C65.1077 31.99 66.2873 32.3333 67.1946 33.0201C68.1279 33.6814 68.5946 34.5462 68.5946 35.6145C68.5946 36.8353 68.0631 37.8146 67.0002 38.5522C65.9632 39.2644 64.5373 39.6205 62.7226 39.6205C61.9967 39.6205 61.3356 39.5696 60.7394 39.4679C60.869 40.7905 61.2579 41.8333 61.906 42.5964C62.5541 43.3594 63.3578 43.741 64.317 43.741ZM63.2281 32.9056C62.4245 32.9056 61.7893 33.3889 61.3227 34.3554C60.882 35.2965 60.6616 36.6191 60.6616 38.3233V38.9337C60.9468 38.9337 61.2968 38.9083 61.7115 38.8574C62.8004 38.7303 63.63 38.3869 64.2003 37.8273C64.7966 37.2423 65.0947 36.4792 65.0947 35.5382C65.0947 34.7751 64.9133 34.1519 64.5503 33.6687C64.2133 33.16 63.7726 32.9056 63.2281 32.9056Z" fill="#AEAEB7"/>
<path d="M77.7224 43.741C78.4742 43.741 79.1353 43.6138 79.7057 43.3594C80.276 43.0797 80.8334 42.6218 81.3778 41.9859L81.8445 42.3293C81.2482 43.1687 80.4834 43.83 79.5501 44.3133C78.6427 44.7711 77.6446 45 76.5558 45C75.3633 45 74.2874 44.7202 73.3282 44.1606C72.3949 43.6011 71.656 42.838 71.1116 41.8715C70.5672 40.8795 70.295 39.7604 70.295 38.5141C70.295 36.5301 70.9042 34.9531 72.1227 33.7831C73.3671 32.5877 75.0133 31.99 77.0613 31.99C78.5131 31.99 79.6927 32.3333 80.6001 33.0201C81.5334 33.6814 82 34.5462 82 35.6145C82 36.8353 81.4685 37.8146 80.4056 38.5522C79.3686 39.2644 77.9428 39.6205 76.128 39.6205C75.4021 39.6205 74.7411 39.5696 74.1448 39.4679C74.2744 40.7905 74.6633 41.8333 75.3114 42.5964C75.9595 43.3594 76.7632 43.741 77.7224 43.741ZM76.6336 32.9056C75.8299 32.9056 75.1947 33.3889 74.7281 34.3554C74.2874 35.2965 74.067 36.6191 74.067 38.3233V38.9337C74.3522 38.9337 74.7022 38.9083 75.117 38.8574C76.2058 38.7303 77.0354 38.3869 77.6058 37.8273C78.202 37.2423 78.5002 36.4792 78.5002 35.5382C78.5002 34.7751 78.3187 34.1519 77.9557 33.6687C77.6187 33.16 77.178 32.9056 76.6336 32.9056Z" fill="#AEAEB7"/>
</svg>
