<svg width="87" height="76" viewBox="0 0 87 76" fill="none" xmlns="http://www.w3.org/2000/svg">
<path d="M77.7605 21.5628L75.5355 22.0495C77.8933 26.7921 79.2141 32.1276 79.2141 37.7725C79.2141 38.0113 79.2141 38.2504 79.2053 38.4892L81.4299 37.9937V37.7725C81.4299 31.9769 80.1092 26.4734 77.7605 21.5628ZM79.1965 38.9493C79.1698 39.6306 79.1343 40.3119 79.0634 40.9844C77.4412 59.0964 62.1513 73.333 43.5906 73.333C30.4898 73.333 19.0203 66.2368 12.8333 55.6898C12.4877 55.106 12.1596 54.513 11.8582 53.9025L9.62447 54.398C9.91706 55.0085 10.2361 55.6102 10.5729 56.1941C17.0522 67.732 29.4262 75.5449 43.5906 75.5449C63.543 75.5449 79.9409 60.052 81.3326 40.4799C81.3857 39.8074 81.4123 39.1348 81.4211 38.4538L79.1962 38.9493H79.1965ZM7.96711 37.7725C7.96711 37.5336 7.96711 37.2946 7.97591 37.0557L5.75098 37.5512V37.7725C5.75098 43.5768 7.07175 49.0716 9.42071 53.9909L11.6456 53.4955C9.28789 48.7529 7.96711 43.4173 7.96711 37.7725ZM76.6171 19.3596C70.1375 7.81291 57.7638 0 43.5906 0C23.6382 0 7.24004 15.493 5.8486 35.065C5.79552 35.7376 5.76885 36.4101 5.76005 37.0911L7.98499 36.5957C8.01166 35.9144 8.04714 35.233 8.11808 34.5605C9.7397 16.4488 25.0296 2.21195 43.5906 2.21195C56.6914 2.21195 68.1699 9.31691 74.3479 19.8639C74.6935 20.4477 75.0216 21.0407 75.3318 21.6424L77.5567 21.1469C77.2641 20.5452 76.9451 19.9435 76.6171 19.3596Z" fill="#AEAEB7"/>
<path d="M64.5896 24.4825L62.746 24.8896C65.2369 28.5704 66.6993 33.0121 66.6993 37.7725C66.6993 38.9847 66.6017 40.1703 66.4246 41.3296L68.2684 40.9225C68.4015 39.8873 68.4721 38.8431 68.4721 37.7725C68.4721 32.8883 67.0452 28.3228 64.5898 24.4827L64.5896 24.4825ZM66.3358 41.8072C66.2205 42.5239 66.0522 43.2228 65.857 43.9132C63.1624 53.6638 54.201 60.8396 43.5911 60.8396C36.58 60.8396 30.2866 57.6985 26.0586 52.7525C25.5711 52.204 25.1281 51.6377 24.7203 51.0448L22.8413 51.4606C23.2312 52.0536 23.6478 52.6287 24.1087 53.1859C28.6559 58.9194 35.7025 62.609 43.5911 62.609C55.3444 62.609 65.2099 54.4423 67.7981 43.4882C67.9664 42.7981 68.1083 42.099 68.206 41.3913L66.3358 41.8072ZM20.4923 37.7725C20.4923 36.5603 20.5899 35.3748 20.767 34.2155L18.9235 34.6226C18.7904 35.6578 18.7197 36.702 18.7197 37.7725C18.7197 42.6568 20.1378 47.2223 22.5844 51.0623L24.4458 50.6553C21.9462 46.9744 20.4926 42.5327 20.4926 37.7723L20.4923 37.7725ZM63.0829 22.368C58.5269 16.6344 51.4803 12.9448 43.5914 12.9448C31.8381 12.9448 21.9726 21.1204 19.3844 32.0656C19.2161 32.7469 19.083 33.4458 18.9856 34.1538L20.8558 33.7379C20.9711 33.0212 21.1306 32.3223 21.3255 31.6319C24.0289 21.8813 32.9815 14.7143 43.5914 14.7143C50.6028 14.7143 56.8959 17.8464 61.133 22.7926C61.6117 23.3411 62.0547 23.9074 62.4625 24.5003L64.3327 24.0844C63.9428 23.4915 63.5262 22.9164 63.0829 22.368Z" fill="#AEAEB7"/>
<path d="M74.7111 22.2356L74.2591 22.333C76.6168 26.9781 77.9464 32.2253 77.9464 37.773C77.9464 38.1093 77.9376 38.4365 77.9288 38.7727L78.3809 38.6753C78.3897 38.3744 78.3897 38.0736 78.3897 37.7727C78.3897 32.1896 77.0689 26.9161 74.7111 22.2356ZM77.9109 39.2328C77.8842 39.9141 77.84 40.5954 77.769 41.268C76.014 58.5482 61.3533 72.0683 43.5903 72.0683C31.1014 72.0683 20.1456 65.3792 14.136 55.4073C13.7815 54.8235 13.4447 54.2306 13.1345 53.6201L12.6824 53.7175C12.9926 54.328 13.3206 54.9209 13.6751 55.5048C19.7469 65.6801 30.8886 72.5108 43.5903 72.5108C61.6283 72.5108 76.5104 58.7343 78.2299 41.1708C78.292 40.4983 78.3363 39.8169 78.363 39.1356L77.9109 39.2331V39.2328ZM9.2343 37.7727C9.2343 37.4364 9.2431 37.1092 9.2519 36.773L8.79982 36.8704C8.79102 37.1713 8.79102 37.4721 8.79102 37.773C8.79102 43.3561 10.1118 48.6296 12.4695 53.3101L12.9216 53.2127C10.5639 48.5676 9.2343 43.3204 9.2343 37.7727ZM73.5056 20.05C67.4341 9.86589 56.3012 3.03516 43.5906 3.03516C25.553 3.03516 10.6706 16.8116 8.95106 34.3752C8.88891 35.0477 8.84464 35.729 8.81796 36.4104L9.27005 36.3129C9.29672 35.6316 9.34099 34.9503 9.41194 34.2777C11.1669 17.0063 25.8274 3.47766 43.5906 3.47766C56.0798 3.47766 67.0354 10.1668 73.0538 20.1474C73.3994 20.7313 73.7363 21.3242 74.0465 21.9259L74.5074 21.8285C74.1884 21.2268 73.8603 20.6341 73.5059 20.05H73.5056Z" fill="#AEAEB7"/>
<path d="M5.75143 37.7721V37.5508L4.6259 37.7987C3.61531 38.0199 2.97734 39.0285 3.19898 40.0373L6.05309 52.814C6.27473 53.8228 7.28504 54.4687 8.29563 54.2384L9.42116 53.9908C7.0722 49.0712 5.75143 43.5764 5.75143 37.7723V37.7721ZM62.7457 24.8891L20.7669 34.215L18.9234 34.6221L9.25287 36.7723L8.80078 36.8698L7.97637 37.0556L5.75143 37.5511L4.6259 37.799C3.61531 38.0202 2.97734 39.0287 3.19898 40.0375L6.05309 52.8143C6.27473 53.8231 7.28504 54.469 8.29563 54.2387L9.42116 53.9911L11.6461 53.4956L12.4705 53.3098L12.9226 53.2123L22.5841 51.0621L24.4455 50.655L66.4242 41.3291C66.6016 40.1698 66.6989 38.9843 66.6989 37.7721C66.6989 33.0119 65.2365 28.5702 62.7457 24.8891ZM61.1326 22.7921L21.3254 31.6314L19.3843 32.0649L9.41263 34.2768C9.34169 34.9493 9.29741 35.6307 9.27074 36.312L18.9856 34.153L20.8558 33.7371L62.4625 24.4998C62.0546 23.9069 61.6116 23.3406 61.1329 22.7921H61.1326ZM62.7457 24.8891L20.7669 34.215L18.9234 34.6221L9.25287 36.7723L8.80078 36.8698L7.97637 37.0556L5.75143 37.5511L4.6259 37.799C3.61531 38.0202 2.97734 39.0287 3.19898 40.0375L6.05309 52.8143C6.27473 53.8231 7.28504 54.469 8.29563 54.2387L9.42116 53.9911L11.6461 53.4956L12.4705 53.3098L12.9226 53.2123L22.5841 51.0621L24.4455 50.655L66.4242 41.3291C66.6016 40.1698 66.6989 38.9843 66.6989 37.7721C66.6989 33.0119 65.2365 28.5702 62.7457 24.8891ZM64.5892 24.482L62.7457 24.8891L20.7669 34.215L18.9234 34.6221L9.25287 36.7723L8.80078 36.8698L7.97637 37.0556L5.75143 37.5511L4.6259 37.799C3.61531 38.0202 2.97734 39.0287 3.19898 40.0375L6.05309 52.8143C6.27473 53.8231 7.28504 54.469 8.29563 54.2387L9.42116 53.9911L11.6461 53.4956L12.4705 53.3098L12.9226 53.2123L22.5841 51.0621L24.4455 50.655L66.4242 41.3291L68.268 40.922C68.4011 39.8868 68.4718 38.8426 68.4718 37.7721C68.4718 32.8878 67.0449 28.3223 64.5895 24.4823L64.5892 24.482ZM61.1323 22.7921L21.3252 31.6314L19.384 32.0649L9.41236 34.2768C9.34141 34.9493 9.29714 35.6307 9.27046 36.312L18.9853 34.153L20.8555 33.7371L62.4622 24.4998C62.0544 23.9069 61.6114 23.3406 61.1326 22.7921H61.1323ZM74.2595 22.3321L64.5889 24.4823L62.7454 24.8893L20.7667 34.2153L18.9231 34.6224L9.25259 36.7726L8.80051 36.87L7.97609 37.0559L5.75115 37.5514L4.62562 37.7992C3.61504 38.0205 2.97706 39.029 3.1987 40.0378L6.05282 52.8146C6.27446 53.8234 7.28477 54.4693 8.29535 54.239L9.42088 53.9914L11.6458 53.4959L12.4702 53.31L12.9223 53.2126L22.5838 51.0624L24.4452 50.6553L66.4239 41.3293L68.2677 40.9223L77.9292 38.7721C77.938 38.4358 77.9468 38.1086 77.9468 37.7723C77.9468 32.2246 76.6172 26.9775 74.2595 22.3324V22.3321ZM73.0539 20.1468L63.0823 22.3678L61.1323 22.7924L21.3252 31.6317L19.384 32.0651L9.41236 34.2771C9.34141 34.9496 9.29714 35.6309 9.27046 36.3122L18.9853 34.1533L20.8555 33.7374L62.4622 24.5001L64.3324 24.0842L74.0472 21.9253C73.737 21.3236 73.4001 20.7306 73.0545 20.1468H73.0539ZM75.5357 22.0491L74.7113 22.2349L74.2592 22.3324L64.5887 24.4825L62.7451 24.8896L20.7664 34.2156L18.9229 34.6227L9.25231 36.7729L8.80023 36.8703L7.97582 37.0562L5.75088 37.5516L4.62535 37.7995C3.61476 38.0208 2.97679 39.0293 3.19843 40.0381L6.05254 52.8148C6.27418 53.8236 7.28449 54.4695 8.29508 54.2392L9.42061 53.9916L11.6455 53.4961L12.47 53.3103L12.922 53.2129L22.5835 51.0627L24.4449 50.6556L66.4237 41.3296L68.2675 40.9225L77.9289 38.7723L78.381 38.6749L79.2054 38.4891C79.2142 38.2502 79.2142 38.0112 79.2142 37.7723C79.2142 32.1272 77.8935 26.7919 75.5357 22.0493V22.0491ZM73.0539 20.1468L63.0823 22.3678L61.1323 22.7924L21.3252 31.6317L19.384 32.0651L9.41236 34.2771C9.34141 34.9496 9.29714 35.6309 9.27046 36.3122L18.9853 34.1533L20.8555 33.7374L62.4622 24.5001L64.3324 24.0842L74.0472 21.9253C73.737 21.3236 73.4001 20.7306 73.0545 20.1468H73.0539ZM83.9828 35.5071L81.1375 22.7304C80.9071 21.7216 79.9056 21.0847 78.895 21.306L77.7604 21.5626C80.1093 26.4732 81.4298 31.977 81.4298 37.7723V37.9936L82.5556 37.746C83.5662 37.5247 84.2042 36.5162 83.9828 35.5074V35.5071ZM75.5357 22.0491L74.7113 22.2349L74.2592 22.3324L64.5887 24.4825L62.7451 24.8896L20.7664 34.2156L18.9229 34.6227L9.25231 36.7729L8.80023 36.8703L7.97582 37.0562L5.75088 37.5516L4.62535 37.7995C3.61476 38.0208 2.97679 39.0293 3.19843 40.0381L6.05254 52.8148C6.27418 53.8236 7.28449 54.4695 8.29508 54.2392L9.42061 53.9916L11.6455 53.4961L12.47 53.3103L12.922 53.2129L22.5835 51.0627L24.4449 50.6556L66.4237 41.3296L68.2675 40.9225L77.9289 38.7723L78.381 38.6749L79.2054 38.4891C79.2142 38.2502 79.2142 38.0112 79.2142 37.7723C79.2142 32.1272 77.8935 26.7919 75.5357 22.0493V22.0491ZM74.348 19.8637L73.506 20.0496L73.0539 20.147L63.0823 22.368L61.1323 22.7927L21.3252 31.632L19.384 32.0654L9.41236 34.2774L8.95148 34.3748L8.11826 34.5606C8.04731 35.2332 8.01184 35.9145 7.98517 36.5958L8.81838 36.41L9.27046 36.3125L18.9853 34.1536L20.8555 33.7377L62.4622 24.5004L64.3324 24.0845L74.0472 21.9255L74.5081 21.8281L75.3325 21.6422C75.0223 21.0405 74.6943 20.4476 74.3486 19.8637H74.348ZM83.9828 35.5071L81.1375 22.7304C80.9071 21.7216 79.9056 21.0847 78.895 21.306L77.7604 21.5626L75.5354 22.0493L74.711 22.2352L74.2589 22.3326L64.5884 24.4828L62.7449 24.8899L20.7661 34.2159L18.9226 34.623L9.25204 36.7731L8.79996 36.8706L7.97554 37.0564L5.7506 37.5519L4.62507 37.7998C3.61449 38.021 2.97651 39.0296 3.19815 40.0384L6.05227 52.8151C6.27391 53.8239 7.28422 54.4698 8.2948 54.2395L9.42033 53.9919L11.6453 53.4964L12.4697 53.3106L12.9218 53.2131L22.5832 51.063L24.4446 50.6559L66.4234 41.3299L68.2672 40.9228L77.9287 38.7726L78.3808 38.6752L79.2052 38.4893L81.4298 37.9939L82.5556 37.7463C83.5662 37.525 84.2042 36.5165 83.9828 35.5077V35.5071ZM74.348 19.8637L73.506 20.0496L73.0539 20.147L63.0823 22.368L61.1323 22.7927L21.3252 31.632L19.384 32.0654L9.41236 34.2774L8.95148 34.3748L8.11826 34.5606C8.04731 35.2332 8.01184 35.9145 7.98517 36.5958L8.81838 36.41L9.27046 36.3125L18.9853 34.1536L20.8555 33.7377L62.4622 24.5004L64.3324 24.0845L74.0472 21.9255L74.5081 21.8281L75.3325 21.6422C75.0223 21.0405 74.6943 20.4476 74.3486 19.8637H74.348ZM68.2053 41.3911L66.3351 41.807L24.7196 51.0443L22.8406 51.4602L13.1349 53.6191C13.4451 54.2296 13.7819 54.8225 14.1364 55.4064L24.1081 53.1854L26.058 52.752L65.8564 43.9127L67.7975 43.488L77.7692 41.267C77.8401 40.5945 77.8844 39.9132 77.9111 39.2319L68.2053 41.3908V41.3911ZM83.9828 35.5071L81.1375 22.7304C80.9071 21.7216 79.9056 21.0847 78.895 21.306L77.7604 21.5626L75.5354 22.0493L74.711 22.2352L74.2589 22.3326L64.5884 24.4828L62.7449 24.8899L20.7661 34.2159L18.9226 34.623L9.25204 36.7731L8.79996 36.8706L7.97554 37.0564L5.7506 37.5519L4.62507 37.7998C3.61449 38.021 2.97651 39.0296 3.19815 40.0384L6.05227 52.8151C6.27391 53.8239 7.28422 54.4698 8.2948 54.2395L9.42033 53.9919L11.6453 53.4964L12.4697 53.3106L12.9218 53.2131L22.5832 51.063L24.4446 50.6559L66.4234 41.3299L68.2672 40.9228L77.9287 38.7726L78.3808 38.6752L79.2052 38.4893L81.4298 37.9939L82.5556 37.7463C83.5662 37.525 84.2042 36.5165 83.9828 35.5077V35.5071ZM74.348 19.8637L73.506 20.0496L73.0539 20.147L63.0823 22.368L61.1323 22.7927L21.3252 31.632L19.384 32.0654L9.41236 34.2774L8.95148 34.3748L8.11826 34.5606C8.04731 35.2332 8.01184 35.9145 7.98517 36.5958L8.81838 36.41L9.27046 36.3125L18.9853 34.1536L20.8555 33.7377L62.4622 24.5004L64.3324 24.0845L74.0472 21.9255L74.5081 21.8281L75.3325 21.6422C75.0223 21.0405 74.6943 20.4476 74.3486 19.8637H74.348ZM83.9828 35.5071L81.1375 22.7304C80.9071 21.7216 79.9056 21.0847 78.895 21.306L77.7604 21.5626L75.5354 22.0493L74.711 22.2352L74.2589 22.3326L64.5884 24.4828L62.7449 24.8899L20.7661 34.2159L18.9226 34.623L9.25204 36.7731L8.79996 36.8706L7.97554 37.0564L5.7506 37.5519L4.62507 37.7998C3.61449 38.021 2.97651 39.0296 3.19815 40.0384L6.05227 52.8151C6.27391 53.8239 7.28422 54.4698 8.2948 54.2395L9.42033 53.9919L11.6453 53.4964L12.4697 53.3106L12.9218 53.2131L22.5832 51.063L24.4446 50.6559L66.4234 41.3299L68.2672 40.9228L77.9287 38.7726L78.3808 38.6752L79.2052 38.4893L81.4298 37.9939L82.5556 37.7463C83.5662 37.525 84.2042 36.5165 83.9828 35.5077V35.5071ZM68.2053 41.3911L66.3351 41.807L24.7196 51.0443L22.8406 51.4602C23.2306 52.0531 23.6472 52.6282 24.1081 53.1854L26.058 52.752L65.8564 43.9127L67.7975 43.488L77.7692 41.267C77.8401 40.5945 77.8844 39.9132 77.9111 39.2319L68.2053 41.3908V41.3911ZM74.348 19.8637L73.506 20.0496L73.0539 20.147L63.0823 22.368L61.1323 22.7927L21.3252 31.632L19.384 32.0654L9.41236 34.2774L8.95148 34.3748L8.11826 34.5606C8.04731 35.2332 8.01184 35.9145 7.98517 36.5958L8.81838 36.41L9.27046 36.3125L18.9853 34.1536L20.8555 33.7377L62.4622 24.5004L64.3324 24.0845L74.0472 21.9255L74.5081 21.8281L75.3325 21.6422C75.0223 21.0405 74.6943 20.4476 74.3486 19.8637H74.348ZM83.9828 35.5071L81.1375 22.7304C80.9071 21.7216 79.9056 21.0847 78.895 21.306L77.7604 21.5626L75.5354 22.0493L74.711 22.2352L74.2589 22.3326L64.5884 24.4828L62.7449 24.8899L20.7661 34.2159L18.9226 34.623L9.25204 36.7731L8.79996 36.8706L7.97554 37.0564L5.7506 37.5519L4.62507 37.7998C3.61449 38.021 2.97651 39.0296 3.19815 40.0384L6.05227 52.8151C6.27391 53.8239 7.28422 54.4698 8.2948 54.2395L9.42033 53.9919L11.6453 53.4964L12.4697 53.3106L12.9218 53.2131L22.5832 51.063L24.4446 50.6559L66.4234 41.3299L68.2672 40.9228L77.9287 38.7726L78.3808 38.6752L79.2052 38.4893L81.4298 37.9939L82.5556 37.7463C83.5662 37.525 84.2042 36.5165 83.9828 35.5077V35.5071ZM68.2053 41.3911L66.3351 41.807L24.7196 51.0443L22.8406 51.4602L13.1349 53.6191C13.4451 54.2296 13.7819 54.8225 14.1364 55.4064L24.1081 53.1854L26.058 52.752L65.8564 43.9127L67.7975 43.488L77.7692 41.267C77.8401 40.5945 77.8844 39.9132 77.9111 39.2319L68.2053 41.3908V41.3911ZM74.348 19.8637L73.506 20.0496L73.0539 20.147L63.0823 22.368L61.1323 22.7927L21.3252 31.632L19.384 32.0654L9.41236 34.2774L8.95148 34.3748L8.11826 34.5606C8.04731 35.2332 8.01184 35.9145 7.98517 36.5958L8.81838 36.41L9.27046 36.3125L18.9853 34.1536L20.8555 33.7377L62.4622 24.5004L64.3324 24.0845L74.0472 21.9255L74.5081 21.8281L75.3325 21.6422C75.0223 21.0405 74.6943 20.4476 74.3486 19.8637H74.348ZM83.9828 35.5071L81.1375 22.7304C80.9071 21.7216 79.9056 21.0847 78.895 21.306L77.7604 21.5626L75.5354 22.0493L74.711 22.2352L74.2589 22.3326L64.5884 24.4828L62.7449 24.8899L20.7661 34.2159L18.9226 34.623L9.25204 36.7731L8.79996 36.8706L7.97554 37.0564L5.7506 37.5519L4.62507 37.7998C3.61449 38.021 2.97651 39.0296 3.19815 40.0384L6.05227 52.8151C6.27391 53.8239 7.28422 54.4698 8.2948 54.2395L9.42033 53.9919L11.6453 53.4964L12.4697 53.3106L12.9218 53.2131L22.5832 51.063L24.4446 50.6559L66.4234 41.3299L68.2672 40.9228L77.9287 38.7726L78.3808 38.6752L79.2052 38.4893L81.4298 37.9939L82.5556 37.7463C83.5662 37.525 84.2042 36.5165 83.9828 35.5077V35.5071ZM66.3351 41.807L24.7196 51.0443L22.8406 51.4602L13.1349 53.6191L12.6828 53.7166L11.8584 53.9024C12.1598 54.5129 12.4878 55.1058 12.8335 55.6897L13.6755 55.5039L14.1364 55.4064L24.1081 53.1854L26.058 52.752L65.8564 43.9127L67.7975 43.488L77.7692 41.267C77.8401 40.5945 77.8844 39.9132 77.9111 39.2319L68.2053 41.3908L66.3351 41.8067V41.807ZM9.27019 36.3122L18.985 34.1533L20.8552 33.7374L62.4619 24.5001L64.3321 24.0842L74.0469 21.9253L74.5078 21.8278L75.3322 21.642C75.022 21.0403 74.694 20.4473 74.3483 19.8635L73.5063 20.0493L73.0542 20.1468L63.0826 22.3678L61.1326 22.7924L21.3254 31.6317L19.3843 32.0651L9.41263 34.2771L8.95175 34.3745L8.11854 34.5604C8.04759 35.2329 8.01211 35.9142 7.98544 36.5955L8.81866 36.4097L9.27074 36.3122H9.27019ZM86.5446 37.1706L82.7421 20.138C82.4938 19.0142 81.3682 18.2974 80.2424 18.5541L76.6172 19.3592L74.348 19.8635L73.506 20.0493L73.0539 20.1468L63.0823 22.3678L61.1323 22.7924L21.3252 31.6317L19.384 32.0651L9.41236 34.2771L8.95148 34.3745L8.11826 34.5604L5.84905 35.0646L2.23267 35.8697C1.10686 36.1264 0.388863 37.2412 0.645978 38.3738L4.43973 55.4064C4.68804 56.5302 5.81358 57.247 6.94818 56.9991L10.5734 56.194L12.8338 55.6897L13.6758 55.5039L14.1367 55.4064L24.1083 53.1854L26.0583 52.752L65.8566 43.9127L67.7978 43.488L77.7694 41.267L78.2303 41.1696L79.0636 40.9837L81.3328 40.4795L84.9492 39.6744C86.075 39.4265 86.793 38.3029 86.5446 37.1703V37.1706ZM82.6535 38.1794L81.4216 38.4536L79.1966 38.9491L78.3634 39.135L77.9113 39.2324L68.2056 41.3914L66.3354 41.8073L24.7199 51.0446L22.8409 51.4604L13.1352 53.6194L12.6831 53.7169L11.8587 53.9027L9.62493 54.3982L8.39297 54.6724C7.14315 54.9466 5.89332 54.1591 5.61861 52.9115L2.77329 40.1347C2.48978 38.8871 3.27845 37.6395 4.52828 37.3652L5.76023 37.091L7.98517 36.5955L8.81838 36.4097L9.27046 36.3122L18.9853 34.1533L20.8555 33.7374L62.4622 24.5001L64.3324 24.0842L74.0472 21.9253L74.5081 21.8278L75.3325 21.642L77.5574 21.1465L78.7985 20.8723C80.0483 20.598 81.2893 21.3853 81.564 22.6329L84.4181 35.4185C84.6929 36.6573 83.9042 37.9049 82.6544 38.1791L82.6535 38.1794ZM81.1378 22.7307C80.9074 21.7219 79.9058 21.085 78.8953 21.3063L77.7607 21.5629L75.5357 22.0496L74.7113 22.2355L74.2592 22.3329L64.5887 24.4831L62.7451 24.8902L20.7664 34.2161L18.9229 34.6232L9.25231 36.7734L8.80023 36.8709L7.97582 37.0567L5.75088 37.5522L4.62535 37.8001C3.61476 38.0213 2.97679 39.0298 3.19843 40.0386L6.05254 52.8154C6.27418 53.8242 7.28449 54.4701 8.29508 54.2398L9.42061 53.9922L11.6455 53.4967L12.47 53.3109L12.922 53.2134L22.5835 51.0632L24.4449 50.6561L66.4237 41.3302L68.2675 40.9231L77.9289 38.7729L78.381 38.6754L79.2054 38.4896L81.4301 37.9941L82.5559 37.7465C83.5665 37.5253 84.2045 36.5168 83.9831 35.508L81.1378 22.7312V22.7307ZM74.348 19.8637L73.506 20.0496L73.0539 20.147L63.0823 22.368L61.1323 22.7927L21.3252 31.632L19.384 32.0654L9.41236 34.2774L8.95148 34.3748L8.11826 34.5606C8.04731 35.2332 8.01184 35.9145 7.98517 36.5958L8.81838 36.41L9.27046 36.3125L18.9853 34.1536L20.8555 33.7377L62.4622 24.5004L64.3324 24.0845L74.0472 21.9255L74.5081 21.8281L75.3325 21.6422C75.0223 21.0405 74.6943 20.4476 74.3486 19.8637H74.348ZM68.2053 41.3911L66.3351 41.807L24.7196 51.0443L22.8406 51.4602L13.1349 53.6191L12.6828 53.7166C12.993 54.3271 13.3211 54.92 13.6755 55.5039L14.1364 55.4064L24.1081 53.1854L26.058 52.752L65.8564 43.9127L67.7975 43.488L77.7692 41.267C77.8401 40.5945 77.8844 39.9132 77.9111 39.2319L68.2053 41.3908V41.3911ZM83.9828 35.5071L81.1375 22.7304C80.9071 21.7216 79.9056 21.0847 78.895 21.306L77.7604 21.5626L75.5354 22.0493L74.711 22.2352L74.2589 22.3326L64.5884 24.4828L62.7449 24.8899L20.7661 34.2159L18.9226 34.623L9.25204 36.7731L8.79996 36.8706L7.97554 37.0564L5.7506 37.5519L4.62507 37.7998C3.61449 38.021 2.97651 39.0296 3.19815 40.0384L6.05227 52.8151C6.27391 53.8239 7.28422 54.4698 8.2948 54.2395L9.42033 53.9919L11.6453 53.4964L12.4697 53.3106L12.9218 53.2131L22.5832 51.063L24.4446 50.6559L66.4234 41.3299L68.2672 40.9228L77.9287 38.7726L78.3808 38.6752L79.2052 38.4893L81.4298 37.9939L82.5556 37.7463C83.5662 37.525 84.2042 36.5165 83.9828 35.5077V35.5071ZM74.348 19.8637L73.506 20.0496L73.0539 20.147L63.0823 22.368L61.1323 22.7927L21.3252 31.632L19.384 32.0654L9.41236 34.2774L8.95148 34.3748L8.11826 34.5606C8.04731 35.2332 8.01184 35.9145 7.98517 36.5958L8.81838 36.41L9.27046 36.3125L18.9853 34.1536L20.8555 33.7377L62.4622 24.5004L64.3324 24.0845L74.0472 21.9255L74.5081 21.8281L75.3325 21.6422C75.0223 21.0405 74.6943 20.4476 74.3486 19.8637H74.348ZM68.2053 41.3911L66.3351 41.807L24.7196 51.0443L22.8406 51.4602C23.2306 52.0531 23.6472 52.6282 24.1081 53.1854L26.058 52.752L65.8564 43.9127L67.7975 43.488L77.7692 41.267C77.8401 40.5945 77.8844 39.9132 77.9111 39.2319L68.2053 41.3908V41.3911ZM83.9828 35.5071L81.1375 22.7304C80.9071 21.7216 79.9056 21.0847 78.895 21.306L77.7604 21.5626L75.5354 22.0493L74.711 22.2352L74.2589 22.3326L64.5884 24.4828L62.7449 24.8899L20.7661 34.2159L18.9226 34.623L9.25204 36.7731L8.79996 36.8706L7.97554 37.0564L5.7506 37.5519L4.62507 37.7998C3.61449 38.021 2.97651 39.0296 3.19815 40.0384L6.05227 52.8151C6.27391 53.8239 7.28422 54.4698 8.2948 54.2395L9.42033 53.9919L11.6453 53.4964L12.4697 53.3106L12.9218 53.2131L22.5832 51.063L24.4446 50.6559L66.4234 41.3299L68.2672 40.9228L77.9287 38.7726L78.3808 38.6752L79.2052 38.4893L81.4298 37.9939L82.5556 37.7463C83.5662 37.525 84.2042 36.5165 83.9828 35.5077V35.5071ZM74.348 19.8637L73.506 20.0496L73.0539 20.147L63.0823 22.368L61.1323 22.7927L21.3252 31.632L19.384 32.0654L9.41236 34.2774L8.95148 34.3748L8.11826 34.5606C8.04731 35.2332 8.01184 35.9145 7.98517 36.5958L8.81838 36.41L9.27046 36.3125L18.9853 34.1536L20.8555 33.7377L62.4622 24.5004L64.3324 24.0845L74.0472 21.9255L74.5081 21.8281L75.3325 21.6422C75.0223 21.0405 74.6943 20.4476 74.3486 19.8637H74.348ZM83.9828 35.5071L81.1375 22.7304C80.9071 21.7216 79.9056 21.0847 78.895 21.306L77.7604 21.5626L75.5354 22.0493L74.711 22.2352L74.2589 22.3326L64.5884 24.4828L62.7449 24.8899L20.7661 34.2159L18.9226 34.623L9.25204 36.7731L8.79996 36.8706L7.97554 37.0564L5.7506 37.5519L4.62507 37.7998C3.61449 38.021 2.97651 39.0296 3.19815 40.0384L6.05227 52.8151C6.27391 53.8239 7.28422 54.4698 8.2948 54.2395L9.42033 53.9919L11.6453 53.4964L12.4697 53.3106L12.9218 53.2131L22.5832 51.063L24.4446 50.6559L66.4234 41.3299L68.2672 40.9228L77.9287 38.7726L78.3808 38.6752L79.2052 38.4893L81.4298 37.9939L82.5556 37.7463C83.5662 37.525 84.2042 36.5165 83.9828 35.5077V35.5071ZM68.2053 41.3911L66.3351 41.807L24.7196 51.0443L22.8406 51.4602C23.2306 52.0531 23.6472 52.6282 24.1081 53.1854L26.058 52.752L65.8564 43.9127L67.7975 43.488L77.7692 41.267C77.8401 40.5945 77.8844 39.9132 77.9111 39.2319L68.2053 41.3908V41.3911ZM74.348 19.8637L73.506 20.0496L73.0539 20.147L63.0823 22.368L61.1323 22.7927L21.3252 31.632L19.384 32.0654L9.41236 34.2774L8.95148 34.3748L8.11826 34.5606C8.04731 35.2332 8.01184 35.9145 7.98517 36.5958L8.81838 36.41L9.27046 36.3125L18.9853 34.1536L20.8555 33.7377L62.4622 24.5004L64.3324 24.0845L74.0472 21.9255L74.5081 21.8281L75.3325 21.6422C75.0223 21.0405 74.6943 20.4476 74.3486 19.8637H74.348ZM83.9828 35.5071L81.1375 22.7304C80.9071 21.7216 79.9056 21.0847 78.895 21.306L77.7604 21.5626L75.5354 22.0493L74.711 22.2352L74.2589 22.3326L64.5884 24.4828L62.7449 24.8899L20.7661 34.2159L18.9226 34.623L9.25204 36.7731L8.79996 36.8706L7.97554 37.0564L5.7506 37.5519L4.62507 37.7998C3.61449 38.021 2.97651 39.0296 3.19815 40.0384L6.05227 52.8151C6.27391 53.8239 7.28422 54.4698 8.2948 54.2395L9.42033 53.9919L11.6453 53.4964L12.4697 53.3106L12.9218 53.2131L22.5832 51.063L24.4446 50.6559L66.4234 41.3299L68.2672 40.9228L77.9287 38.7726L78.3808 38.6752L79.2052 38.4893L81.4298 37.9939L82.5556 37.7463C83.5662 37.525 84.2042 36.5165 83.9828 35.5077V35.5071ZM74.348 19.8637L73.506 20.0496L73.0539 20.147L63.0823 22.368L61.1323 22.7927L21.3252 31.632L19.384 32.0654L9.41236 34.2774L8.95148 34.3748L8.11826 34.5606C8.04731 35.2332 8.01184 35.9145 7.98517 36.5958L8.81838 36.41L9.27046 36.3125L18.9853 34.1536L20.8555 33.7377L62.4622 24.5004L64.3324 24.0845L74.0472 21.9255L74.5081 21.8281L75.3325 21.6422C75.0223 21.0405 74.6943 20.4476 74.3486 19.8637H74.348ZM83.9828 35.5071L81.1375 22.7304C80.9071 21.7216 79.9056 21.0847 78.895 21.306L77.7604 21.5626L75.5354 22.0493L74.711 22.2352L74.2589 22.3326L64.5884 24.4828L62.7449 24.8899L20.7661 34.2159L18.9226 34.623L9.25204 36.7731L8.79996 36.8706L7.97554 37.0564L5.7506 37.5519L4.62507 37.7998C3.61449 38.021 2.97651 39.0296 3.19815 40.0384L6.05227 52.8151C6.27391 53.8239 7.28422 54.4698 8.2948 54.2395L9.42033 53.9919L11.6453 53.4964L12.4697 53.3106L12.9218 53.2131L22.5832 51.063L24.4446 50.6559L66.4234 41.3299L68.2672 40.9228L77.9287 38.7726L78.3808 38.6752L79.2052 38.4893L81.4298 37.9939L82.5556 37.7463C83.5662 37.525 84.2042 36.5165 83.9828 35.5077V35.5071ZM73.0539 20.1468L63.0823 22.3678L61.1323 22.7924L21.3252 31.6317L19.384 32.0651L9.41236 34.2771C9.34141 34.9496 9.29714 35.6309 9.27046 36.3122L18.9853 34.1533L20.8555 33.7374L62.4622 24.5001L64.3324 24.0842L74.0472 21.9253C73.737 21.3236 73.4001 20.7306 73.0545 20.1468H73.0539ZM75.5357 22.0491L74.7113 22.2349L74.2592 22.3324L64.5887 24.4825L62.7451 24.8896L20.7664 34.2156L18.9229 34.6227L9.25231 36.7729L8.80023 36.8703L7.97582 37.0562L5.75088 37.5516L4.62535 37.7995C3.61476 38.0208 2.97679 39.0293 3.19843 40.0381L6.05254 52.8148C6.27418 53.8236 7.28449 54.4695 8.29508 54.2392L9.42061 53.9916L11.6455 53.4961L12.47 53.3103L12.922 53.2129L22.5835 51.0627L24.4449 50.6556L66.4237 41.3296L68.2675 40.9225L77.9289 38.7723L78.381 38.6749L79.2054 38.4891C79.2142 38.2502 79.2142 38.0112 79.2142 37.7723C79.2142 32.1272 77.8935 26.7919 75.5357 22.0493V22.0491ZM73.0539 20.1468L63.0823 22.3678L61.1323 22.7924L21.3252 31.6317L19.384 32.0651L9.41236 34.2771C9.34141 34.9496 9.29714 35.6309 9.27046 36.3122L18.9853 34.1533L20.8555 33.7374L62.4622 24.5001L64.3324 24.0842L74.0472 21.9253C73.737 21.3236 73.4001 20.7306 73.0545 20.1468H73.0539ZM74.7116 22.2349L74.2595 22.3324L64.5889 24.4825L62.7454 24.8896L20.7667 34.2156L18.9231 34.6227L9.25259 36.7729L8.80051 36.8703L7.97609 37.0562L5.75115 37.5516L4.62562 37.7995C3.61504 38.0208 2.97706 39.0293 3.1987 40.0381L6.05282 52.8148C6.27446 53.8236 7.28477 54.4695 8.29535 54.2392L9.42088 53.9916L11.6458 53.4961L12.4702 53.3103L12.9223 53.2129L22.5838 51.0627L24.4452 50.6556L66.4239 41.3296L68.2677 40.9225L77.9292 38.7723L78.3813 38.6749C78.3901 38.374 78.3901 38.0732 78.3901 37.7723C78.3901 32.1892 77.0693 26.9157 74.7116 22.2352V22.2349ZM63.0823 22.3678L61.1323 22.7924L21.3252 31.6317L19.384 32.0651L9.41236 34.2771C9.34141 34.9496 9.29714 35.6309 9.27046 36.3122L18.9853 34.1533L20.8555 33.7374L62.4622 24.5001L64.3324 24.0842C63.9424 23.4913 63.5258 22.9162 63.0826 22.3678H63.0823ZM74.2595 22.3324L64.5889 24.4825L62.7454 24.8896L20.7667 34.2156L18.9231 34.6227L9.25259 36.7729L8.80051 36.8703L7.97609 37.0562L5.75115 37.5516L4.62562 37.7995C3.61504 38.0208 2.97706 39.0293 3.1987 40.0381L6.05282 52.8148C6.27446 53.8236 7.28477 54.4695 8.29535 54.2392L9.42088 53.9916L11.6458 53.4961L12.4702 53.3103L12.9223 53.2129L22.5838 51.0627L24.4452 50.6556L66.4239 41.3296L68.2677 40.9225L77.9292 38.7723C77.938 38.4361 77.9468 38.1089 77.9468 37.7726C77.9468 32.2249 76.6172 26.9778 74.2595 22.3326V22.3324ZM61.1323 22.7924L21.3252 31.6317L19.384 32.0651L9.41236 34.2771C9.34141 34.9496 9.29714 35.6309 9.27046 36.3122L18.9853 34.1533L20.8555 33.7374L62.4622 24.5001C62.0544 23.9072 61.6114 23.3409 61.1326 22.7924H61.1323ZM62.7454 24.8893L20.7667 34.2153L18.9231 34.6224L9.25259 36.7726L8.80051 36.87L7.97609 37.0559L5.75115 37.5514L4.62562 37.7992C3.61504 38.0205 2.97706 39.029 3.1987 40.0378L6.05282 52.8146C6.27446 53.8234 7.28477 54.4693 8.29535 54.239L9.42088 53.9914L11.6458 53.4959L12.4702 53.31L12.9223 53.2126L22.5838 51.0624L24.4452 50.6553L66.4239 41.3293C66.6013 40.1701 66.6987 38.9845 66.6987 37.7723C66.6987 33.0122 65.2363 28.5704 62.7454 24.8893ZM62.7454 24.8893L20.7667 34.2153L18.9231 34.6224L9.25259 36.7726L8.80051 36.87L7.97609 37.0559L5.75115 37.5514L4.62562 37.7992C3.61504 38.0205 2.97706 39.029 3.1987 40.0378L6.05282 52.8146C6.27446 53.8234 7.28477 54.4693 8.29535 54.239L9.42088 53.9914L11.6458 53.4959L12.4702 53.31L12.9223 53.2126L22.5838 51.0624L24.4452 50.6553L66.4239 41.3293C66.6013 40.1701 66.6987 38.9845 66.6987 37.7723C66.6987 33.0122 65.2363 28.5704 62.7454 24.8893ZM7.96729 37.7723C7.96729 37.5335 7.96729 37.2944 7.97609 37.0556L5.75115 37.5511L4.62562 37.799C3.61504 38.0202 2.97706 39.0287 3.1987 40.0375L6.05282 52.8143C6.27446 53.8231 7.28477 54.469 8.29535 54.2387L9.42088 53.9911L11.6458 53.4956C9.28806 48.753 7.96729 43.4175 7.96729 37.7726V37.7723Z" fill="#AEAEB7"/>
<path d="M26.9327 17.4814L25.8204 18.5476L22.5667 16.6337L25.0856 19.2528L24.1828 20.1185L19.4541 15.2027L20.6833 14.024L23.4577 15.6735L21.3015 13.4322L22.2043 12.5664L26.933 17.4814H26.9327Z" fill="#AEAEB7"/>
<path d="M26.9009 16.0371L24.4296 12.4098C23.9319 11.6788 24.1579 10.9909 25.1066 10.3472C26.0424 9.71196 26.7574 9.75698 27.2515 10.4828L29.7221 14.11C29.9453 14.4375 29.9869 14.7779 29.8466 15.1323C29.7064 15.4867 29.4259 15.8054 29.0071 16.0898C28.0636 16.731 27.3615 16.7129 26.9009 16.0371ZM28.5594 14.9975L25.9434 11.1575C25.8673 11.0452 25.7617 11.034 25.6275 11.1246C25.488 11.2195 25.4578 11.3233 25.534 11.4356L28.1499 15.2756C28.2261 15.3879 28.3342 15.3975 28.4736 15.3025C28.607 15.2116 28.6356 15.1098 28.5594 14.9975Z" fill="#AEAEB7"/>
<path d="M34.5419 13.0956L33.1378 13.7341L30.7028 10.8524L32.2105 14.1558L31.0715 14.6743L28.2402 8.47381L29.7914 7.76779L31.8618 10.2408L30.5705 7.41258L31.7106 6.89404L34.5419 13.0956Z" fill="#AEAEB7"/>
<path d="M40.7736 11.655L40.0655 11.7769L39.8092 11.4398C39.5331 11.7829 39.2136 11.9858 38.8509 12.0481C38.4978 12.1085 38.173 12.0706 37.8772 11.9331C37.581 11.7958 37.3992 11.5271 37.3302 11.1277L36.5745 6.74329C36.4247 5.87229 36.9062 5.34086 38.0202 5.1498C39.0769 4.96836 39.6742 5.27415 39.8112 6.06664L40.0259 7.31261L38.6834 7.5432L38.4497 6.18495C38.4307 6.07598 38.3485 6.0337 38.203 6.05868C38.0575 6.08366 37.9943 6.15037 38.0136 6.25989L38.8168 10.9199C38.8358 11.0297 38.9172 11.0711 39.0635 11.0461C39.2089 11.022 39.2722 10.9544 39.2529 10.8449L39.0365 9.59017L38.7362 9.64122L38.5589 8.61129L40.2008 8.32882L40.7739 11.6547L40.7736 11.655Z" fill="#AEAEB7"/>
<path d="M46.7305 11.6129L45.3932 11.5871L45.4686 7.76194L44.6125 11.5718L43.5791 11.5509L42.7602 7.70841L42.6848 11.5336L41.5137 11.5103L41.6487 4.69629L43.5764 4.73444L44.1918 8.28322L44.8564 4.76052L46.8655 4.80033L46.7305 11.6135V11.6129Z" fill="#AEAEB7"/>
<path d="M47.7367 10.6518L48.6706 6.36518C48.8592 5.50187 49.5137 5.19168 50.6345 5.43544C51.7408 5.67563 52.1995 6.22436 52.0125 7.08246L51.0786 11.3683C50.9939 11.7553 50.7748 12.0197 50.4209 12.1616C50.0678 12.3041 49.6426 12.3205 49.1477 12.2135C48.0329 11.9705 47.5618 11.4506 47.7367 10.6521V10.6518ZM49.6333 11.1366L50.6227 6.60015C50.6513 6.46702 50.5872 6.3833 50.4288 6.34871C50.2644 6.3133 50.1673 6.36161 50.1387 6.49474L49.1493 11.032C49.1199 11.1651 49.1875 11.2489 49.352 11.2851C49.5104 11.3189 49.6039 11.2695 49.6333 11.1366Z" fill="#AEAEB7"/>
<path d="M41.0421 70.5822L39.5135 70.3774L38.988 66.6436L38.5032 70.2415L37.2627 70.0757L38.1715 63.3213L39.8602 63.5478L40.2947 66.7421L40.7094 63.6617L41.9507 63.8275L41.0419 70.5819L41.0421 70.5822Z" fill="#AEAEB7"/>
<path d="M43.2968 69.5042L43.1054 65.1215C43.0671 64.2385 43.6212 63.7726 44.7674 63.7227C45.8979 63.6735 46.4822 64.0872 46.5202 64.9642L46.7116 69.3459C46.7289 69.7417 46.5843 70.0535 46.2787 70.2808C45.9732 70.5081 45.5673 70.6325 45.06 70.655C43.9199 70.7041 43.3322 70.3206 43.2968 69.504V69.5042ZM45.2547 69.4905L45.052 64.8522C45.046 64.7158 44.9629 64.6519 44.8009 64.6587C44.6329 64.6656 44.5515 64.7372 44.5576 64.8739L44.7602 69.5122C44.7663 69.6486 44.8529 69.7126 45.0207 69.7057C45.1826 69.6989 45.2605 69.6272 45.2544 69.4905H45.2547Z" fill="#AEAEB7"/>
<path d="M52.8055 69.3857L51.301 69.7261L49.5032 66.4106L50.3072 69.9517L49.0868 70.2273L47.5771 63.5816L49.2392 63.205L50.7634 66.0469L50.0754 63.0158L51.2958 62.7402L52.8055 69.386V69.3857Z" fill="#AEAEB7"/>
<path d="M60.3684 66.1256L59.7312 66.4574L59.3842 66.2145C59.2266 66.6257 58.9844 66.9161 58.658 67.0855C58.3403 67.2513 58.0192 67.3144 57.6955 67.2738C57.3718 67.2332 57.1164 67.0328 56.9286 66.6732L54.8667 62.7297C54.4572 61.946 54.7534 61.2935 55.7549 60.7717C56.7061 60.2765 57.3674 60.3854 57.7406 61.0991L58.3266 62.2199L57.1199 62.848L56.4811 61.6262C56.4292 61.5285 56.3384 61.5131 56.2075 61.5812C56.0769 61.6495 56.037 61.7324 56.0882 61.831L58.2799 66.0235C58.331 66.1212 58.4226 66.1366 58.5535 66.0685C58.6841 66.0001 58.724 65.9172 58.6728 65.8187L58.0824 64.6894L57.8124 64.8302L57.3276 63.9029L58.8043 63.1338L60.3684 66.1253V66.1256Z" fill="#AEAEB7"/>
<path d="M66.6488 61.4448L65.6154 62.2933L63.1812 59.3391L65.0129 62.7885L64.2148 63.4443L61.089 61.0578L63.5241 64.012L62.6196 64.7543L58.2822 59.492L59.771 58.2686L62.5514 60.5645L60.7604 57.4563L62.3116 56.1826L66.649 61.4448H66.6488Z" fill="#AEAEB7"/>
<path d="M67.5541 58.7394L64.115 56.0089C63.4226 55.4585 63.4331 54.7352 64.1469 53.8392C64.8515 52.9553 65.5475 52.7859 66.2358 53.3327L69.6748 56.0632C69.9855 56.3103 70.1258 56.6232 70.0972 57.0026C70.0686 57.3819 69.8964 57.7698 69.5805 58.1656C68.8707 59.0575 68.1945 59.2483 67.5541 58.7394ZM68.8284 57.2557L65.1886 54.3646C65.0814 54.2801 64.9774 54.3006 64.877 54.4277C64.7723 54.559 64.7731 54.6671 64.8806 54.7517L68.5204 57.6419C68.6268 57.7275 68.7324 57.7042 68.8372 57.5719C68.9384 57.4456 68.9351 57.3402 68.8286 57.2557H68.8284Z" fill="#AEAEB7"/>
<path d="M11.925 51.3558L9.13086 39.0523L11.6212 38.4885L15.6159 44.549C15.738 44.7447 15.9146 45.0502 16.1467 45.4609C16.3796 45.8713 16.6469 46.3558 16.9516 46.913C16.6243 46.0719 16.3466 45.2937 16.1197 44.58C15.8928 43.8677 15.7078 43.1962 15.5648 42.5663L14.4915 37.839L16.7706 37.3232L19.5648 49.6267L17.2857 50.1425L13.0209 43.869C12.9532 43.7779 12.7395 43.3856 12.3812 42.6933C12.214 42.3771 12.0842 42.1281 11.9899 41.9489C12.1552 42.4139 12.3188 42.9418 12.4833 43.5342C12.6469 44.126 12.8234 44.8372 13.0121 45.6692L14.1868 50.8433L11.925 51.3558Z" fill="#EBEBED"/>
<path d="M28.3977 41.3456C28.8236 43.2224 28.7681 44.8011 28.2305 46.0833C27.6937 47.366 26.7667 48.1552 25.4492 48.4533C24.0878 48.7613 22.9009 48.4478 21.889 47.5093C20.877 46.5719 20.1466 45.1145 19.6981 43.1367C19.2496 41.165 19.2826 39.5309 19.7968 38.2366C20.3102 36.9423 21.2397 36.143 22.5841 35.8388C23.9354 35.533 25.1264 35.866 26.1573 36.8372C27.1891 37.8097 27.9354 39.3124 28.3974 41.3456H28.3977ZM24.9171 46.111C25.5482 45.9685 25.9445 45.5334 26.1073 44.8055C26.2709 44.0769 26.2024 43.053 25.903 41.7329C25.5999 40.4013 25.2183 39.4422 24.7568 38.8564C24.2946 38.2693 23.7493 38.0477 23.1182 38.1902C22.4879 38.3327 22.0933 38.7656 21.9313 39.4905C21.7704 40.216 21.8422 41.2454 22.1461 42.5831C22.4483 43.9147 22.828 44.8716 23.2851 45.4527C23.7429 46.0341 24.2866 46.2537 24.9169 46.1113L24.9171 46.111Z" fill="#EBEBED"/>
<path d="M31.2737 46.9769L28.4795 34.6734L30.9698 34.1096L34.9646 40.1701C35.0867 40.3658 35.2632 40.6713 35.4953 41.082C35.7282 41.4924 35.9955 41.9771 36.3002 42.5341C35.9729 41.6933 35.6952 40.9148 35.4683 40.2011C35.2415 39.4888 35.0564 38.8173 34.9134 38.1873L33.8401 33.4601L36.1192 32.9443L38.9134 45.2478L36.6343 45.7636L32.3687 39.4901C32.301 39.399 32.0882 39.0067 31.7299 38.3144C31.5627 37.9982 31.4321 37.7492 31.3386 37.57C31.5038 38.0353 31.6674 38.5629 31.8319 39.1555C31.9955 39.7471 32.172 40.4586 32.3607 41.2906L33.5354 46.4647L31.2737 46.9767V46.9769Z" fill="#EBEBED"/>
<path d="M46.5703 36.2061L51.1546 35.1688C51.1684 35.23 51.1928 35.3239 51.2272 35.4496C51.2619 35.5745 51.2852 35.6681 51.2998 35.7296C51.7665 37.7862 51.7516 39.4755 51.2566 40.7983C50.7614 42.1217 49.8465 42.9334 48.5128 43.2353C47.2126 43.5296 46.0552 43.1999 45.04 42.2452C44.0239 41.2905 43.2949 39.8417 42.8535 37.8976C42.4086 35.9371 42.4529 34.3049 42.9841 32.9997C43.5165 31.6944 44.4636 30.8887 45.8259 30.5807C46.7487 30.3721 47.5935 30.4641 48.3604 30.8572C49.1274 31.2508 49.7766 31.9277 50.3079 32.8885L48.3274 34.4084C48.0937 33.8174 47.808 33.401 47.4714 33.1581C47.1356 32.9151 46.7476 32.8435 46.309 32.9428C45.6504 33.0919 45.2399 33.5193 45.0782 34.2272C44.9173 34.9341 44.9907 35.9723 45.3023 37.3434C45.5993 38.6525 45.987 39.6078 46.463 40.2087C46.939 40.8093 47.4904 41.039 48.1154 40.8974C48.6616 40.7739 49.0355 40.4486 49.2382 39.921C49.4409 39.3948 49.4478 38.7156 49.2591 37.8836L47.0647 38.3799L46.5705 36.2059L46.5703 36.2061Z" fill="#EBEBED"/>
<path d="M53.6697 41.9097L52.083 29.3328L55.2484 28.6166L56.9564 33.1652C57.2143 33.8572 57.4489 34.5226 57.6628 35.163C57.8765 35.8031 58.0723 36.4276 58.2524 37.0368C58.1077 35.9291 57.9997 35.054 57.9279 34.4117C57.8561 33.7704 57.8075 33.2917 57.7841 32.9782L57.5113 28.105L60.6431 27.3965L64.4759 39.465L61.9856 40.0283L60.4259 34.3746C60.3896 34.2412 60.3349 34.0397 60.2631 33.7729C59.8504 32.2953 59.536 31.0784 59.3188 30.1234L59.9845 40.481L58.2032 40.8839L54.4075 31.164C54.5981 32.0013 54.8186 33.2094 55.0705 34.7883C55.1285 35.1468 55.1709 35.4153 55.2003 35.5923L56.1099 41.3577L53.6697 41.9097Z" fill="#EBEBED"/>
<path d="M72.6994 31.3213C73.1262 33.1981 73.0698 34.7767 72.5333 36.0595C71.9965 37.3422 71.0687 38.1314 69.7521 38.4293C68.3895 38.7378 67.2038 38.4241 66.191 37.4853C65.1798 36.5478 64.4495 35.0905 64.0001 33.1127C63.5527 31.1409 63.5854 29.5074 64.0988 28.2131C64.6123 26.9183 65.5417 26.1195 66.887 25.8148C68.2374 25.5092 69.4292 25.8419 70.4602 26.8137C71.4911 27.7857 72.2383 29.2883 72.6994 31.3216V31.3213ZM69.2197 36.0867C69.8508 35.9442 70.2471 35.5094 70.4099 34.7811C70.5726 34.0526 70.505 33.0287 70.2047 31.7086C69.9025 30.377 69.52 29.4179 69.0597 28.8321C68.5974 28.2455 68.0521 28.0234 67.421 28.1659C66.7907 28.3089 66.3953 28.7412 66.2341 29.4667C66.0733 30.1917 66.1442 31.2214 66.4478 32.5588C66.75 33.8904 67.1298 34.8473 67.5879 35.4287C68.0458 36.0098 68.5894 36.2297 69.2197 36.0867Z" fill="#EBEBED"/>
<path d="M38.4288 18.2563L39.7636 19.8872L41.8659 19.7142L40.725 21.4853L41.5395 23.4283L39.4991 22.8919L37.9 24.2655L37.7806 22.1625L35.9775 21.0689L37.944 20.3058L38.4288 18.2563Z" fill="#AEAEB7"/>
<path d="M47.337 50.3052L48.6718 51.9363L50.7741 51.7631L49.6332 53.5342L50.4474 55.4774L48.4073 54.9407L46.8082 56.3146L46.6888 54.2116L44.8857 53.1177L46.8522 52.3549L47.337 50.3052Z" fill="#AEAEB7"/>
</svg>
