<svg width="201" height="59" viewBox="0 0 201 59" fill="none" xmlns="http://www.w3.org/2000/svg">
<path fill-rule="evenodd" clip-rule="evenodd" d="M29.5 59C45.7924 59 59 45.7924 59 29.5C59 13.2076 45.7924 0 29.5 0C13.2076 0 0 13.2076 0 29.5C0 45.7924 13.2076 59 29.5 59ZM29.5 54C43.031 54 54 43.031 54 29.5C54 15.969 43.031 5 29.5 5C15.969 5 5 15.969 5 29.5C5 43.031 15.969 54 29.5 54Z" fill="#AEAEB7"/>
<path d="M35.1349 16H41V34.5701C41 36.6551 40.5169 38.4795 39.5506 40.0433C38.5934 41.6071 37.2525 42.8265 35.5277 43.7015C33.8029 44.5672 31.7937 45 29.5 45C27.1973 45 25.1836 44.5672 23.4588 43.7015C21.734 42.8265 20.393 41.6071 19.4358 40.0433C18.4786 38.4795 18 36.6551 18 34.5701V16H23.8651V34.0534C23.8651 35.1425 24.0954 36.1106 24.5559 36.9576C25.0255 37.8047 25.6847 38.4702 26.5336 38.9543C27.3824 39.4383 28.3712 39.6803 29.5 39.6803C30.6378 39.6803 31.6266 39.4383 32.4664 38.9543C33.3153 38.4702 33.97 37.8047 34.4305 36.9576C34.9001 36.1106 35.1349 35.1425 35.1349 34.0534V16Z" fill="#AEAEB7"/>
<path d="M72.0225 41.5909V18.3182H76.9429V28.5795H77.2497L85.6247 18.3182H91.5225L82.8861 28.7386L91.6247 41.5909H85.7384L79.3634 32.0227L76.9429 34.9773V41.5909H72.0225Z" fill="#AEAEB7"/>
<path d="M114.159 29.9545C114.159 32.4924 113.678 34.6515 112.716 36.4318C111.761 38.2121 110.458 39.572 108.807 40.5114C107.163 41.4432 105.314 41.9091 103.261 41.9091C101.193 41.9091 99.3369 41.4394 97.6929 40.5C96.049 39.5606 94.7497 38.2008 93.7952 36.4205C92.8406 34.6402 92.3634 32.4848 92.3634 29.9545C92.3634 27.4167 92.8406 25.2576 93.7952 23.4773C94.7497 21.697 96.049 20.3409 97.6929 19.4091C99.3369 18.4697 101.193 18 103.261 18C105.314 18 107.163 18.4697 108.807 19.4091C110.458 20.3409 111.761 21.697 112.716 23.4773C113.678 25.2576 114.159 27.4167 114.159 29.9545ZM109.17 29.9545C109.17 28.3106 108.924 26.9242 108.432 25.7955C107.947 24.6667 107.261 23.8106 106.375 23.2273C105.488 22.6439 104.45 22.3523 103.261 22.3523C102.072 22.3523 101.034 22.6439 100.147 23.2273C99.2611 23.8106 98.5717 24.6667 98.0793 25.7955C97.5944 26.9242 97.352 28.3106 97.352 29.9545C97.352 31.5985 97.5944 32.9848 98.0793 34.1136C98.5717 35.2424 99.2611 36.0985 100.147 36.6818C101.034 37.2652 102.072 37.5568 103.261 37.5568C104.45 37.5568 105.488 37.2652 106.375 36.6818C107.261 36.0985 107.947 35.2424 108.432 34.1136C108.924 32.9848 109.17 31.5985 109.17 29.9545Z" fill="#AEAEB7"/>
<path d="M130.429 25.0114C130.338 24.0947 129.948 23.3826 129.258 22.875C128.569 22.3674 127.633 22.1136 126.451 22.1136C125.648 22.1136 124.97 22.2273 124.417 22.4545C123.864 22.6742 123.44 22.9811 123.145 23.375C122.857 23.7689 122.713 24.2159 122.713 24.7159C122.698 25.1326 122.785 25.4962 122.974 25.8068C123.171 26.1174 123.44 26.3864 123.781 26.6136C124.122 26.8333 124.516 27.0265 124.963 27.1932C125.41 27.3523 125.887 27.4886 126.395 27.6023L128.486 28.1023C129.501 28.3295 130.432 28.6326 131.281 29.0114C132.129 29.3902 132.864 29.8561 133.486 30.4091C134.107 30.9621 134.588 31.6136 134.929 32.3636C135.277 33.1136 135.455 33.9735 135.463 34.9432C135.455 36.3674 135.092 37.6023 134.372 38.6477C133.66 39.6856 132.629 40.4924 131.281 41.0682C129.94 41.6364 128.323 41.9205 126.429 41.9205C124.55 41.9205 122.914 41.6326 121.52 41.0568C120.133 40.4811 119.05 39.6288 118.27 38.5C117.497 37.3636 117.092 35.9583 117.054 34.2841H121.815C121.868 35.0644 122.092 35.7159 122.486 36.2386C122.887 36.7538 123.421 37.1439 124.088 37.4091C124.762 37.6667 125.523 37.7955 126.372 37.7955C127.205 37.7955 127.929 37.6742 128.542 37.4318C129.164 37.1894 129.645 36.8523 129.986 36.4205C130.326 35.9886 130.497 35.4924 130.497 34.9318C130.497 34.4091 130.342 33.9697 130.031 33.6136C129.728 33.2576 129.281 32.9545 128.69 32.7045C128.107 32.4545 127.391 32.2273 126.542 32.0227L124.008 31.3864C122.046 30.9091 120.497 30.1629 119.361 29.1477C118.224 28.1326 117.66 26.7652 117.667 25.0455C117.66 23.6364 118.035 22.4053 118.792 21.3523C119.557 20.2992 120.607 19.4773 121.94 18.8864C123.273 18.2955 124.789 18 126.486 18C128.213 18 129.72 18.2955 131.008 18.8864C132.304 19.4773 133.311 20.2992 134.031 21.3523C134.751 22.4053 135.122 23.625 135.145 25.0114H130.429Z" fill="#AEAEB7"/>
<path d="M138.772 41.5909V18.3182H143.693V27.9205H153.682V18.3182H158.591V41.5909H153.682V31.9773H143.693V41.5909H138.772Z" fill="#AEAEB7"/>
<path d="M162.647 41.5909V18.3182H178.329V22.375H167.568V27.9205H177.522V31.9773H167.568V37.5341H178.375V41.5909H162.647Z" fill="#AEAEB7"/>
<path d="M182.241 41.5909V18.3182H191.423C193.181 18.3182 194.681 18.6326 195.923 19.2614C197.173 19.8826 198.124 20.7652 198.775 21.9091C199.434 23.0455 199.764 24.3826 199.764 25.9205C199.764 27.4659 199.431 28.7955 198.764 29.9091C198.097 31.0152 197.131 31.8636 195.866 32.4545C194.609 33.0455 193.086 33.3409 191.298 33.3409H185.15V29.3864H190.503C191.442 29.3864 192.222 29.2576 192.843 29C193.465 28.7424 193.927 28.3561 194.23 27.8409C194.54 27.3258 194.696 26.6856 194.696 25.9205C194.696 25.1477 194.54 24.4962 194.23 23.9659C193.927 23.4356 193.461 23.0341 192.832 22.7614C192.211 22.4811 191.427 22.3409 190.48 22.3409H187.162V41.5909H182.241ZM194.809 31L200.593 41.5909H195.162L189.503 31H194.809Z" fill="#AEAEB7"/>
</svg>
