<svg width="112" height="67" viewBox="0 0 112 67" fill="none" xmlns="http://www.w3.org/2000/svg">
<path d="M111.285 46.9204C110.159 45.8302 110.082 41.2519 110.205 36.5982C110.329 31.9476 110.749 27.135 110.801 25.3808C110.816 24.9057 110.797 24.4683 110.722 23.9916C110.402 21.9086 107.699 21.3391 106.652 23.3592C105.406 25.7615 104.043 31.0037 103.626 36.2002C103.211 41.3935 103.669 46.59 106.122 48.8587C107.278 49.9269 109.074 50.4178 110.451 49.9207C111.74 49.455 112.312 47.9179 111.283 46.922M90.6362 43.8636C89.2873 41.0065 91.5127 36.2977 94.2692 35.9123C93.1343 38.5664 92.2561 41.2645 90.6362 43.8636ZM94.3136 42.8724C94.6179 44.6203 95.1933 48.0091 97.9006 47.6394C99.0402 47.4837 99.6647 46.6608 99.8233 45.3031C99.9231 44.4504 99.9786 43.5174 100.093 42.6223C100.349 40.6038 100.589 38.5585 100.847 36.507C101.106 34.4491 101.308 32.3693 101.624 30.3099C101.77 29.358 101.388 28.2693 100.399 27.8147C99.1131 27.2247 98.197 27.9578 97.4631 28.9364C96.8021 29.819 96.2822 30.7551 95.7988 31.8973C94.3135 31.3702 93.0899 31.2758 91.9978 31.4741C88.6707 32.0814 86.4278 35.9013 85.9586 39.0635C85.6416 41.2047 85.9444 43.2516 87.409 44.99C89.0464 46.933 91.9169 47.3641 93.3577 44.6754C93.67 44.0917 93.9648 43.4986 94.3136 42.8693V42.8724ZM79.2221 34.8424C79.4472 36.0192 79.761 37.1961 80.4933 38.2533C80.8975 38.837 81.5442 39.0462 82.2813 38.859C82.9946 38.6781 83.459 38.1998 83.4733 37.5233C83.5034 36.046 83.5985 34.4822 83.2941 32.9687C82.7663 30.346 80.1224 29.9496 78.3915 31.2208C77.8954 31.5842 77.3454 31.8831 76.6939 32.4306C76.6939 31.88 76.7225 31.6283 76.7383 31.3356C76.8001 30.1997 76.4229 29.487 75.5463 29.1881C74.6793 28.8923 73.7108 29.251 73.1053 30.2328C72.0005 32.0231 71.5425 34.5199 71.5535 37.0891C71.5646 39.6614 72.0481 42.2793 72.6663 44.2632C72.9009 45.0152 73.2179 45.7468 73.7568 46.2408C74.7918 47.1895 76.7605 47.1486 77.1298 45.5076C77.2329 45.053 77.198 44.4944 77.1631 43.9517C77.0411 42.0763 76.8271 40.5943 77.0284 39.1847C77.2313 37.7719 77.8162 36.433 79.2221 34.8409V34.8424ZM63.8723 40.0216C64.1307 40.651 64.4461 42.3265 64.7488 43.1257C65.0516 43.9234 65.543 44.6659 66.4924 45.0561C67.1613 45.3314 67.9158 45.3723 68.5958 44.8862C69.2663 44.4079 69.3503 43.7519 69.214 43.0817C68.8669 41.3589 68.8827 39.6787 68.7305 37.7907C68.6259 36.4865 68.6545 34.8818 67.7636 33.7585C66.5542 32.2355 64.8424 32.7704 64.053 34.6033C63.178 36.6375 61.6992 39.1107 59.8922 40.6148C58.5068 41.768 57.4892 40.7202 57.1817 38.9912C56.8821 37.3109 57.085 35.7644 57.5748 34.1093C57.8712 33.1087 57.6683 32.5046 57.047 32.0939C56.3987 31.6676 55.4128 31.7195 54.7296 32.1852C53.8024 32.8192 53.1398 33.9535 52.8069 35.305C52.2173 37.7011 52.314 40.5361 53.9434 42.4586C57.1722 46.2707 60.9383 43.3003 63.8739 40.0216H63.8723ZM49.1296 27.6101C49.399 26.1769 49.9712 23.6911 49.7034 22.0077C49.4878 20.6579 48.0803 20.0553 46.8138 20.6594C44.8863 21.5766 43.2712 25.5586 42.6974 27.9279C42.0443 28.0223 41.396 28.0365 40.6954 28.1954C39.8664 28.3826 39.1119 28.6674 39.1547 29.5578C39.1896 30.2737 39.6398 30.7567 40.6051 30.8589C40.8222 30.881 40.6495 30.8589 41.9096 30.8526C41.6512 32.2277 41.19 35.8603 41.4816 39.5827C41.7733 43.3019 42.8194 47.1328 45.5869 48.8524C47.4193 49.993 49.8429 48.7077 49.0059 46.2864C48.28 44.1892 47.9709 41.4171 48.0042 38.5679C48.0375 35.714 48.3862 32.8003 48.8252 30.4813C50.973 30.3901 51.5753 30.4027 52.1872 30.2988C53.5884 30.0613 53.8261 28.3244 52.3663 27.983C50.9873 27.6605 49.9142 27.8241 49.128 27.6117L49.1296 27.6101ZM26.4694 44.0413C25.1205 41.2016 27.346 36.3968 30.1024 35.9437C28.9659 38.6387 28.0894 41.3731 26.4694 44.0413ZM30.1468 42.9228C30.4511 44.6612 31.0281 48.028 33.7338 47.5403C34.8735 47.3358 35.498 46.4909 35.6565 45.1363C35.7563 44.2836 35.8118 43.357 35.926 42.4618C36.1827 40.4496 36.4205 38.409 36.6789 36.3622C36.9372 34.3138 37.1385 32.245 37.4555 30.1997C37.6014 29.2542 37.2162 28.1844 36.2303 27.7486C34.9416 27.1791 34.0302 27.9201 33.2947 28.9081C32.6353 29.7954 32.1139 30.7409 31.6304 31.8894C30.1468 31.3923 28.9199 31.3167 27.8294 31.5339C24.5008 32.2009 22.2595 36.1058 21.7903 39.3231C21.4733 41.5037 21.7729 43.5709 23.2406 45.2858C24.8748 47.1942 27.747 47.5136 29.1894 44.7619C29.5001 44.1688 29.7965 43.5615 30.1452 42.9196L30.1468 42.9228ZM12.4352 42.767C11.0071 40.1601 9.79292 37.0985 8.71349 33.9709C7.63405 30.8448 6.68618 27.6447 5.70027 24.805C5.29291 23.6313 4.42587 23.0241 3.33852 23.3434C1.8961 23.7666 1.61872 25.5885 1.2811 27.0359C0.65024 29.7388 0.369683 32.4888 0.19057 35.2483C0.00828747 38.0047 -0.0170736 40.78 0.00828746 43.5804C0.0257232 45.5375 0.667676 50.2164 2.50477 51.4278C4.02961 52.4332 5.99668 50.9574 5.95705 48.1885C5.92852 46.203 5.8667 43.9863 5.8667 41.7475C5.8667 39.5088 5.88889 37.2338 5.91108 35.1382C6.97942 37.9135 8.12543 40.8869 9.40933 43.8211C10.6901 46.7489 12.1341 49.6438 13.8285 52.2459C14.4388 53.1836 15.1362 53.4652 16.111 53.2638C16.9701 53.0861 17.6327 52.3734 17.7642 51.3429C17.8023 51.0424 17.8007 50.7844 17.8086 50.4839C17.9354 46.3651 18.1795 42.907 18.6075 39.4458C19.0339 35.9878 19.7044 32.525 20.6538 28.3842C20.8504 27.5283 21.02 26.6253 21.0025 25.7269C20.9756 24.3613 20.2211 23.5259 19.0339 23.2522C17.6453 22.9312 16.596 23.7415 15.9303 24.805C14.6955 26.7747 13.8951 30.0455 13.3894 33.4328C12.8838 36.8232 12.6239 40.3332 12.4336 42.767H12.4352Z" fill="#AEAEB7"/>
<path fill-rule="evenodd" clip-rule="evenodd" d="M82.6062 10.2601C80.4933 17.0283 76.4657 22.5552 70.5185 26.8377C66.1833 10.0273 81.9801 11.1396 84.9125 0.732422C87.6864 12.1622 86.3629 26.5372 71.7881 27.9437C78.1522 22.8479 81.7582 16.9528 82.6047 10.2601" fill="#AEAEB7"/>
<path fill-rule="evenodd" clip-rule="evenodd" d="M59.3388 19.1035C62.8988 19.7076 66.0246 22.3035 68.7129 26.8928C70.0443 16.7326 60.8272 15.8752 53.2822 16.7609C59.8222 20.3244 58.2467 32.2859 67.9964 27.9201C66.3052 23.6691 63.4203 20.7303 59.3404 19.1051" fill="#AEAEB7"/>
<path d="M39.6241 55.9022C39.3911 58.1677 39.0534 61.8476 38.7935 64.4734C38.6112 67.6388 42.6832 67.7175 42.8132 64.4482C42.9432 61.3851 43.0732 56.3915 43.1239 53.1994C43.2792 51.9376 41.672 50.4446 40.453 52.0666C39.3641 53.5077 38.4828 54.6405 37.5223 55.671C37.0562 56.1854 37.8329 57.0869 38.5335 56.7786C38.9488 56.6244 39.2849 56.2641 39.6225 55.9038" fill="#AEAEB7"/>
<path d="M48.8064 55.9024C49.1948 54.8216 50.0507 55.1048 50.336 56.0833C50.932 58.3221 50.7513 63.4966 49.0394 63.7546C48.1058 62.4425 48.0028 58.0657 48.8064 55.904M45.8233 54.6422C44.1638 57.397 43.7738 62.8028 46.6539 65.1705C47.8982 66.2262 49.4547 66.1224 50.6213 64.9393C52.5139 62.957 52.8262 59.4816 52.3586 56.7536C52.2032 55.8788 51.9433 55.0025 51.4773 54.2568C51.0366 53.5614 50.4137 53.2011 49.5324 53.2011C49.1948 53.2011 48.8318 53.2263 48.4435 53.2011C47.4068 53.0988 46.394 53.7423 45.8233 54.6422Z" fill="#AEAEB7"/>
<path d="M58.1932 55.9024C58.5815 54.8216 59.4374 55.1048 59.7228 56.0833C60.3187 58.3221 60.138 63.4966 58.4262 63.7546C57.4926 62.4425 57.3895 58.0657 58.1932 55.904M55.2101 54.6422C53.5505 57.397 53.1606 62.8028 56.0406 65.1705C57.2849 66.2262 58.8415 66.1224 60.0081 64.9393C61.9006 62.957 62.2129 59.4816 61.7453 56.7536C61.59 55.8788 61.33 55.0025 60.864 54.2568C60.4234 53.5614 59.8004 53.2011 58.9191 53.2011C58.5815 53.2011 58.2185 53.2263 57.8302 53.2011C56.7935 53.0988 55.7807 53.7423 55.2101 54.6422Z" fill="#AEAEB7"/>
<path d="M72.3922 53.5848C70.3411 55.4114 67.7542 58.8946 66.166 61.7721C65.7491 62.5635 65.4305 63.4382 65.784 64.2516C66.1961 65.2239 67.4705 65.2632 68.7845 63.4839C70.2269 61.5299 72.4968 57.6344 74.1754 54.6075C74.4179 54.1937 74.421 53.7658 74.1532 53.4055C73.6396 52.8533 72.874 53.1129 72.3906 53.5864" fill="#AEAEB7"/>
<path d="M67.1152 55.3435C67.1802 57.2456 65.4683 57.3353 65.9327 55.1783C66.2022 53.9024 67.1295 53.6979 67.1152 55.3435ZM67.0502 57.6405C68.0916 56.8617 68.3357 55.0493 67.7968 53.8615C67.4496 53.1472 67.0772 53.3895 66.4336 53.1724C66.2276 53.1079 66.0342 53.122 65.8677 53.185C64.2351 53.8363 63.8484 56.7594 65.4683 57.6782C65.9692 57.9583 66.562 57.9976 67.0502 57.6405Z" fill="#AEAEB7"/>
<path d="M74.0146 62.1936C74.0796 64.0957 72.3693 64.1854 72.8321 62.0284C73.1016 60.7525 74.0289 60.548 74.0146 62.1936ZM73.9496 64.4906C74.991 63.7118 75.2351 61.8994 74.6962 60.7116C74.3491 59.9973 73.9766 60.2396 73.333 60.0225C73.127 59.958 72.9336 59.9721 72.7672 60.0351C71.1345 60.6864 70.7478 63.6095 72.3677 64.5283C72.8686 64.8084 73.4614 64.8477 73.9496 64.4906Z" fill="#AEAEB7"/>
</svg>
