<svg width="88" height="60" viewBox="0 0 88 60" fill="none" xmlns="http://www.w3.org/2000/svg">
<g clip-path="url(#clip0_414_3706)">
<path d="M20.3321 2.43974L20.2196 17.568C20.2196 23.8555 16.5157 26.2954 11.5279 26.2954C7.23235 26.2954 1.7771 24.3745 1.7771 17.8245V2.43974C1.7599 2.07685 1.63907 1.7267 1.42913 1.43143C1.21919 1.13616 0.929094 0.90834 0.59375 0.775391H7.63469C7.30828 0.914259 7.02857 1.14518 6.82915 1.44041C6.62973 1.73565 6.51909 2.08265 6.51051 2.43974V17.9498C6.51051 20.5388 7.3921 24.2015 12.161 24.2015C16.5276 24.2015 18.0778 21.3143 18.0778 17.6396L18.0186 2.43974C18.03 2.09591 17.9428 1.75607 17.7676 1.46089C17.5924 1.16571 17.3364 0.927713 17.0305 0.775391H21.3024C20.9998 0.930257 20.7475 1.16935 20.5755 1.46433C20.4036 1.75931 20.3191 2.09782 20.3321 2.43974Z" fill="#AEAEB7"/>
<path d="M30.2664 26.2954C27.8124 26.2654 25.4001 25.6523 23.2254 24.5058L23.042 18.254C23.7402 20.8788 25.9412 24.3566 29.7575 24.3566C33.3845 24.3566 34.4909 21.7318 34.4909 19.9184C34.4909 16.3391 31.3018 15.8857 27.9825 14.0723C24.6632 12.2588 23.1367 10.1888 23.1367 7.37909C23.113 2.38605 27.7754 0.369741 31.1125 0.369741C33.0415 0.361287 34.9432 0.830369 36.6505 1.73582L36.834 7.21206C36.3192 5.24944 34.2306 2.2906 30.7101 2.2906C27.9174 2.2906 26.8169 4.25322 26.8169 5.86984C26.8169 8.12476 28.3967 8.97185 31.8461 10.5646C35.2956 12.1574 38.8161 13.3862 38.8161 18.5284C38.8161 23.1516 34.7808 26.2954 30.2664 26.2954Z" fill="#AEAEB7"/>
<path d="M50.6617 25.9255H41.2363C41.532 25.7638 41.7775 25.5227 41.9456 25.2289C42.1138 24.9352 42.198 24.6002 42.1889 24.2612V2.43974C42.2036 2.09971 42.1217 1.76252 41.953 1.46773C41.7843 1.17294 41.5356 0.932768 41.2363 0.775391H50.9931C63.0632 0.775391 65.4832 9.3954 65.4832 12.9806C65.4832 19.4173 60.5664 25.9255 50.6617 25.9255ZM50.2239 2.62467C49.3423 2.62467 47.3957 2.62467 46.8454 2.70222V24.0047H49.8038C58.0873 24.0047 60.4066 18.3793 60.4066 12.9806C60.383 8.54234 57.8151 2.62467 50.2239 2.62467Z" fill="#AEAEB7"/>
<path d="M79.7427 25.9256C80.7012 25.4066 80.8846 24.8936 80.6243 24.136C80.5178 23.7662 79.5593 21.5112 78.5357 18.9998H69.5481C68.7773 20.6633 68.092 22.3657 67.495 24.1002C67.1637 24.9891 67.3471 25.5081 68.3352 25.9495H63.2764C64.0093 25.5327 64.6072 24.9112 64.9981 24.1599C65.6786 22.7103 75.3406 0 75.3406 0C75.3406 0 85.1033 22.7103 85.76 24.1122C85.9289 24.5206 86.1787 24.89 86.494 25.1977C86.8094 25.5054 87.1838 25.745 87.5942 25.9018L79.7427 25.9256ZM73.962 7.98767C73.962 7.98767 71.4652 14.2752 70.2936 17.0491H77.6896C75.9678 12.9449 73.962 7.98767 73.962 7.98767Z" fill="#AEAEB7"/>
<path d="M86.4933 29.4812C86.4933 29.4812 33.136 28.145 1.49316 45.1285C1.49316 45.1285 34.9998 31.772 86.4933 33.1082V29.4812Z" fill="#AEAEB7"/>
<path d="M1.49316 29.481C1.49316 29.481 19.4801 29.6719 30.645 33.8715C30.645 33.8715 7.74126 31.9626 1.49316 32.917V29.481Z" fill="#AEAEB7"/>
<path d="M1.49316 35.3986C1.49316 35.3986 14.368 34.8021 22.1308 35.5895C22.1308 35.5895 3.38653 37.8802 1.49316 38.8347V35.3986Z" fill="#AEAEB7"/>
<path d="M77.6476 35.9831H77.3695C61.8499 36.2873 29.2959 38.1783 1.50488 48.0749V60.0057H86.505V35.9831C86.505 35.9831 83.2035 35.8816 77.6476 35.9831Z" fill="#AEAEB7"/>
</g>
<defs>
<clipPath id="clip0_414_3706">
<rect width="87" height="60" fill="white" transform="translate(0.59375)"/>
</clipPath>
</defs>
</svg>
