<svg width="132" height="65" viewBox="0 0 132 65" fill="none" xmlns="http://www.w3.org/2000/svg">
<path fill-rule="evenodd" clip-rule="evenodd" d="M79.7344 3.32035e-05C79.8351 -0.0126166 85.2946 3.5904 86.4171 8.76242C85.6482 9.10135 84.9547 9.51574 84.3369 10.0178C84.0596 8.44879 83.4291 6.79167 82.2313 5.21001C82.2313 5.21001 83.5802 7.38185 83.6057 10.683C82.1051 12.2145 81.1846 14.3109 80.8192 16.8343C73.5314 11.2104 80.7311 2.44842 79.7348 0.000469829M96.2395 8.64944C96.1637 8.54912 82.3447 5.44817 81.6766 17.7381C81.6766 17.7381 84.173 11.1602 91.0196 10.3567C91.0196 10.3567 84.9547 11.9886 82.3951 18.6546C92.104 20.1734 93.8184 9.61606 96.2395 8.64944ZM69.6097 6.18884C69.5216 6.30181 68.8027 20.6 81.1719 18.7798C81.1719 18.7798 74.0733 17.6247 72.1565 11.0346C72.1565 11.0346 74.0856 15.9305 80.2763 17.3865C77.5529 15.2649 76.4935 12.5286 76.7963 9.22697C73.7452 7.74564 70.3155 7.3439 69.6093 6.18927L69.6097 6.18884Z" fill="#AEAEB7"/>
<path fill-rule="evenodd" clip-rule="evenodd" d="M66.5077 11.6239C66.1545 12.2642 59.6865 8.7995 52.7391 8.7995C43.913 8.7995 33.9268 13.7076 27.7864 31.1316C23.2851 43.9358 22.7304 45.6431 22.4654 46.2835C22.4654 46.2835 22.4277 46.321 22.4277 46.3711C22.0873 46.8732 19.3008 47.476 16.9428 46.7101C12.013 45.1284 9.22605 40.7346 6.56575 27.29C2.6191 7.60693 0.349598 7.21784 0.614665 5.89964C0.992769 4.15484 5.11598 3.94154 7.2593 4.70707C12.1387 6.41436 13.3493 14.7371 15.5307 24.5537C17.3717 32.8764 19.6035 42.2285 19.6035 42.2285H19.6539C19.7297 42.0152 20.9779 38.5632 23.5502 30.7046C30.6237 8.93734 44.4304 1.84473 57.5055 1.84473C65.1714 1.84473 69.3831 6.50203 66.5081 11.6239H66.5077ZM131.191 42.6054C132.199 45.6937 132.111 53.4014 121.167 57.8327C104.271 64.6741 86.3667 61.0213 70.0889 54.5311C69.7108 56.3261 69.1938 57.9457 68.5507 59.226C64.0997 67.6743 50.205 66.2684 50.205 57.6945C50.205 52.5604 54.492 46.635 64.2636 48.129C64.5282 46.3716 64.7429 44.5387 64.9068 42.8314C63.2423 44.4632 61.3132 45.48 58.7791 45.179C53.6727 44.6268 50.5962 40.3084 52.0083 32.5379C53.4204 24.8551 60.1031 21.9557 64.4406 23.5374C64.6548 19.5204 67.656 17.5619 73.3928 20.8007C74.3383 21.3529 73.5317 26.9895 72.3716 34.8476C71.7788 38.8271 71.5518 44.7145 70.871 49.9995C83.921 55.636 95.1805 56.703 106.705 54.2803C114.195 52.7113 122 50.1124 127.585 44.7022C129.968 42.3926 130.687 40.9989 131.191 42.6059L131.191 42.6054ZM62.5111 56.9913C62.8515 56.1377 63.2423 54.3427 63.6331 52.0832C57.707 50.6394 53.5084 52.8993 53.5084 56.6903C53.5084 63.2682 60.3678 62.5528 62.5111 56.9917V56.9913ZM65.2599 35.9146C65.3357 32.2867 65.2095 29.6756 64.6167 25.9723C62.3472 25.3319 60.582 28.056 60.0273 33.0902C59.1699 40.434 62.0826 41.8019 62.9023 40.9989C64.3525 39.5804 64.9953 37.3209 65.2603 35.915L65.2599 35.9146ZM122.907 44.752C116.817 48.8069 111.975 47.9026 113.526 36.5043C114.636 28.2191 112.795 27.7546 111.118 29.3362C108.936 31.3824 107.562 36.7176 107.524 41.8015C107.738 43.0818 107.991 44.3249 108.294 45.4294C108.558 46.6595 104.524 47.9528 102.166 46.1949C101.952 46.0444 101.75 45.5297 101.573 44.7136C99.8207 46.4335 97.223 47.4752 93.9576 46.8854C91.3727 46.4588 89.494 45.1781 88.3343 42.8685C87.9939 43.5088 87.5649 44.1112 86.9599 44.7014C82.1181 49.572 73.5821 47.2248 74.4899 40.8602C75.3473 35.0103 82.2066 33.4287 87.0103 32.575C87.1741 27.2023 87.6911 25.0178 85.3331 24.5158C83.404 24.0892 81.475 24.8922 81.1722 26.1729C80.7437 27.8427 83.0132 27.4531 83.2402 27.8802C84.2238 30.0642 82.0296 34.0816 78.0834 32.8389C74.9565 31.8976 74.6538 28.1816 77.9572 24.8172C81.2984 21.39 93.8315 20.1599 94.8909 26.3487C95.6221 30.579 93.9577 36.9815 95.4079 41.0735C95.9625 42.7433 97.942 45.0403 99.9468 42.7808C100.35 42.3415 100.767 42.0275 101.145 41.8268C100.88 39.2157 100.703 35.6005 100.703 31.4326C100.703 24.7291 101.611 20.1097 102.418 19.9086C108.597 18.2389 109.58 20.9254 108.256 25.9718C107.702 28.0555 107.349 30.0642 107.185 31.9848C108.471 28.4446 110.312 25.5452 112.417 24.2645C118.116 20.7243 122.882 22.3815 121.975 29.4365C120.436 42.0148 120.297 43.7347 121.672 42.7428C123.387 41.5376 124.496 43.6719 122.907 44.7515L122.907 44.752ZM87.0098 36.5043C86.9594 36.1152 86.9594 35.7388 86.9594 35.3492V34.4581C83.9964 35.563 81.563 37.3579 81.2603 39.7932C80.7433 44.5762 83.3659 44.4506 84.9419 42.9064C86.4801 41.4626 86.9594 38.8894 86.9594 36.7551C86.9594 36.6796 86.9594 36.592 87.0098 36.5039V36.5043ZM49.8269 43.5092C48.1497 46.1578 43.825 47.4385 39.6641 46.9613C33.7125 46.3336 30.0183 41.0739 31.443 33.2153C32.9813 24.7295 45.3251 19.3062 49.2718 25.3694C52.1467 29.7633 47.5946 37.5337 40.3572 40.3956C40.231 40.4331 40.0925 40.4711 39.9664 40.5213C41.467 44.4506 45.0224 46.1954 48.452 42.3162C50.091 40.5213 51.2385 41.2868 49.8264 43.5088L49.8269 43.5092ZM39.374 37.8727C43.8753 34.7093 45.3759 27.7546 44.1277 25.7965C42.8037 23.7376 40.2314 26.9515 39.3236 34.7093C39.2478 35.8264 39.2478 36.8938 39.374 37.8727Z" fill="#AEAEB7"/>
<path d="M44.6953 14.8753L44.8968 15.6535L45.6535 15.4651V18.867H46.599V14.5111H45.9435L44.6953 14.8753ZM51.3654 16.6956C51.3654 16.382 51.315 16.0932 51.2265 15.8166C51.1384 15.5405 51.0122 15.3019 50.8357 15.1013C50.6718 14.9006 50.4698 14.7497 50.2306 14.6367C49.991 14.5237 49.7263 14.4609 49.4363 14.4609C49.1462 14.4609 48.8816 14.5237 48.642 14.6367C48.4023 14.7497 48.2008 14.9128 48.0369 15.1139C47.8603 15.3146 47.7342 15.5532 47.6461 15.8293C47.5453 16.1054 47.4949 16.3942 47.4949 16.7082C47.4949 17.0223 47.5453 17.3233 47.6338 17.5872C47.7219 17.8633 47.8608 18.0892 48.0246 18.3026C48.1885 18.5032 48.3905 18.6541 48.6297 18.7671C48.8693 18.8801 49.134 18.9429 49.424 18.9429C49.7141 18.9429 49.9787 18.8801 50.2183 18.7671C50.458 18.6541 50.6595 18.491 50.8234 18.2899C51 18.0892 51.1261 17.8506 51.2269 17.5745C51.315 17.3111 51.3658 17.0097 51.3658 16.6956H51.3654ZM50.3818 16.7082C50.3818 16.9089 50.3564 17.0847 50.3187 17.2605C50.2683 17.4236 50.2052 17.5619 50.1294 17.6871C50.0413 17.8127 49.9401 17.913 49.8267 17.9758C49.7132 18.0513 49.587 18.0762 49.4358 18.0762C49.297 18.0762 49.1585 18.0386 49.045 17.9758C48.9189 17.9004 48.8308 17.8127 48.7423 17.6871C48.6542 17.5614 48.5911 17.411 48.553 17.2478C48.5026 17.072 48.4772 16.8962 48.4772 16.6956C48.4772 16.4949 48.5026 16.3191 48.5403 16.1434C48.5907 15.9802 48.6538 15.8297 48.7296 15.7041C48.8177 15.5911 48.9189 15.4908 49.0323 15.428C49.1458 15.3525 49.2847 15.3277 49.4231 15.3277C49.5743 15.3277 49.7005 15.353 49.814 15.428C49.9401 15.5035 50.0409 15.5911 50.1167 15.7168C50.2048 15.8424 50.2679 15.9929 50.3182 16.156C50.3559 16.3318 50.3813 16.5076 50.3813 16.7082H50.3818ZM55.8917 16.6956C55.8917 16.382 55.854 16.0932 55.7655 15.8166C55.6647 15.5405 55.5385 15.3019 55.3747 15.1013C55.2108 14.9006 54.9966 14.7497 54.7696 14.6367C54.53 14.5237 54.2653 14.4609 53.9753 14.4609C53.6852 14.4609 53.4206 14.5237 53.181 14.6367C52.9413 14.7497 52.7398 14.9128 52.5632 15.1139C52.3993 15.3146 52.2732 15.5532 52.1724 15.8293C52.0843 16.1054 52.0335 16.3942 52.0335 16.7082C52.0335 17.0223 52.0839 17.3233 52.1724 17.5872C52.2605 17.8633 52.3866 18.0892 52.5632 18.3026C52.7271 18.5032 52.929 18.6541 53.1683 18.7671C53.4079 18.8801 53.6725 18.9429 53.9626 18.9429C54.2526 18.9429 54.5172 18.8801 54.7569 18.7671C54.9839 18.6541 55.1981 18.491 55.362 18.2899C55.5385 18.0892 55.6647 17.8506 55.7528 17.5745C55.8535 17.3111 55.8917 17.0097 55.8917 16.6956ZM54.9208 16.7082C54.9208 16.9089 54.8954 17.0847 54.845 17.2605C54.8073 17.4236 54.7442 17.5619 54.6557 17.6871C54.5799 17.8127 54.4791 17.913 54.3657 17.9758C54.2522 18.0513 54.1133 18.0762 53.9748 18.0762C53.8237 18.0762 53.6975 18.0386 53.5713 17.9758C53.4579 17.9004 53.3571 17.8127 53.2813 17.6871C53.1932 17.5614 53.1301 17.411 53.0798 17.2478C53.0421 17.072 53.0167 16.8962 53.0167 16.6956C53.0167 16.4949 53.0421 16.3191 53.0798 16.1434C53.1174 15.9802 53.1805 15.8297 53.269 15.7041C53.3571 15.5911 53.4583 15.4908 53.5718 15.428C53.6852 15.3525 53.8114 15.3277 53.9626 15.3277C54.1015 15.3277 54.2399 15.353 54.3534 15.428C54.4669 15.5035 54.5676 15.5911 54.6561 15.7168C54.7319 15.8424 54.8073 15.9929 54.8454 16.156C54.8958 16.3318 54.9212 16.5076 54.9212 16.7082H54.9208ZM58.6278 15.5911C58.6278 15.4406 58.6023 15.2897 58.552 15.1645C58.5016 15.0263 58.4258 14.9133 58.3377 14.813C58.2369 14.7126 58.1362 14.6372 57.9973 14.5743C57.8711 14.5115 57.7327 14.4867 57.5688 14.4867C57.4177 14.4867 57.2788 14.512 57.1403 14.5743C57.0141 14.6372 56.9007 14.7126 56.8126 14.813C56.7118 14.9133 56.636 15.0263 56.5856 15.1645C56.5353 15.3028 56.5098 15.4533 56.5098 15.6038C56.5098 15.7543 56.5353 15.8925 56.5856 16.0304C56.636 16.1687 56.7118 16.2816 56.7999 16.382C56.9007 16.4823 57.0014 16.5578 57.1276 16.6206C57.2665 16.6707 57.4049 16.696 57.5561 16.696C57.72 16.696 57.8588 16.6707 57.9973 16.6206C58.1235 16.5578 58.2369 16.4823 58.325 16.382C58.4258 16.2816 58.4889 16.156 58.552 16.0177C58.6023 15.8921 58.6278 15.7416 58.6278 15.5911ZM60.8596 14.5368H60.1156L56.951 18.8679H57.6823L60.8596 14.5368ZM61.3008 17.8005C61.3008 17.65 61.2754 17.5117 61.225 17.3739C61.1746 17.2356 61.0988 17.1226 61.0107 17.0223C60.91 16.922 60.7965 16.8465 60.6703 16.7837C60.5441 16.7335 60.4057 16.696 60.2418 16.696C60.0907 16.696 59.9391 16.7335 59.8133 16.7837C59.6872 16.8465 59.5737 16.922 59.4729 17.0223C59.3848 17.1226 59.309 17.2483 59.2587 17.3865C59.2083 17.5122 59.1829 17.6626 59.1829 17.8131C59.1829 17.9636 59.2083 18.1145 59.2587 18.2397C59.309 18.378 59.3848 18.491 59.4729 18.5913C59.561 18.6916 59.6744 18.7671 59.8006 18.8299C59.9268 18.8801 60.078 18.9176 60.2291 18.9176C60.393 18.9176 60.5319 18.8801 60.6703 18.8299C60.7965 18.7671 60.91 18.6916 60.998 18.5913C61.0988 18.491 61.1619 18.378 61.2123 18.2397C61.2627 18.1015 61.3003 17.9636 61.3003 17.8005H61.3008ZM57.9719 15.6038C57.9719 15.7421 57.9342 15.8672 57.8711 15.9802C57.808 16.0805 57.7073 16.1434 57.5684 16.1434C57.4549 16.1434 57.3541 16.0805 57.2783 15.9802C57.2025 15.8672 57.1648 15.7416 57.1648 15.5911C57.1648 15.4406 57.2025 15.315 57.2656 15.2147C57.3287 15.1017 57.4295 15.0516 57.5557 15.0516C57.6818 15.0516 57.7826 15.1017 57.8584 15.2147C57.9342 15.3277 57.9719 15.4533 57.9719 15.6038ZM60.6449 17.8131C60.6449 17.9636 60.6072 18.0892 60.5441 18.1896C60.481 18.3025 60.3803 18.3527 60.2414 18.3527C60.1152 18.3527 60.0271 18.3025 59.9513 18.1896C59.8755 18.0766 59.8379 17.951 59.8379 17.8005C59.8379 17.6622 59.8633 17.537 59.9386 17.424C60.0017 17.3237 60.1025 17.2609 60.2287 17.2609C60.3549 17.2609 60.4556 17.3237 60.5314 17.424C60.6072 17.537 60.6449 17.6626 60.6449 17.8131Z" fill="#AEAEB7"/>
</svg>
